<?xml version="1.0" encoding="utf-8" standalone="no"?>
<!DOCTYPE svg PUBLIC "-//W3C//DTD SVG 1.1//EN"
  "http://www.w3.org/Graphics/SVG/1.1/DTD/svg11.dtd">
<svg xmlns:xlink="http://www.w3.org/1999/xlink" width="720pt" height="216pt" viewBox="0 0 720 216" xmlns="http://www.w3.org/2000/svg" version="1.1">
 <metadata>
  <rdf:RDF xmlns:dc="http://purl.org/dc/elements/1.1/" xmlns:cc="http://creativecommons.org/ns#" xmlns:rdf="http://www.w3.org/1999/02/22-rdf-syntax-ns#">
   <cc:Work>
    <dc:type rdf:resource="http://purl.org/dc/dcmitype/StillImage"/>
    <dc:date>2024-05-19T11:04:03.280042</dc:date>
    <dc:format>image/svg+xml</dc:format>
    <dc:creator>
     <cc:Agent>
      <dc:title>Matplotlib v3.7.2, https://matplotlib.org/</dc:title>
     </cc:Agent>
    </dc:creator>
   </cc:Work>
  </rdf:RDF>
 </metadata>
 <defs>
  <style type="text/css">*{stroke-linejoin: round; stroke-linecap: butt}</style>
 </defs>
 <g id="figure_1">
  <g id="patch_1">
   <path d="M 0 216 
L 720 216 
L 720 0 
L 0 0 
z
" style="fill: #ffffff"/>
  </g>
  <g id="axes_1">
   <g id="patch_2">
    <path d="M 47.72 199.08 
L 709.2 199.08 
L 709.2 14.3 
L 47.72 14.3 
z
" style="fill: #ffffff"/>
   </g>
   <g id="patch_3">
    <path d="M 77.787273 199.08 
L 82.522276 199.08 
L 82.522276 51.655125 
L 77.787273 51.655125 
z
" clip-path="url(#p0e832eb2be)" style="fill: #1f77b4"/>
   </g>
   <g id="patch_4">
    <path d="M 125.137309 199.08 
L 129.872312 199.08 
L 129.872312 171.229958 
L 125.137309 171.229958 
z
" clip-path="url(#p0e832eb2be)" style="fill: #1f77b4"/>
   </g>
   <g id="patch_5">
    <path d="M 172.487344 199.08 
L 177.222348 199.08 
L 177.222348 116.244358 
L 172.487344 116.244358 
z
" clip-path="url(#p0e832eb2be)" style="fill: #1f77b4"/>
   </g>
   <g id="patch_6">
    <path d="M 219.83738 199.08 
L 224.572384 199.08 
L 224.572384 82.180781 
L 219.83738 82.180781 
z
" clip-path="url(#p0e832eb2be)" style="fill: #1f77b4"/>
   </g>
   <g id="patch_7">
    <path d="M 267.187416 199.08 
L 271.922419 199.08 
L 271.922419 89.778934 
L 267.187416 89.778934 
z
" clip-path="url(#p0e832eb2be)" style="fill: #1f77b4"/>
   </g>
   <g id="patch_8">
    <path d="M 314.537452 199.08 
L 319.272455 199.08 
L 319.272455 69.581249 
L 314.537452 69.581249 
z
" clip-path="url(#p0e832eb2be)" style="fill: #1f77b4"/>
   </g>
   <g id="patch_9">
    <path d="M 361.887487 199.08 
L 366.622491 199.08 
L 366.622491 48.196043 
L 361.887487 48.196043 
z
" clip-path="url(#p0e832eb2be)" style="fill: #1f77b4"/>
   </g>
   <g id="patch_10">
    <path d="M 409.237523 199.08 
L 413.972527 199.08 
L 413.972527 74.252487 
L 409.237523 74.252487 
z
" clip-path="url(#p0e832eb2be)" style="fill: #1f77b4"/>
   </g>
   <g id="patch_11">
    <path d="M 456.587559 199.08 
L 461.322563 199.08 
L 461.322563 55.621735 
L 456.587559 55.621735 
z
" clip-path="url(#p0e832eb2be)" style="fill: #1f77b4"/>
   </g>
   <g id="patch_12">
    <path d="M 503.937595 199.08 
L 508.672598 199.08 
L 508.672598 98.052151 
L 503.937595 98.052151 
z
" clip-path="url(#p0e832eb2be)" style="fill: #1f77b4"/>
   </g>
   <g id="patch_13">
    <path d="M 551.287631 199.08 
L 556.022634 199.08 
L 556.022634 111.425295 
L 551.287631 111.425295 
z
" clip-path="url(#p0e832eb2be)" style="fill: #1f77b4"/>
   </g>
   <g id="patch_14">
    <path d="M 598.637666 199.08 
L 603.37267 199.08 
L 603.37267 83.486559 
L 598.637666 83.486559 
z
" clip-path="url(#p0e832eb2be)" style="fill: #1f77b4"/>
   </g>
   <g id="patch_15">
    <path d="M 645.987702 199.08 
L 650.722706 199.08 
L 650.722706 119.186055 
L 645.987702 119.186055 
z
" clip-path="url(#p0e832eb2be)" style="fill: #1f77b4"/>
   </g>
   <g id="patch_16">
    <path d="M 82.522276 199.08 
L 87.25728 199.08 
L 87.25728 46.363026 
L 82.522276 46.363026 
z
" clip-path="url(#p0e832eb2be)" style="fill: #aec7e8"/>
   </g>
   <g id="patch_17">
    <path d="M 129.872312 199.08 
L 134.607316 199.08 
L 134.607316 83.826555 
L 129.872312 83.826555 
z
" clip-path="url(#p0e832eb2be)" style="fill: #aec7e8"/>
   </g>
   <g id="patch_18">
    <path d="M 177.222348 199.08 
L 181.957351 199.08 
L 181.957351 115.855088 
L 177.222348 115.855088 
z
" clip-path="url(#p0e832eb2be)" style="fill: #aec7e8"/>
   </g>
   <g id="patch_19">
    <path d="M 224.572384 199.08 
L 229.307387 199.08 
L 229.307387 80.968624 
L 224.572384 80.968624 
z
" clip-path="url(#p0e832eb2be)" style="fill: #aec7e8"/>
   </g>
   <g id="patch_20">
    <path d="M 271.922419 199.08 
L 276.657423 199.08 
L 276.657423 95.080889 
L 271.922419 95.080889 
z
" clip-path="url(#p0e832eb2be)" style="fill: #aec7e8"/>
   </g>
   <g id="patch_21">
    <path d="M 319.272455 199.08 
L 324.007459 199.08 
L 324.007459 80.746888 
L 319.272455 80.746888 
z
" clip-path="url(#p0e832eb2be)" style="fill: #aec7e8"/>
   </g>
   <g id="patch_22">
    <path d="M 366.622491 199.08 
L 371.357495 199.08 
L 371.357495 44.456096 
L 366.622491 44.456096 
z
" clip-path="url(#p0e832eb2be)" style="fill: #aec7e8"/>
   </g>
   <g id="patch_23">
    <path d="M 413.972527 199.08 
L 418.70753 199.08 
L 418.70753 45.485937 
L 413.972527 45.485937 
z
" clip-path="url(#p0e832eb2be)" style="fill: #aec7e8"/>
   </g>
   <g id="patch_24">
    <path d="M 461.322563 199.08 
L 466.057566 199.08 
L 466.057566 54.281465 
L 461.322563 54.281465 
z
" clip-path="url(#p0e832eb2be)" style="fill: #aec7e8"/>
   </g>
   <g id="patch_25">
    <path d="M 508.672598 199.08 
L 513.407602 199.08 
L 513.407602 93.671633 
L 508.672598 93.671633 
z
" clip-path="url(#p0e832eb2be)" style="fill: #aec7e8"/>
   </g>
   <g id="patch_26">
    <path d="M 556.022634 199.08 
L 560.757638 199.08 
L 560.757638 113.987578 
L 556.022634 113.987578 
z
" clip-path="url(#p0e832eb2be)" style="fill: #aec7e8"/>
   </g>
   <g id="patch_27">
    <path d="M 603.37267 199.08 
L 608.107674 199.08 
L 608.107674 140.70923 
L 603.37267 140.70923 
z
" clip-path="url(#p0e832eb2be)" style="fill: #aec7e8"/>
   </g>
   <g id="patch_28">
    <path d="M 650.722706 199.08 
L 655.457709 199.08 
L 655.457709 150.386774 
L 650.722706 150.386774 
z
" clip-path="url(#p0e832eb2be)" style="fill: #aec7e8"/>
   </g>
   <g id="patch_29">
    <path d="M 87.25728 199.08 
L 91.992283 199.08 
L 91.992283 46.969104 
L 87.25728 46.969104 
z
" clip-path="url(#p0e832eb2be)" style="fill: #ff7f0e"/>
   </g>
   <g id="patch_30">
    <path d="M 134.607316 199.08 
L 139.342319 199.08 
L 139.342319 91.922382 
L 134.607316 91.922382 
z
" clip-path="url(#p0e832eb2be)" style="fill: #ff7f0e"/>
   </g>
   <g id="patch_31">
    <path d="M 181.957351 199.08 
L 186.692355 199.08 
L 186.692355 120.546036 
L 181.957351 120.546036 
z
" clip-path="url(#p0e832eb2be)" style="fill: #ff7f0e"/>
   </g>
   <g id="patch_32">
    <path d="M 229.307387 199.08 
L 234.042391 199.08 
L 234.042391 82.486284 
L 229.307387 82.486284 
z
" clip-path="url(#p0e832eb2be)" style="fill: #ff7f0e"/>
   </g>
   <g id="patch_33">
    <path d="M 276.657423 199.08 
L 281.392427 199.08 
L 281.392427 94.489593 
L 276.657423 94.489593 
z
" clip-path="url(#p0e832eb2be)" style="fill: #ff7f0e"/>
   </g>
   <g id="patch_34">
    <path d="M 324.007459 199.08 
L 328.742462 199.08 
L 328.742462 83.126854 
L 324.007459 83.126854 
z
" clip-path="url(#p0e832eb2be)" style="fill: #ff7f0e"/>
   </g>
   <g id="patch_35">
    <path d="M 371.357495 199.08 
L 376.092498 199.08 
L 376.092498 43.874655 
L 371.357495 43.874655 
z
" clip-path="url(#p0e832eb2be)" style="fill: #ff7f0e"/>
   </g>
   <g id="patch_36">
    <path d="M 418.70753 199.08 
L 423.442534 199.08 
L 423.442534 44.495516 
L 418.70753 44.495516 
z
" clip-path="url(#p0e832eb2be)" style="fill: #ff7f0e"/>
   </g>
   <g id="patch_37">
    <path d="M 466.057566 199.08 
L 470.79257 199.08 
L 470.79257 55.271885 
L 466.057566 55.271885 
z
" clip-path="url(#p0e832eb2be)" style="fill: #ff7f0e"/>
   </g>
   <g id="patch_38">
    <path d="M 513.407602 199.08 
L 518.142606 199.08 
L 518.142606 100.126614 
L 513.407602 100.126614 
z
" clip-path="url(#p0e832eb2be)" style="fill: #ff7f0e"/>
   </g>
   <g id="patch_39">
    <path d="M 560.757638 199.08 
L 565.492641 199.08 
L 565.492641 119.521123 
L 560.757638 119.521123 
z
" clip-path="url(#p0e832eb2be)" style="fill: #ff7f0e"/>
   </g>
   <g id="patch_40">
    <path d="M 608.107674 199.08 
L 612.842677 199.08 
L 612.842677 134.613954 
L 608.107674 134.613954 
z
" clip-path="url(#p0e832eb2be)" style="fill: #ff7f0e"/>
   </g>
   <g id="patch_41">
    <path d="M 655.457709 199.08 
L 660.192713 199.08 
L 660.192713 150.68735 
L 655.457709 150.68735 
z
" clip-path="url(#p0e832eb2be)" style="fill: #ff7f0e"/>
   </g>
   <g id="patch_42">
    <path d="M 91.992283 199.08 
L 96.727287 199.08 
L 96.727287 134.703768 
L 91.992283 134.703768 
z
" clip-path="url(#p0e832eb2be)" style="fill: #ffbb78"/>
   </g>
   <g id="patch_43">
    <path d="M 139.342319 199.08 
L 144.077323 199.08 
L 144.077323 124.861533 
L 139.342319 124.861533 
z
" clip-path="url(#p0e832eb2be)" style="fill: #ffbb78"/>
   </g>
   <g id="patch_44">
    <path d="M 186.692355 199.08 
L 191.427359 199.08 
L 191.427359 155.96315 
L 186.692355 155.96315 
z
" clip-path="url(#p0e832eb2be)" style="fill: #ffbb78"/>
   </g>
   <g id="patch_45">
    <path d="M 234.042391 199.08 
L 238.777394 199.08 
L 238.777394 138.870436 
L 234.042391 138.870436 
z
" clip-path="url(#p0e832eb2be)" style="fill: #ffbb78"/>
   </g>
   <g id="patch_46">
    <path d="M 281.392427 199.08 
L 286.12743 199.08 
L 286.12743 151.220101 
L 281.392427 151.220101 
z
" clip-path="url(#p0e832eb2be)" style="fill: #ffbb78"/>
   </g>
   <g id="patch_47">
    <path d="M 328.742462 199.08 
L 333.477466 199.08 
L 333.477466 154.711835 
L 328.742462 154.711835 
z
" clip-path="url(#p0e832eb2be)" style="fill: #ffbb78"/>
   </g>
   <g id="patch_48">
    <path d="M 376.092498 199.08 
L 380.827502 199.08 
L 380.827502 132.403385 
L 376.092498 132.403385 
z
" clip-path="url(#p0e832eb2be)" style="fill: #ffbb78"/>
   </g>
   <g id="patch_49">
    <path d="M 423.442534 199.08 
L 428.177538 199.08 
L 428.177538 131.849469 
L 423.442534 131.849469 
z
" clip-path="url(#p0e832eb2be)" style="fill: #ffbb78"/>
   </g>
   <g id="patch_50">
    <path d="M 470.79257 199.08 
L 475.527573 199.08 
L 475.527573 113.233053 
L 470.79257 113.233053 
z
" clip-path="url(#p0e832eb2be)" style="fill: #ffbb78"/>
   </g>
   <g id="patch_51">
    <path d="M 518.142606 199.08 
L 522.877609 199.08 
L 522.877609 160.721266 
L 518.142606 160.721266 
z
" clip-path="url(#p0e832eb2be)" style="fill: #ffbb78"/>
   </g>
   <g id="patch_52">
    <path d="M 565.492641 199.08 
L 570.227645 199.08 
L 570.227645 151.573122 
L 565.492641 151.573122 
z
" clip-path="url(#p0e832eb2be)" style="fill: #ffbb78"/>
   </g>
   <g id="patch_53">
    <path d="M 612.842677 199.08 
L 617.577681 199.08 
L 617.577681 185.087805 
L 612.842677 185.087805 
z
" clip-path="url(#p0e832eb2be)" style="fill: #ffbb78"/>
   </g>
   <g id="patch_54">
    <path d="M 660.192713 199.08 
L 664.927717 199.08 
L 664.927717 199.08 
L 660.192713 199.08 
z
" clip-path="url(#p0e832eb2be)" style="fill: #ffbb78"/>
   </g>
   <g id="patch_55">
    <path d="M 96.727287 199.08 
L 101.462291 199.08 
L 101.462291 65.303083 
L 96.727287 65.303083 
z
" clip-path="url(#p0e832eb2be)" style="fill: #2ca02c"/>
   </g>
   <g id="patch_56">
    <path d="M 144.077323 199.08 
L 148.812326 199.08 
L 148.812326 128.379285 
L 144.077323 128.379285 
z
" clip-path="url(#p0e832eb2be)" style="fill: #2ca02c"/>
   </g>
   <g id="patch_57">
    <path d="M 191.427359 199.08 
L 196.162362 199.08 
L 196.162362 145.843253 
L 191.427359 145.843253 
z
" clip-path="url(#p0e832eb2be)" style="fill: #2ca02c"/>
   </g>
   <g id="patch_58">
    <path d="M 238.777394 199.08 
L 243.512398 199.08 
L 243.512398 120.608044 
L 238.777394 120.608044 
z
" clip-path="url(#p0e832eb2be)" style="fill: #2ca02c"/>
   </g>
   <g id="patch_59">
    <path d="M 286.12743 199.08 
L 290.862434 199.08 
L 290.862434 122.639536 
L 286.12743 122.639536 
z
" clip-path="url(#p0e832eb2be)" style="fill: #2ca02c"/>
   </g>
   <g id="patch_60">
    <path d="M 333.477466 199.08 
L 338.21247 199.08 
L 338.21247 111.180551 
L 333.477466 111.180551 
z
" clip-path="url(#p0e832eb2be)" style="fill: #2ca02c"/>
   </g>
   <g id="patch_61">
    <path d="M 380.827502 199.08 
L 385.562505 199.08 
L 385.562505 58.18637 
L 380.827502 58.18637 
z
" clip-path="url(#p0e832eb2be)" style="fill: #2ca02c"/>
   </g>
   <g id="patch_62">
    <path d="M 428.177538 199.08 
L 432.912541 199.08 
L 432.912541 107.287346 
L 428.177538 107.287346 
z
" clip-path="url(#p0e832eb2be)" style="fill: #2ca02c"/>
   </g>
   <g id="patch_63">
    <path d="M 475.527573 199.08 
L 480.262577 199.08 
L 480.262577 87.753337 
L 475.527573 87.753337 
z
" clip-path="url(#p0e832eb2be)" style="fill: #2ca02c"/>
   </g>
   <g id="patch_64">
    <path d="M 522.877609 199.08 
L 527.612613 199.08 
L 527.612613 141.244307 
L 522.877609 141.244307 
z
" clip-path="url(#p0e832eb2be)" style="fill: #2ca02c"/>
   </g>
   <g id="patch_65">
    <path d="M 570.227645 199.08 
L 574.962649 199.08 
L 574.962649 185.553046 
L 570.227645 185.553046 
z
" clip-path="url(#p0e832eb2be)" style="fill: #2ca02c"/>
   </g>
   <g id="patch_66">
    <path d="M 617.577681 199.08 
L 622.312684 199.08 
L 622.312684 161.398001 
L 617.577681 161.398001 
z
" clip-path="url(#p0e832eb2be)" style="fill: #2ca02c"/>
   </g>
   <g id="patch_67">
    <path d="M 664.927717 199.08 
L 669.66272 199.08 
L 669.66272 199.08 
L 664.927717 199.08 
z
" clip-path="url(#p0e832eb2be)" style="fill: #2ca02c"/>
   </g>
   <g id="patch_68">
    <path d="M 101.462291 199.08 
L 106.197294 199.08 
L 106.197294 111.964335 
L 101.462291 111.964335 
z
" clip-path="url(#p0e832eb2be)" style="fill: #98df8a"/>
   </g>
   <g id="patch_69">
    <path d="M 148.812326 199.08 
L 153.54733 199.08 
L 153.54733 139.136213 
L 148.812326 139.136213 
z
" clip-path="url(#p0e832eb2be)" style="fill: #98df8a"/>
   </g>
   <g id="patch_70">
    <path d="M 196.162362 199.08 
L 200.897366 199.08 
L 200.897366 153.863848 
L 196.162362 153.863848 
z
" clip-path="url(#p0e832eb2be)" style="fill: #98df8a"/>
   </g>
   <g id="patch_71">
    <path d="M 243.512398 199.08 
L 248.247402 199.08 
L 248.247402 123.001574 
L 243.512398 123.001574 
z
" clip-path="url(#p0e832eb2be)" style="fill: #98df8a"/>
   </g>
   <g id="patch_72">
    <path d="M 290.862434 199.08 
L 295.597437 199.08 
L 295.597437 137.300974 
L 290.862434 137.300974 
z
" clip-path="url(#p0e832eb2be)" style="fill: #98df8a"/>
   </g>
   <g id="patch_73">
    <path d="M 338.21247 199.08 
L 342.947473 199.08 
L 342.947473 141.283921 
L 338.21247 141.283921 
z
" clip-path="url(#p0e832eb2be)" style="fill: #98df8a"/>
   </g>
   <g id="patch_74">
    <path d="M 385.562505 199.08 
L 390.297509 199.08 
L 390.297509 108.736882 
L 385.562505 108.736882 
z
" clip-path="url(#p0e832eb2be)" style="fill: #98df8a"/>
   </g>
   <g id="patch_75">
    <path d="M 432.912541 199.08 
L 437.647545 199.08 
L 437.647545 72.80616 
L 432.912541 72.80616 
z
" clip-path="url(#p0e832eb2be)" style="fill: #98df8a"/>
   </g>
   <g id="patch_76">
    <path d="M 480.262577 199.08 
L 484.997581 199.08 
L 484.997581 53.589828 
L 480.262577 53.589828 
z
" clip-path="url(#p0e832eb2be)" style="fill: #98df8a"/>
   </g>
   <g id="patch_77">
    <path d="M 527.612613 199.08 
L 532.347616 199.08 
L 532.347616 137.681491 
L 527.612613 137.681491 
z
" clip-path="url(#p0e832eb2be)" style="fill: #98df8a"/>
   </g>
   <g id="patch_78">
    <path d="M 574.962649 199.08 
L 579.697652 199.08 
L 579.697652 139.520623 
L 574.962649 139.520623 
z
" clip-path="url(#p0e832eb2be)" style="fill: #98df8a"/>
   </g>
   <g id="patch_79">
    <path d="M 622.312684 199.08 
L 627.047688 199.08 
L 627.047688 188.497563 
L 622.312684 188.497563 
z
" clip-path="url(#p0e832eb2be)" style="fill: #98df8a"/>
   </g>
   <g id="patch_80">
    <path d="M 669.66272 199.08 
L 674.397724 199.08 
L 674.397724 199.08 
L 669.66272 199.08 
z
" clip-path="url(#p0e832eb2be)" style="fill: #98df8a"/>
   </g>
   <g id="patch_81">
    <path d="M 106.197294 199.08 
L 110.932298 199.08 
L 110.932298 121.115844 
L 106.197294 121.115844 
z
" clip-path="url(#p0e832eb2be)" style="fill: #d62728"/>
   </g>
   <g id="patch_82">
    <path d="M 153.54733 199.08 
L 158.282334 199.08 
L 158.282334 90.13133 
L 153.54733 90.13133 
z
" clip-path="url(#p0e832eb2be)" style="fill: #d62728"/>
   </g>
   <g id="patch_83">
    <path d="M 200.897366 199.08 
L 205.632369 199.08 
L 205.632369 159.427391 
L 200.897366 159.427391 
z
" clip-path="url(#p0e832eb2be)" style="fill: #d62728"/>
   </g>
   <g id="patch_84">
    <path d="M 248.247402 199.08 
L 252.982405 199.08 
L 252.982405 146.550747 
L 248.247402 146.550747 
z
" clip-path="url(#p0e832eb2be)" style="fill: #d62728"/>
   </g>
   <g id="patch_85">
    <path d="M 295.597437 199.08 
L 300.332441 199.08 
L 300.332441 151.136838 
L 295.597437 151.136838 
z
" clip-path="url(#p0e832eb2be)" style="fill: #d62728"/>
   </g>
   <g id="patch_86">
    <path d="M 342.947473 199.08 
L 347.682477 199.08 
L 347.682477 153.717139 
L 342.947473 153.717139 
z
" clip-path="url(#p0e832eb2be)" style="fill: #d62728"/>
   </g>
   <g id="patch_87">
    <path d="M 390.297509 199.08 
L 395.032513 199.08 
L 395.032513 114.411611 
L 390.297509 114.411611 
z
" clip-path="url(#p0e832eb2be)" style="fill: #d62728"/>
   </g>
   <g id="patch_88">
    <path d="M 437.647545 199.08 
L 442.382548 199.08 
L 442.382548 130.746337 
L 437.647545 130.746337 
z
" clip-path="url(#p0e832eb2be)" style="fill: #d62728"/>
   </g>
   <g id="patch_89">
    <path d="M 484.997581 199.08 
L 489.732584 199.08 
L 489.732584 101.336253 
L 484.997581 101.336253 
z
" clip-path="url(#p0e832eb2be)" style="fill: #d62728"/>
   </g>
   <g id="patch_90">
    <path d="M 532.347616 199.08 
L 537.08262 199.08 
L 537.08262 141.441853 
L 532.347616 141.441853 
z
" clip-path="url(#p0e832eb2be)" style="fill: #d62728"/>
   </g>
   <g id="patch_91">
    <path d="M 579.697652 199.08 
L 584.432656 199.08 
L 584.432656 154.427884 
L 579.697652 154.427884 
z
" clip-path="url(#p0e832eb2be)" style="fill: #d62728"/>
   </g>
   <g id="patch_92">
    <path d="M 627.047688 199.08 
L 631.782691 199.08 
L 631.782691 158.896335 
L 627.047688 158.896335 
z
" clip-path="url(#p0e832eb2be)" style="fill: #d62728"/>
   </g>
   <g id="patch_93">
    <path d="M 674.397724 199.08 
L 679.132727 199.08 
L 679.132727 199.08 
L 674.397724 199.08 
z
" clip-path="url(#p0e832eb2be)" style="fill: #d62728"/>
   </g>
   <g id="matplotlib.axis_1">
    <g id="xtick_1">
     <g id="line2d_1">
      <defs>
       <path id="m0aa3b3d5f9" d="M 0 0 
L 0 -3.5 
" style="stroke: #000000; stroke-width: 0.8"/>
      </defs>
      <g>
       <use xlink:href="#m0aa3b3d5f9" x="94.359785" y="14.3" style="stroke: #000000; stroke-width: 0.8"/>
      </g>
     </g>
    </g>
    <g id="xtick_2">
     <g id="line2d_2">
      <g>
       <use xlink:href="#m0aa3b3d5f9" x="141.709821" y="14.3" style="stroke: #000000; stroke-width: 0.8"/>
      </g>
     </g>
    </g>
    <g id="xtick_3">
     <g id="line2d_3">
      <g>
       <use xlink:href="#m0aa3b3d5f9" x="189.059857" y="14.3" style="stroke: #000000; stroke-width: 0.8"/>
      </g>
     </g>
    </g>
    <g id="xtick_4">
     <g id="line2d_4">
      <g>
       <use xlink:href="#m0aa3b3d5f9" x="236.409893" y="14.3" style="stroke: #000000; stroke-width: 0.8"/>
      </g>
     </g>
    </g>
    <g id="xtick_5">
     <g id="line2d_5">
      <g>
       <use xlink:href="#m0aa3b3d5f9" x="283.759928" y="14.3" style="stroke: #000000; stroke-width: 0.8"/>
      </g>
     </g>
    </g>
    <g id="xtick_6">
     <g id="line2d_6">
      <g>
       <use xlink:href="#m0aa3b3d5f9" x="331.109964" y="14.3" style="stroke: #000000; stroke-width: 0.8"/>
      </g>
     </g>
    </g>
    <g id="xtick_7">
     <g id="line2d_7">
      <g>
       <use xlink:href="#m0aa3b3d5f9" x="378.46" y="14.3" style="stroke: #000000; stroke-width: 0.8"/>
      </g>
     </g>
    </g>
    <g id="xtick_8">
     <g id="line2d_8">
      <g>
       <use xlink:href="#m0aa3b3d5f9" x="425.810036" y="14.3" style="stroke: #000000; stroke-width: 0.8"/>
      </g>
     </g>
    </g>
    <g id="xtick_9">
     <g id="line2d_9">
      <g>
       <use xlink:href="#m0aa3b3d5f9" x="473.160072" y="14.3" style="stroke: #000000; stroke-width: 0.8"/>
      </g>
     </g>
    </g>
    <g id="xtick_10">
     <g id="line2d_10">
      <g>
       <use xlink:href="#m0aa3b3d5f9" x="520.510107" y="14.3" style="stroke: #000000; stroke-width: 0.8"/>
      </g>
     </g>
    </g>
    <g id="xtick_11">
     <g id="line2d_11">
      <g>
       <use xlink:href="#m0aa3b3d5f9" x="567.860143" y="14.3" style="stroke: #000000; stroke-width: 0.8"/>
      </g>
     </g>
    </g>
    <g id="xtick_12">
     <g id="line2d_12">
      <g>
       <use xlink:href="#m0aa3b3d5f9" x="615.210179" y="14.3" style="stroke: #000000; stroke-width: 0.8"/>
      </g>
     </g>
    </g>
    <g id="xtick_13">
     <g id="line2d_13">
      <g>
       <use xlink:href="#m0aa3b3d5f9" x="662.560215" y="14.3" style="stroke: #000000; stroke-width: 0.8"/>
      </g>
     </g>
    </g>
   </g>
   <g id="matplotlib.axis_2">
    <g id="ytick_1">
     <g id="line2d_14">
      <defs>
       <path id="mb2677b7748" d="M 0 0 
L -3.5 0 
" style="stroke: #000000; stroke-width: 0.8"/>
      </defs>
      <g>
       <use xlink:href="#mb2677b7748" x="47.72" y="199.08" style="stroke: #000000; stroke-width: 0.8"/>
      </g>
     </g>
     <g id="text_1">
      <!-- 0.0 -->
      <g transform="translate(24.816875 202.879219) scale(0.1 -0.1)">
       <defs>
        <path id="DejaVuSans-30" d="M 2034 4250 
Q 1547 4250 1301 3770 
Q 1056 3291 1056 2328 
Q 1056 1369 1301 889 
Q 1547 409 2034 409 
Q 2525 409 2770 889 
Q 3016 1369 3016 2328 
Q 3016 3291 2770 3770 
Q 2525 4250 2034 4250 
z
M 2034 4750 
Q 2819 4750 3233 4129 
Q 3647 3509 3647 2328 
Q 3647 1150 3233 529 
Q 2819 -91 2034 -91 
Q 1250 -91 836 529 
Q 422 1150 422 2328 
Q 422 3509 836 4129 
Q 1250 4750 2034 4750 
z
" transform="scale(0.015625)"/>
        <path id="DejaVuSans-2e" d="M 684 794 
L 1344 794 
L 1344 0 
L 684 0 
L 684 794 
z
" transform="scale(0.015625)"/>
       </defs>
       <use xlink:href="#DejaVuSans-30"/>
       <use xlink:href="#DejaVuSans-2e" x="63.623047"/>
       <use xlink:href="#DejaVuSans-30" x="95.410156"/>
      </g>
     </g>
    </g>
    <g id="ytick_2">
     <g id="line2d_15">
      <g>
       <use xlink:href="#mb2677b7748" x="47.72" y="174.442667" style="stroke: #000000; stroke-width: 0.8"/>
      </g>
     </g>
     <g id="text_2">
      <!-- 0.1 -->
      <g transform="translate(24.816875 178.241885) scale(0.1 -0.1)">
       <defs>
        <path id="DejaVuSans-31" d="M 794 531 
L 1825 531 
L 1825 4091 
L 703 3866 
L 703 4441 
L 1819 4666 
L 2450 4666 
L 2450 531 
L 3481 531 
L 3481 0 
L 794 0 
L 794 531 
z
" transform="scale(0.015625)"/>
       </defs>
       <use xlink:href="#DejaVuSans-30"/>
       <use xlink:href="#DejaVuSans-2e" x="63.623047"/>
       <use xlink:href="#DejaVuSans-31" x="95.410156"/>
      </g>
     </g>
    </g>
    <g id="ytick_3">
     <g id="line2d_16">
      <g>
       <use xlink:href="#mb2677b7748" x="47.72" y="149.805333" style="stroke: #000000; stroke-width: 0.8"/>
      </g>
     </g>
     <g id="text_3">
      <!-- 0.2 -->
      <g transform="translate(24.816875 153.604552) scale(0.1 -0.1)">
       <defs>
        <path id="DejaVuSans-32" d="M 1228 531 
L 3431 531 
L 3431 0 
L 469 0 
L 469 531 
Q 828 903 1448 1529 
Q 2069 2156 2228 2338 
Q 2531 2678 2651 2914 
Q 2772 3150 2772 3378 
Q 2772 3750 2511 3984 
Q 2250 4219 1831 4219 
Q 1534 4219 1204 4116 
Q 875 4013 500 3803 
L 500 4441 
Q 881 4594 1212 4672 
Q 1544 4750 1819 4750 
Q 2544 4750 2975 4387 
Q 3406 4025 3406 3419 
Q 3406 3131 3298 2873 
Q 3191 2616 2906 2266 
Q 2828 2175 2409 1742 
Q 1991 1309 1228 531 
z
" transform="scale(0.015625)"/>
       </defs>
       <use xlink:href="#DejaVuSans-30"/>
       <use xlink:href="#DejaVuSans-2e" x="63.623047"/>
       <use xlink:href="#DejaVuSans-32" x="95.410156"/>
      </g>
     </g>
    </g>
    <g id="ytick_4">
     <g id="line2d_17">
      <g>
       <use xlink:href="#mb2677b7748" x="47.72" y="125.168" style="stroke: #000000; stroke-width: 0.8"/>
      </g>
     </g>
     <g id="text_4">
      <!-- 0.3 -->
      <g transform="translate(24.816875 128.967219) scale(0.1 -0.1)">
       <defs>
        <path id="DejaVuSans-33" d="M 2597 2516 
Q 3050 2419 3304 2112 
Q 3559 1806 3559 1356 
Q 3559 666 3084 287 
Q 2609 -91 1734 -91 
Q 1441 -91 1130 -33 
Q 819 25 488 141 
L 488 750 
Q 750 597 1062 519 
Q 1375 441 1716 441 
Q 2309 441 2620 675 
Q 2931 909 2931 1356 
Q 2931 1769 2642 2001 
Q 2353 2234 1838 2234 
L 1294 2234 
L 1294 2753 
L 1863 2753 
Q 2328 2753 2575 2939 
Q 2822 3125 2822 3475 
Q 2822 3834 2567 4026 
Q 2313 4219 1838 4219 
Q 1578 4219 1281 4162 
Q 984 4106 628 3988 
L 628 4550 
Q 988 4650 1302 4700 
Q 1616 4750 1894 4750 
Q 2613 4750 3031 4423 
Q 3450 4097 3450 3541 
Q 3450 3153 3228 2886 
Q 3006 2619 2597 2516 
z
" transform="scale(0.015625)"/>
       </defs>
       <use xlink:href="#DejaVuSans-30"/>
       <use xlink:href="#DejaVuSans-2e" x="63.623047"/>
       <use xlink:href="#DejaVuSans-33" x="95.410156"/>
      </g>
     </g>
    </g>
    <g id="ytick_5">
     <g id="line2d_18">
      <g>
       <use xlink:href="#mb2677b7748" x="47.72" y="100.530667" style="stroke: #000000; stroke-width: 0.8"/>
      </g>
     </g>
     <g id="text_5">
      <!-- 0.4 -->
      <g transform="translate(24.816875 104.329885) scale(0.1 -0.1)">
       <defs>
        <path id="DejaVuSans-34" d="M 2419 4116 
L 825 1625 
L 2419 1625 
L 2419 4116 
z
M 2253 4666 
L 3047 4666 
L 3047 1625 
L 3713 1625 
L 3713 1100 
L 3047 1100 
L 3047 0 
L 2419 0 
L 2419 1100 
L 313 1100 
L 313 1709 
L 2253 4666 
z
" transform="scale(0.015625)"/>
       </defs>
       <use xlink:href="#DejaVuSans-30"/>
       <use xlink:href="#DejaVuSans-2e" x="63.623047"/>
       <use xlink:href="#DejaVuSans-34" x="95.410156"/>
      </g>
     </g>
    </g>
    <g id="ytick_6">
     <g id="line2d_19">
      <g>
       <use xlink:href="#mb2677b7748" x="47.72" y="75.893333" style="stroke: #000000; stroke-width: 0.8"/>
      </g>
     </g>
     <g id="text_6">
      <!-- 0.5 -->
      <g transform="translate(24.816875 79.692552) scale(0.1 -0.1)">
       <defs>
        <path id="DejaVuSans-35" d="M 691 4666 
L 3169 4666 
L 3169 4134 
L 1269 4134 
L 1269 2991 
Q 1406 3038 1543 3061 
Q 1681 3084 1819 3084 
Q 2600 3084 3056 2656 
Q 3513 2228 3513 1497 
Q 3513 744 3044 326 
Q 2575 -91 1722 -91 
Q 1428 -91 1123 -41 
Q 819 9 494 109 
L 494 744 
Q 775 591 1075 516 
Q 1375 441 1709 441 
Q 2250 441 2565 725 
Q 2881 1009 2881 1497 
Q 2881 1984 2565 2268 
Q 2250 2553 1709 2553 
Q 1456 2553 1204 2497 
Q 953 2441 691 2322 
L 691 4666 
z
" transform="scale(0.015625)"/>
       </defs>
       <use xlink:href="#DejaVuSans-30"/>
       <use xlink:href="#DejaVuSans-2e" x="63.623047"/>
       <use xlink:href="#DejaVuSans-35" x="95.410156"/>
      </g>
     </g>
    </g>
    <g id="ytick_7">
     <g id="line2d_20">
      <g>
       <use xlink:href="#mb2677b7748" x="47.72" y="51.256" style="stroke: #000000; stroke-width: 0.8"/>
      </g>
     </g>
     <g id="text_7">
      <!-- 0.6 -->
      <g transform="translate(24.816875 55.055219) scale(0.1 -0.1)">
       <defs>
        <path id="DejaVuSans-36" d="M 2113 2584 
Q 1688 2584 1439 2293 
Q 1191 2003 1191 1497 
Q 1191 994 1439 701 
Q 1688 409 2113 409 
Q 2538 409 2786 701 
Q 3034 994 3034 1497 
Q 3034 2003 2786 2293 
Q 2538 2584 2113 2584 
z
M 3366 4563 
L 3366 3988 
Q 3128 4100 2886 4159 
Q 2644 4219 2406 4219 
Q 1781 4219 1451 3797 
Q 1122 3375 1075 2522 
Q 1259 2794 1537 2939 
Q 1816 3084 2150 3084 
Q 2853 3084 3261 2657 
Q 3669 2231 3669 1497 
Q 3669 778 3244 343 
Q 2819 -91 2113 -91 
Q 1303 -91 875 529 
Q 447 1150 447 2328 
Q 447 3434 972 4092 
Q 1497 4750 2381 4750 
Q 2619 4750 2861 4703 
Q 3103 4656 3366 4563 
z
" transform="scale(0.015625)"/>
       </defs>
       <use xlink:href="#DejaVuSans-30"/>
       <use xlink:href="#DejaVuSans-2e" x="63.623047"/>
       <use xlink:href="#DejaVuSans-36" x="95.410156"/>
      </g>
     </g>
    </g>
    <g id="ytick_8">
     <g id="line2d_21">
      <g>
       <use xlink:href="#mb2677b7748" x="47.72" y="26.618667" style="stroke: #000000; stroke-width: 0.8"/>
      </g>
     </g>
     <g id="text_8">
      <!-- 0.7 -->
      <g transform="translate(24.816875 30.417885) scale(0.1 -0.1)">
       <defs>
        <path id="DejaVuSans-37" d="M 525 4666 
L 3525 4666 
L 3525 4397 
L 1831 0 
L 1172 0 
L 2766 4134 
L 525 4134 
L 525 4666 
z
" transform="scale(0.015625)"/>
       </defs>
       <use xlink:href="#DejaVuSans-30"/>
       <use xlink:href="#DejaVuSans-2e" x="63.623047"/>
       <use xlink:href="#DejaVuSans-37" x="95.410156"/>
      </g>
     </g>
    </g>
    <g id="text_9">
     <!-- Spearman -->
     <g transform="translate(18.737188 132.250156) rotate(-90) scale(0.1 -0.1)">
      <defs>
       <path id="DejaVuSans-53" d="M 3425 4513 
L 3425 3897 
Q 3066 4069 2747 4153 
Q 2428 4238 2131 4238 
Q 1616 4238 1336 4038 
Q 1056 3838 1056 3469 
Q 1056 3159 1242 3001 
Q 1428 2844 1947 2747 
L 2328 2669 
Q 3034 2534 3370 2195 
Q 3706 1856 3706 1288 
Q 3706 609 3251 259 
Q 2797 -91 1919 -91 
Q 1588 -91 1214 -16 
Q 841 59 441 206 
L 441 856 
Q 825 641 1194 531 
Q 1563 422 1919 422 
Q 2459 422 2753 634 
Q 3047 847 3047 1241 
Q 3047 1584 2836 1778 
Q 2625 1972 2144 2069 
L 1759 2144 
Q 1053 2284 737 2584 
Q 422 2884 422 3419 
Q 422 4038 858 4394 
Q 1294 4750 2059 4750 
Q 2388 4750 2728 4690 
Q 3069 4631 3425 4513 
z
" transform="scale(0.015625)"/>
       <path id="DejaVuSans-70" d="M 1159 525 
L 1159 -1331 
L 581 -1331 
L 581 3500 
L 1159 3500 
L 1159 2969 
Q 1341 3281 1617 3432 
Q 1894 3584 2278 3584 
Q 2916 3584 3314 3078 
Q 3713 2572 3713 1747 
Q 3713 922 3314 415 
Q 2916 -91 2278 -91 
Q 1894 -91 1617 61 
Q 1341 213 1159 525 
z
M 3116 1747 
Q 3116 2381 2855 2742 
Q 2594 3103 2138 3103 
Q 1681 3103 1420 2742 
Q 1159 2381 1159 1747 
Q 1159 1113 1420 752 
Q 1681 391 2138 391 
Q 2594 391 2855 752 
Q 3116 1113 3116 1747 
z
" transform="scale(0.015625)"/>
       <path id="DejaVuSans-65" d="M 3597 1894 
L 3597 1613 
L 953 1613 
Q 991 1019 1311 708 
Q 1631 397 2203 397 
Q 2534 397 2845 478 
Q 3156 559 3463 722 
L 3463 178 
Q 3153 47 2828 -22 
Q 2503 -91 2169 -91 
Q 1331 -91 842 396 
Q 353 884 353 1716 
Q 353 2575 817 3079 
Q 1281 3584 2069 3584 
Q 2775 3584 3186 3129 
Q 3597 2675 3597 1894 
z
M 3022 2063 
Q 3016 2534 2758 2815 
Q 2500 3097 2075 3097 
Q 1594 3097 1305 2825 
Q 1016 2553 972 2059 
L 3022 2063 
z
" transform="scale(0.015625)"/>
       <path id="DejaVuSans-61" d="M 2194 1759 
Q 1497 1759 1228 1600 
Q 959 1441 959 1056 
Q 959 750 1161 570 
Q 1363 391 1709 391 
Q 2188 391 2477 730 
Q 2766 1069 2766 1631 
L 2766 1759 
L 2194 1759 
z
M 3341 1997 
L 3341 0 
L 2766 0 
L 2766 531 
Q 2569 213 2275 61 
Q 1981 -91 1556 -91 
Q 1019 -91 701 211 
Q 384 513 384 1019 
Q 384 1609 779 1909 
Q 1175 2209 1959 2209 
L 2766 2209 
L 2766 2266 
Q 2766 2663 2505 2880 
Q 2244 3097 1772 3097 
Q 1472 3097 1187 3025 
Q 903 2953 641 2809 
L 641 3341 
Q 956 3463 1253 3523 
Q 1550 3584 1831 3584 
Q 2591 3584 2966 3190 
Q 3341 2797 3341 1997 
z
" transform="scale(0.015625)"/>
       <path id="DejaVuSans-72" d="M 2631 2963 
Q 2534 3019 2420 3045 
Q 2306 3072 2169 3072 
Q 1681 3072 1420 2755 
Q 1159 2438 1159 1844 
L 1159 0 
L 581 0 
L 581 3500 
L 1159 3500 
L 1159 2956 
Q 1341 3275 1631 3429 
Q 1922 3584 2338 3584 
Q 2397 3584 2469 3576 
Q 2541 3569 2628 3553 
L 2631 2963 
z
" transform="scale(0.015625)"/>
       <path id="DejaVuSans-6d" d="M 3328 2828 
Q 3544 3216 3844 3400 
Q 4144 3584 4550 3584 
Q 5097 3584 5394 3201 
Q 5691 2819 5691 2113 
L 5691 0 
L 5113 0 
L 5113 2094 
Q 5113 2597 4934 2840 
Q 4756 3084 4391 3084 
Q 3944 3084 3684 2787 
Q 3425 2491 3425 1978 
L 3425 0 
L 2847 0 
L 2847 2094 
Q 2847 2600 2669 2842 
Q 2491 3084 2119 3084 
Q 1678 3084 1418 2786 
Q 1159 2488 1159 1978 
L 1159 0 
L 581 0 
L 581 3500 
L 1159 3500 
L 1159 2956 
Q 1356 3278 1631 3431 
Q 1906 3584 2284 3584 
Q 2666 3584 2933 3390 
Q 3200 3197 3328 2828 
z
" transform="scale(0.015625)"/>
       <path id="DejaVuSans-6e" d="M 3513 2113 
L 3513 0 
L 2938 0 
L 2938 2094 
Q 2938 2591 2744 2837 
Q 2550 3084 2163 3084 
Q 1697 3084 1428 2787 
Q 1159 2491 1159 1978 
L 1159 0 
L 581 0 
L 581 3500 
L 1159 3500 
L 1159 2956 
Q 1366 3272 1645 3428 
Q 1925 3584 2291 3584 
Q 2894 3584 3203 3211 
Q 3513 2838 3513 2113 
z
" transform="scale(0.015625)"/>
      </defs>
      <use xlink:href="#DejaVuSans-53"/>
      <use xlink:href="#DejaVuSans-70" x="63.476562"/>
      <use xlink:href="#DejaVuSans-65" x="126.953125"/>
      <use xlink:href="#DejaVuSans-61" x="188.476562"/>
      <use xlink:href="#DejaVuSans-72" x="249.755859"/>
      <use xlink:href="#DejaVuSans-6d" x="289.119141"/>
      <use xlink:href="#DejaVuSans-61" x="386.53125"/>
      <use xlink:href="#DejaVuSans-6e" x="447.810547"/>
     </g>
    </g>
   </g>
   <g id="LineCollection_1">
    <path d="M 80.154775 58.741162 
L 80.154775 44.569088 
" clip-path="url(#p0e832eb2be)" style="fill: none; stroke: #000000; stroke-width: 0.5"/>
    <path d="M 127.50481 208.158809 
L 127.50481 134.301108 
" clip-path="url(#p0e832eb2be)" style="fill: none; stroke: #000000; stroke-width: 0.5"/>
    <path d="M 174.854846 121.666318 
L 174.854846 110.822398 
" clip-path="url(#p0e832eb2be)" style="fill: none; stroke: #000000; stroke-width: 0.5"/>
    <path d="M 222.204882 86.553939 
L 222.204882 77.807623 
" clip-path="url(#p0e832eb2be)" style="fill: none; stroke: #000000; stroke-width: 0.5"/>
    <path d="M 269.554918 97.624708 
L 269.554918 81.93316 
" clip-path="url(#p0e832eb2be)" style="fill: none; stroke: #000000; stroke-width: 0.5"/>
    <path d="M 316.904953 75.113342 
L 316.904953 64.049155 
" clip-path="url(#p0e832eb2be)" style="fill: none; stroke: #000000; stroke-width: 0.5"/>
    <path d="M 364.254989 53.24779 
L 364.254989 43.144296 
" clip-path="url(#p0e832eb2be)" style="fill: none; stroke: #000000; stroke-width: 0.5"/>
    <path d="M 411.605025 86.325064 
L 411.605025 62.17991 
" clip-path="url(#p0e832eb2be)" style="fill: none; stroke: #000000; stroke-width: 0.5"/>
    <path d="M 458.955061 61.41579 
L 458.955061 49.827681 
" clip-path="url(#p0e832eb2be)" style="fill: none; stroke: #000000; stroke-width: 0.5"/>
    <path d="M 506.305097 107.213804 
L 506.305097 88.890498 
" clip-path="url(#p0e832eb2be)" style="fill: none; stroke: #000000; stroke-width: 0.5"/>
    <path d="M 553.655132 114.616253 
L 553.655132 108.234338 
" clip-path="url(#p0e832eb2be)" style="fill: none; stroke: #000000; stroke-width: 0.5"/>
    <path d="M 601.005168 96.662989 
L 601.005168 70.31013 
" clip-path="url(#p0e832eb2be)" style="fill: none; stroke: #000000; stroke-width: 0.5"/>
    <path d="M 648.355204 133.988351 
L 648.355204 104.38376 
" clip-path="url(#p0e832eb2be)" style="fill: none; stroke: #000000; stroke-width: 0.5"/>
   </g>
   <g id="line2d_22">
    <defs>
     <path id="m8fee09465d" d="M 1 0 
L -1 -0 
" style="stroke: #000000"/>
    </defs>
    <g clip-path="url(#p0e832eb2be)">
     <use xlink:href="#m8fee09465d" x="80.154775" y="58.741162" style="stroke: #000000"/>
     <use xlink:href="#m8fee09465d" x="127.50481" y="208.158809" style="stroke: #000000"/>
     <use xlink:href="#m8fee09465d" x="174.854846" y="121.666318" style="stroke: #000000"/>
     <use xlink:href="#m8fee09465d" x="222.204882" y="86.553939" style="stroke: #000000"/>
     <use xlink:href="#m8fee09465d" x="269.554918" y="97.624708" style="stroke: #000000"/>
     <use xlink:href="#m8fee09465d" x="316.904953" y="75.113342" style="stroke: #000000"/>
     <use xlink:href="#m8fee09465d" x="364.254989" y="53.24779" style="stroke: #000000"/>
     <use xlink:href="#m8fee09465d" x="411.605025" y="86.325064" style="stroke: #000000"/>
     <use xlink:href="#m8fee09465d" x="458.955061" y="61.41579" style="stroke: #000000"/>
     <use xlink:href="#m8fee09465d" x="506.305097" y="107.213804" style="stroke: #000000"/>
     <use xlink:href="#m8fee09465d" x="553.655132" y="114.616253" style="stroke: #000000"/>
     <use xlink:href="#m8fee09465d" x="601.005168" y="96.662989" style="stroke: #000000"/>
     <use xlink:href="#m8fee09465d" x="648.355204" y="133.988351" style="stroke: #000000"/>
    </g>
   </g>
   <g id="line2d_23">
    <g clip-path="url(#p0e832eb2be)">
     <use xlink:href="#m8fee09465d" x="80.154775" y="44.569088" style="stroke: #000000"/>
     <use xlink:href="#m8fee09465d" x="127.50481" y="134.301108" style="stroke: #000000"/>
     <use xlink:href="#m8fee09465d" x="174.854846" y="110.822398" style="stroke: #000000"/>
     <use xlink:href="#m8fee09465d" x="222.204882" y="77.807623" style="stroke: #000000"/>
     <use xlink:href="#m8fee09465d" x="269.554918" y="81.93316" style="stroke: #000000"/>
     <use xlink:href="#m8fee09465d" x="316.904953" y="64.049155" style="stroke: #000000"/>
     <use xlink:href="#m8fee09465d" x="364.254989" y="43.144296" style="stroke: #000000"/>
     <use xlink:href="#m8fee09465d" x="411.605025" y="62.17991" style="stroke: #000000"/>
     <use xlink:href="#m8fee09465d" x="458.955061" y="49.827681" style="stroke: #000000"/>
     <use xlink:href="#m8fee09465d" x="506.305097" y="88.890498" style="stroke: #000000"/>
     <use xlink:href="#m8fee09465d" x="553.655132" y="108.234338" style="stroke: #000000"/>
     <use xlink:href="#m8fee09465d" x="601.005168" y="70.31013" style="stroke: #000000"/>
     <use xlink:href="#m8fee09465d" x="648.355204" y="104.38376" style="stroke: #000000"/>
    </g>
   </g>
   <g id="LineCollection_2">
    <path d="M 84.889778 54.558145 
L 84.889778 38.167906 
" clip-path="url(#p0e832eb2be)" style="fill: none; stroke: #000000; stroke-width: 0.5"/>
    <path d="M 132.239814 91.816233 
L 132.239814 75.836876 
" clip-path="url(#p0e832eb2be)" style="fill: none; stroke: #000000; stroke-width: 0.5"/>
    <path d="M 179.58985 122.310046 
L 179.58985 109.40013 
" clip-path="url(#p0e832eb2be)" style="fill: none; stroke: #000000; stroke-width: 0.5"/>
    <path d="M 226.939885 84.376022 
L 226.939885 77.561226 
" clip-path="url(#p0e832eb2be)" style="fill: none; stroke: #000000; stroke-width: 0.5"/>
    <path d="M 274.289921 100.314348 
L 274.289921 89.847429 
" clip-path="url(#p0e832eb2be)" style="fill: none; stroke: #000000; stroke-width: 0.5"/>
    <path d="M 321.639957 85.959591 
L 321.639957 75.534185 
" clip-path="url(#p0e832eb2be)" style="fill: none; stroke: #000000; stroke-width: 0.5"/>
    <path d="M 368.989993 51.687437 
L 368.989993 37.224755 
" clip-path="url(#p0e832eb2be)" style="fill: none; stroke: #000000; stroke-width: 0.5"/>
    <path d="M 416.340029 56.50226 
L 416.340029 34.469613 
" clip-path="url(#p0e832eb2be)" style="fill: none; stroke: #000000; stroke-width: 0.5"/>
    <path d="M 463.690064 61.063814 
L 463.690064 47.499115 
" clip-path="url(#p0e832eb2be)" style="fill: none; stroke: #000000; stroke-width: 0.5"/>
    <path d="M 511.0401 99.612899 
L 511.0401 87.730367 
" clip-path="url(#p0e832eb2be)" style="fill: none; stroke: #000000; stroke-width: 0.5"/>
    <path d="M 558.390136 116.738665 
L 558.390136 111.236491 
" clip-path="url(#p0e832eb2be)" style="fill: none; stroke: #000000; stroke-width: 0.5"/>
    <path d="M 605.740172 151.655298 
L 605.740172 129.763162 
" clip-path="url(#p0e832eb2be)" style="fill: none; stroke: #000000; stroke-width: 0.5"/>
    <path d="M 653.090208 164.44639 
L 653.090208 136.327159 
" clip-path="url(#p0e832eb2be)" style="fill: none; stroke: #000000; stroke-width: 0.5"/>
   </g>
   <g id="line2d_24">
    <g clip-path="url(#p0e832eb2be)">
     <use xlink:href="#m8fee09465d" x="84.889778" y="54.558145" style="stroke: #000000"/>
     <use xlink:href="#m8fee09465d" x="132.239814" y="91.816233" style="stroke: #000000"/>
     <use xlink:href="#m8fee09465d" x="179.58985" y="122.310046" style="stroke: #000000"/>
     <use xlink:href="#m8fee09465d" x="226.939885" y="84.376022" style="stroke: #000000"/>
     <use xlink:href="#m8fee09465d" x="274.289921" y="100.314348" style="stroke: #000000"/>
     <use xlink:href="#m8fee09465d" x="321.639957" y="85.959591" style="stroke: #000000"/>
     <use xlink:href="#m8fee09465d" x="368.989993" y="51.687437" style="stroke: #000000"/>
     <use xlink:href="#m8fee09465d" x="416.340029" y="56.50226" style="stroke: #000000"/>
     <use xlink:href="#m8fee09465d" x="463.690064" y="61.063814" style="stroke: #000000"/>
     <use xlink:href="#m8fee09465d" x="511.0401" y="99.612899" style="stroke: #000000"/>
     <use xlink:href="#m8fee09465d" x="558.390136" y="116.738665" style="stroke: #000000"/>
     <use xlink:href="#m8fee09465d" x="605.740172" y="151.655298" style="stroke: #000000"/>
     <use xlink:href="#m8fee09465d" x="653.090208" y="164.44639" style="stroke: #000000"/>
    </g>
   </g>
   <g id="line2d_25">
    <g clip-path="url(#p0e832eb2be)">
     <use xlink:href="#m8fee09465d" x="84.889778" y="38.167906" style="stroke: #000000"/>
     <use xlink:href="#m8fee09465d" x="132.239814" y="75.836876" style="stroke: #000000"/>
     <use xlink:href="#m8fee09465d" x="179.58985" y="109.40013" style="stroke: #000000"/>
     <use xlink:href="#m8fee09465d" x="226.939885" y="77.561226" style="stroke: #000000"/>
     <use xlink:href="#m8fee09465d" x="274.289921" y="89.847429" style="stroke: #000000"/>
     <use xlink:href="#m8fee09465d" x="321.639957" y="75.534185" style="stroke: #000000"/>
     <use xlink:href="#m8fee09465d" x="368.989993" y="37.224755" style="stroke: #000000"/>
     <use xlink:href="#m8fee09465d" x="416.340029" y="34.469613" style="stroke: #000000"/>
     <use xlink:href="#m8fee09465d" x="463.690064" y="47.499115" style="stroke: #000000"/>
     <use xlink:href="#m8fee09465d" x="511.0401" y="87.730367" style="stroke: #000000"/>
     <use xlink:href="#m8fee09465d" x="558.390136" y="111.236491" style="stroke: #000000"/>
     <use xlink:href="#m8fee09465d" x="605.740172" y="129.763162" style="stroke: #000000"/>
     <use xlink:href="#m8fee09465d" x="653.090208" y="136.327159" style="stroke: #000000"/>
    </g>
   </g>
   <g id="LineCollection_3">
    <path d="M 89.624782 54.546212 
L 89.624782 39.391996 
" clip-path="url(#p0e832eb2be)" style="fill: none; stroke: #000000; stroke-width: 0.5"/>
    <path d="M 136.974817 100.709433 
L 136.974817 83.135332 
" clip-path="url(#p0e832eb2be)" style="fill: none; stroke: #000000; stroke-width: 0.5"/>
    <path d="M 184.324853 127.885557 
L 184.324853 113.206516 
" clip-path="url(#p0e832eb2be)" style="fill: none; stroke: #000000; stroke-width: 0.5"/>
    <path d="M 231.674889 90.092776 
L 231.674889 74.879791 
" clip-path="url(#p0e832eb2be)" style="fill: none; stroke: #000000; stroke-width: 0.5"/>
    <path d="M 279.024925 98.91901 
L 279.024925 90.060175 
" clip-path="url(#p0e832eb2be)" style="fill: none; stroke: #000000; stroke-width: 0.5"/>
    <path d="M 326.374961 88.413606 
L 326.374961 77.840103 
" clip-path="url(#p0e832eb2be)" style="fill: none; stroke: #000000; stroke-width: 0.5"/>
    <path d="M 373.724996 50.299013 
L 373.724996 37.450297 
" clip-path="url(#p0e832eb2be)" style="fill: none; stroke: #000000; stroke-width: 0.5"/>
    <path d="M 421.075032 58.284207 
L 421.075032 30.706825 
" clip-path="url(#p0e832eb2be)" style="fill: none; stroke: #000000; stroke-width: 0.5"/>
    <path d="M 468.425068 60.645762 
L 468.425068 49.898009 
" clip-path="url(#p0e832eb2be)" style="fill: none; stroke: #000000; stroke-width: 0.5"/>
    <path d="M 515.775104 104.254308 
L 515.775104 95.998921 
" clip-path="url(#p0e832eb2be)" style="fill: none; stroke: #000000; stroke-width: 0.5"/>
    <path d="M 563.12514 124.134806 
L 563.12514 114.907441 
" clip-path="url(#p0e832eb2be)" style="fill: none; stroke: #000000; stroke-width: 0.5"/>
    <path d="M 610.475175 146.322247 
L 610.475175 122.90566 
" clip-path="url(#p0e832eb2be)" style="fill: none; stroke: #000000; stroke-width: 0.5"/>
    <path d="M 657.825211 165.621252 
L 657.825211 135.753448 
" clip-path="url(#p0e832eb2be)" style="fill: none; stroke: #000000; stroke-width: 0.5"/>
   </g>
   <g id="line2d_26">
    <g clip-path="url(#p0e832eb2be)">
     <use xlink:href="#m8fee09465d" x="89.624782" y="54.546212" style="stroke: #000000"/>
     <use xlink:href="#m8fee09465d" x="136.974817" y="100.709433" style="stroke: #000000"/>
     <use xlink:href="#m8fee09465d" x="184.324853" y="127.885557" style="stroke: #000000"/>
     <use xlink:href="#m8fee09465d" x="231.674889" y="90.092776" style="stroke: #000000"/>
     <use xlink:href="#m8fee09465d" x="279.024925" y="98.91901" style="stroke: #000000"/>
     <use xlink:href="#m8fee09465d" x="326.374961" y="88.413606" style="stroke: #000000"/>
     <use xlink:href="#m8fee09465d" x="373.724996" y="50.299013" style="stroke: #000000"/>
     <use xlink:href="#m8fee09465d" x="421.075032" y="58.284207" style="stroke: #000000"/>
     <use xlink:href="#m8fee09465d" x="468.425068" y="60.645762" style="stroke: #000000"/>
     <use xlink:href="#m8fee09465d" x="515.775104" y="104.254308" style="stroke: #000000"/>
     <use xlink:href="#m8fee09465d" x="563.12514" y="124.134806" style="stroke: #000000"/>
     <use xlink:href="#m8fee09465d" x="610.475175" y="146.322247" style="stroke: #000000"/>
     <use xlink:href="#m8fee09465d" x="657.825211" y="165.621252" style="stroke: #000000"/>
    </g>
   </g>
   <g id="line2d_27">
    <g clip-path="url(#p0e832eb2be)">
     <use xlink:href="#m8fee09465d" x="89.624782" y="39.391996" style="stroke: #000000"/>
     <use xlink:href="#m8fee09465d" x="136.974817" y="83.135332" style="stroke: #000000"/>
     <use xlink:href="#m8fee09465d" x="184.324853" y="113.206516" style="stroke: #000000"/>
     <use xlink:href="#m8fee09465d" x="231.674889" y="74.879791" style="stroke: #000000"/>
     <use xlink:href="#m8fee09465d" x="279.024925" y="90.060175" style="stroke: #000000"/>
     <use xlink:href="#m8fee09465d" x="326.374961" y="77.840103" style="stroke: #000000"/>
     <use xlink:href="#m8fee09465d" x="373.724996" y="37.450297" style="stroke: #000000"/>
     <use xlink:href="#m8fee09465d" x="421.075032" y="30.706825" style="stroke: #000000"/>
     <use xlink:href="#m8fee09465d" x="468.425068" y="49.898009" style="stroke: #000000"/>
     <use xlink:href="#m8fee09465d" x="515.775104" y="95.998921" style="stroke: #000000"/>
     <use xlink:href="#m8fee09465d" x="563.12514" y="114.907441" style="stroke: #000000"/>
     <use xlink:href="#m8fee09465d" x="610.475175" y="122.90566" style="stroke: #000000"/>
     <use xlink:href="#m8fee09465d" x="657.825211" y="135.753448" style="stroke: #000000"/>
    </g>
   </g>
   <g id="LineCollection_4">
    <path d="M 94.359785 142.0249 
L 94.359785 127.382635 
" clip-path="url(#p0e832eb2be)" style="fill: none; stroke: #000000; stroke-width: 0.5"/>
    <path d="M 141.709821 130.759509 
L 141.709821 118.963557 
" clip-path="url(#p0e832eb2be)" style="fill: none; stroke: #000000; stroke-width: 0.5"/>
    <path d="M 189.059857 160.752959 
L 189.059857 151.173342 
" clip-path="url(#p0e832eb2be)" style="fill: none; stroke: #000000; stroke-width: 0.5"/>
    <path d="M 236.409893 147.798244 
L 236.409893 129.942627 
" clip-path="url(#p0e832eb2be)" style="fill: none; stroke: #000000; stroke-width: 0.5"/>
    <path d="M 283.759928 159.241857 
L 283.759928 143.198346 
" clip-path="url(#p0e832eb2be)" style="fill: none; stroke: #000000; stroke-width: 0.5"/>
    <path d="M 331.109964 160.966013 
L 331.109964 148.457657 
" clip-path="url(#p0e832eb2be)" style="fill: none; stroke: #000000; stroke-width: 0.5"/>
    <path d="M 378.46 142.556522 
L 378.46 122.250249 
" clip-path="url(#p0e832eb2be)" style="fill: none; stroke: #000000; stroke-width: 0.5"/>
    <path d="M 425.810036 144.334252 
L 425.810036 119.364685 
" clip-path="url(#p0e832eb2be)" style="fill: none; stroke: #000000; stroke-width: 0.5"/>
    <path d="M 473.160072 122.196381 
L 473.160072 104.269725 
" clip-path="url(#p0e832eb2be)" style="fill: none; stroke: #000000; stroke-width: 0.5"/>
    <path d="M 520.510107 171.983139 
L 520.510107 149.459392 
" clip-path="url(#p0e832eb2be)" style="fill: none; stroke: #000000; stroke-width: 0.5"/>
    <path d="M 567.860143 159.886116 
L 567.860143 143.260127 
" clip-path="url(#p0e832eb2be)" style="fill: none; stroke: #000000; stroke-width: 0.5"/>
    <path d="M 615.210179 213.441214 
L 615.210179 156.734395 
" clip-path="url(#p0e832eb2be)" style="fill: none; stroke: #000000; stroke-width: 0.5"/>
    <path d="M 662.560215 199.08 
L 662.560215 199.08 
" clip-path="url(#p0e832eb2be)" style="fill: none; stroke: #000000; stroke-width: 0.5"/>
   </g>
   <g id="line2d_28">
    <g clip-path="url(#p0e832eb2be)">
     <use xlink:href="#m8fee09465d" x="94.359785" y="142.0249" style="stroke: #000000"/>
     <use xlink:href="#m8fee09465d" x="141.709821" y="130.759509" style="stroke: #000000"/>
     <use xlink:href="#m8fee09465d" x="189.059857" y="160.752959" style="stroke: #000000"/>
     <use xlink:href="#m8fee09465d" x="236.409893" y="147.798244" style="stroke: #000000"/>
     <use xlink:href="#m8fee09465d" x="283.759928" y="159.241857" style="stroke: #000000"/>
     <use xlink:href="#m8fee09465d" x="331.109964" y="160.966013" style="stroke: #000000"/>
     <use xlink:href="#m8fee09465d" x="378.46" y="142.556522" style="stroke: #000000"/>
     <use xlink:href="#m8fee09465d" x="425.810036" y="144.334252" style="stroke: #000000"/>
     <use xlink:href="#m8fee09465d" x="473.160072" y="122.196381" style="stroke: #000000"/>
     <use xlink:href="#m8fee09465d" x="520.510107" y="171.983139" style="stroke: #000000"/>
     <use xlink:href="#m8fee09465d" x="567.860143" y="159.886116" style="stroke: #000000"/>
     <use xlink:href="#m8fee09465d" x="615.210179" y="213.441214" style="stroke: #000000"/>
     <use xlink:href="#m8fee09465d" x="662.560215" y="199.08" style="stroke: #000000"/>
    </g>
   </g>
   <g id="line2d_29">
    <g clip-path="url(#p0e832eb2be)">
     <use xlink:href="#m8fee09465d" x="94.359785" y="127.382635" style="stroke: #000000"/>
     <use xlink:href="#m8fee09465d" x="141.709821" y="118.963557" style="stroke: #000000"/>
     <use xlink:href="#m8fee09465d" x="189.059857" y="151.173342" style="stroke: #000000"/>
     <use xlink:href="#m8fee09465d" x="236.409893" y="129.942627" style="stroke: #000000"/>
     <use xlink:href="#m8fee09465d" x="283.759928" y="143.198346" style="stroke: #000000"/>
     <use xlink:href="#m8fee09465d" x="331.109964" y="148.457657" style="stroke: #000000"/>
     <use xlink:href="#m8fee09465d" x="378.46" y="122.250249" style="stroke: #000000"/>
     <use xlink:href="#m8fee09465d" x="425.810036" y="119.364685" style="stroke: #000000"/>
     <use xlink:href="#m8fee09465d" x="473.160072" y="104.269725" style="stroke: #000000"/>
     <use xlink:href="#m8fee09465d" x="520.510107" y="149.459392" style="stroke: #000000"/>
     <use xlink:href="#m8fee09465d" x="567.860143" y="143.260127" style="stroke: #000000"/>
     <use xlink:href="#m8fee09465d" x="615.210179" y="156.734395" style="stroke: #000000"/>
     <use xlink:href="#m8fee09465d" x="662.560215" y="199.08" style="stroke: #000000"/>
    </g>
   </g>
   <g id="LineCollection_5">
    <path d="M 99.094789 69.902213 
L 99.094789 60.703953 
" clip-path="url(#p0e832eb2be)" style="fill: none; stroke: #000000; stroke-width: 0.5"/>
    <path d="M 146.444825 134.39778 
L 146.444825 122.36079 
" clip-path="url(#p0e832eb2be)" style="fill: none; stroke: #000000; stroke-width: 0.5"/>
    <path d="M 193.79486 151.826684 
L 193.79486 139.859823 
" clip-path="url(#p0e832eb2be)" style="fill: none; stroke: #000000; stroke-width: 0.5"/>
    <path d="M 241.144896 127.11768 
L 241.144896 114.098408 
" clip-path="url(#p0e832eb2be)" style="fill: none; stroke: #000000; stroke-width: 0.5"/>
    <path d="M 288.494932 129.025617 
L 288.494932 116.253455 
" clip-path="url(#p0e832eb2be)" style="fill: none; stroke: #000000; stroke-width: 0.5"/>
    <path d="M 335.844968 114.058101 
L 335.844968 108.303002 
" clip-path="url(#p0e832eb2be)" style="fill: none; stroke: #000000; stroke-width: 0.5"/>
    <path d="M 383.195004 64.404259 
L 383.195004 51.968481 
" clip-path="url(#p0e832eb2be)" style="fill: none; stroke: #000000; stroke-width: 0.5"/>
    <path d="M 430.545039 121.909391 
L 430.545039 92.665302 
" clip-path="url(#p0e832eb2be)" style="fill: none; stroke: #000000; stroke-width: 0.5"/>
    <path d="M 477.895075 103.622349 
L 477.895075 71.884326 
" clip-path="url(#p0e832eb2be)" style="fill: none; stroke: #000000; stroke-width: 0.5"/>
    <path d="M 525.245111 153.951594 
L 525.245111 128.53702 
" clip-path="url(#p0e832eb2be)" style="fill: none; stroke: #000000; stroke-width: 0.5"/>
    <path d="M 572.595147 197.949923 
L 572.595147 173.156169 
" clip-path="url(#p0e832eb2be)" style="fill: none; stroke: #000000; stroke-width: 0.5"/>
    <path d="M 619.945183 166.987796 
L 619.945183 155.808207 
" clip-path="url(#p0e832eb2be)" style="fill: none; stroke: #000000; stroke-width: 0.5"/>
    <path d="M 667.295218 199.08 
L 667.295218 199.08 
" clip-path="url(#p0e832eb2be)" style="fill: none; stroke: #000000; stroke-width: 0.5"/>
   </g>
   <g id="line2d_30">
    <g clip-path="url(#p0e832eb2be)">
     <use xlink:href="#m8fee09465d" x="99.094789" y="69.902213" style="stroke: #000000"/>
     <use xlink:href="#m8fee09465d" x="146.444825" y="134.39778" style="stroke: #000000"/>
     <use xlink:href="#m8fee09465d" x="193.79486" y="151.826684" style="stroke: #000000"/>
     <use xlink:href="#m8fee09465d" x="241.144896" y="127.11768" style="stroke: #000000"/>
     <use xlink:href="#m8fee09465d" x="288.494932" y="129.025617" style="stroke: #000000"/>
     <use xlink:href="#m8fee09465d" x="335.844968" y="114.058101" style="stroke: #000000"/>
     <use xlink:href="#m8fee09465d" x="383.195004" y="64.404259" style="stroke: #000000"/>
     <use xlink:href="#m8fee09465d" x="430.545039" y="121.909391" style="stroke: #000000"/>
     <use xlink:href="#m8fee09465d" x="477.895075" y="103.622349" style="stroke: #000000"/>
     <use xlink:href="#m8fee09465d" x="525.245111" y="153.951594" style="stroke: #000000"/>
     <use xlink:href="#m8fee09465d" x="572.595147" y="197.949923" style="stroke: #000000"/>
     <use xlink:href="#m8fee09465d" x="619.945183" y="166.987796" style="stroke: #000000"/>
     <use xlink:href="#m8fee09465d" x="667.295218" y="199.08" style="stroke: #000000"/>
    </g>
   </g>
   <g id="line2d_31">
    <g clip-path="url(#p0e832eb2be)">
     <use xlink:href="#m8fee09465d" x="99.094789" y="60.703953" style="stroke: #000000"/>
     <use xlink:href="#m8fee09465d" x="146.444825" y="122.36079" style="stroke: #000000"/>
     <use xlink:href="#m8fee09465d" x="193.79486" y="139.859823" style="stroke: #000000"/>
     <use xlink:href="#m8fee09465d" x="241.144896" y="114.098408" style="stroke: #000000"/>
     <use xlink:href="#m8fee09465d" x="288.494932" y="116.253455" style="stroke: #000000"/>
     <use xlink:href="#m8fee09465d" x="335.844968" y="108.303002" style="stroke: #000000"/>
     <use xlink:href="#m8fee09465d" x="383.195004" y="51.968481" style="stroke: #000000"/>
     <use xlink:href="#m8fee09465d" x="430.545039" y="92.665302" style="stroke: #000000"/>
     <use xlink:href="#m8fee09465d" x="477.895075" y="71.884326" style="stroke: #000000"/>
     <use xlink:href="#m8fee09465d" x="525.245111" y="128.53702" style="stroke: #000000"/>
     <use xlink:href="#m8fee09465d" x="572.595147" y="173.156169" style="stroke: #000000"/>
     <use xlink:href="#m8fee09465d" x="619.945183" y="155.808207" style="stroke: #000000"/>
     <use xlink:href="#m8fee09465d" x="667.295218" y="199.08" style="stroke: #000000"/>
    </g>
   </g>
   <g id="LineCollection_6">
    <path d="M 103.829792 124.71076 
L 103.829792 99.217909 
" clip-path="url(#p0e832eb2be)" style="fill: none; stroke: #000000; stroke-width: 0.5"/>
    <path d="M 151.179828 147.458163 
L 151.179828 130.814264 
" clip-path="url(#p0e832eb2be)" style="fill: none; stroke: #000000; stroke-width: 0.5"/>
    <path d="M 198.529864 160.695967 
L 198.529864 147.031729 
" clip-path="url(#p0e832eb2be)" style="fill: none; stroke: #000000; stroke-width: 0.5"/>
    <path d="M 245.8799 126.18434 
L 245.8799 119.818808 
" clip-path="url(#p0e832eb2be)" style="fill: none; stroke: #000000; stroke-width: 0.5"/>
    <path d="M 293.229936 144.829599 
L 293.229936 129.772348 
" clip-path="url(#p0e832eb2be)" style="fill: none; stroke: #000000; stroke-width: 0.5"/>
    <path d="M 340.579971 148.362552 
L 340.579971 134.20529 
" clip-path="url(#p0e832eb2be)" style="fill: none; stroke: #000000; stroke-width: 0.5"/>
    <path d="M 387.930007 115.583333 
L 387.930007 101.890431 
" clip-path="url(#p0e832eb2be)" style="fill: none; stroke: #000000; stroke-width: 0.5"/>
    <path d="M 435.280043 79.964789 
L 435.280043 65.64753 
" clip-path="url(#p0e832eb2be)" style="fill: none; stroke: #000000; stroke-width: 0.5"/>
    <path d="M 482.630079 59.145639 
L 482.630079 48.034016 
" clip-path="url(#p0e832eb2be)" style="fill: none; stroke: #000000; stroke-width: 0.5"/>
    <path d="M 529.980115 146.023472 
L 529.980115 129.339511 
" clip-path="url(#p0e832eb2be)" style="fill: none; stroke: #000000; stroke-width: 0.5"/>
    <path d="M 577.33015 148.690029 
L 577.33015 130.351217 
" clip-path="url(#p0e832eb2be)" style="fill: none; stroke: #000000; stroke-width: 0.5"/>
    <path d="M 624.680186 194.578609 
L 624.680186 182.416517 
" clip-path="url(#p0e832eb2be)" style="fill: none; stroke: #000000; stroke-width: 0.5"/>
    <path d="M 672.030222 199.08 
L 672.030222 199.08 
" clip-path="url(#p0e832eb2be)" style="fill: none; stroke: #000000; stroke-width: 0.5"/>
   </g>
   <g id="line2d_32">
    <g clip-path="url(#p0e832eb2be)">
     <use xlink:href="#m8fee09465d" x="103.829792" y="124.71076" style="stroke: #000000"/>
     <use xlink:href="#m8fee09465d" x="151.179828" y="147.458163" style="stroke: #000000"/>
     <use xlink:href="#m8fee09465d" x="198.529864" y="160.695967" style="stroke: #000000"/>
     <use xlink:href="#m8fee09465d" x="245.8799" y="126.18434" style="stroke: #000000"/>
     <use xlink:href="#m8fee09465d" x="293.229936" y="144.829599" style="stroke: #000000"/>
     <use xlink:href="#m8fee09465d" x="340.579971" y="148.362552" style="stroke: #000000"/>
     <use xlink:href="#m8fee09465d" x="387.930007" y="115.583333" style="stroke: #000000"/>
     <use xlink:href="#m8fee09465d" x="435.280043" y="79.964789" style="stroke: #000000"/>
     <use xlink:href="#m8fee09465d" x="482.630079" y="59.145639" style="stroke: #000000"/>
     <use xlink:href="#m8fee09465d" x="529.980115" y="146.023472" style="stroke: #000000"/>
     <use xlink:href="#m8fee09465d" x="577.33015" y="148.690029" style="stroke: #000000"/>
     <use xlink:href="#m8fee09465d" x="624.680186" y="194.578609" style="stroke: #000000"/>
     <use xlink:href="#m8fee09465d" x="672.030222" y="199.08" style="stroke: #000000"/>
    </g>
   </g>
   <g id="line2d_33">
    <g clip-path="url(#p0e832eb2be)">
     <use xlink:href="#m8fee09465d" x="103.829792" y="99.217909" style="stroke: #000000"/>
     <use xlink:href="#m8fee09465d" x="151.179828" y="130.814264" style="stroke: #000000"/>
     <use xlink:href="#m8fee09465d" x="198.529864" y="147.031729" style="stroke: #000000"/>
     <use xlink:href="#m8fee09465d" x="245.8799" y="119.818808" style="stroke: #000000"/>
     <use xlink:href="#m8fee09465d" x="293.229936" y="129.772348" style="stroke: #000000"/>
     <use xlink:href="#m8fee09465d" x="340.579971" y="134.20529" style="stroke: #000000"/>
     <use xlink:href="#m8fee09465d" x="387.930007" y="101.890431" style="stroke: #000000"/>
     <use xlink:href="#m8fee09465d" x="435.280043" y="65.64753" style="stroke: #000000"/>
     <use xlink:href="#m8fee09465d" x="482.630079" y="48.034016" style="stroke: #000000"/>
     <use xlink:href="#m8fee09465d" x="529.980115" y="129.339511" style="stroke: #000000"/>
     <use xlink:href="#m8fee09465d" x="577.33015" y="130.351217" style="stroke: #000000"/>
     <use xlink:href="#m8fee09465d" x="624.680186" y="182.416517" style="stroke: #000000"/>
     <use xlink:href="#m8fee09465d" x="672.030222" y="199.08" style="stroke: #000000"/>
    </g>
   </g>
   <g id="LineCollection_7">
    <path d="M 108.564796 132.602327 
L 108.564796 109.629361 
" clip-path="url(#p0e832eb2be)" style="fill: none; stroke: #000000; stroke-width: 0.5"/>
    <path d="M 155.914832 99.100131 
L 155.914832 81.162529 
" clip-path="url(#p0e832eb2be)" style="fill: none; stroke: #000000; stroke-width: 0.5"/>
    <path d="M 203.264868 165.376799 
L 203.264868 153.477983 
" clip-path="url(#p0e832eb2be)" style="fill: none; stroke: #000000; stroke-width: 0.5"/>
    <path d="M 250.614903 155.823283 
L 250.614903 137.278212 
" clip-path="url(#p0e832eb2be)" style="fill: none; stroke: #000000; stroke-width: 0.5"/>
    <path d="M 297.964939 156.863552 
L 297.964939 145.410123 
" clip-path="url(#p0e832eb2be)" style="fill: none; stroke: #000000; stroke-width: 0.5"/>
    <path d="M 345.314975 164.713514 
L 345.314975 142.720764 
" clip-path="url(#p0e832eb2be)" style="fill: none; stroke: #000000; stroke-width: 0.5"/>
    <path d="M 392.665011 127.364827 
L 392.665011 101.458394 
" clip-path="url(#p0e832eb2be)" style="fill: none; stroke: #000000; stroke-width: 0.5"/>
    <path d="M 440.015047 140.842608 
L 440.015047 120.650066 
" clip-path="url(#p0e832eb2be)" style="fill: none; stroke: #000000; stroke-width: 0.5"/>
    <path d="M 487.365082 109.531478 
L 487.365082 93.141027 
" clip-path="url(#p0e832eb2be)" style="fill: none; stroke: #000000; stroke-width: 0.5"/>
    <path d="M 534.715118 153.53371 
L 534.715118 129.349996 
" clip-path="url(#p0e832eb2be)" style="fill: none; stroke: #000000; stroke-width: 0.5"/>
    <path d="M 582.065154 162.678073 
L 582.065154 146.177695 
" clip-path="url(#p0e832eb2be)" style="fill: none; stroke: #000000; stroke-width: 0.5"/>
    <path d="M 629.41519 179.902819 
L 629.41519 137.889851 
" clip-path="url(#p0e832eb2be)" style="fill: none; stroke: #000000; stroke-width: 0.5"/>
    <path d="M 676.765225 199.08 
L 676.765225 199.08 
" clip-path="url(#p0e832eb2be)" style="fill: none; stroke: #000000; stroke-width: 0.5"/>
   </g>
   <g id="line2d_34">
    <g clip-path="url(#p0e832eb2be)">
     <use xlink:href="#m8fee09465d" x="108.564796" y="132.602327" style="stroke: #000000"/>
     <use xlink:href="#m8fee09465d" x="155.914832" y="99.100131" style="stroke: #000000"/>
     <use xlink:href="#m8fee09465d" x="203.264868" y="165.376799" style="stroke: #000000"/>
     <use xlink:href="#m8fee09465d" x="250.614903" y="155.823283" style="stroke: #000000"/>
     <use xlink:href="#m8fee09465d" x="297.964939" y="156.863552" style="stroke: #000000"/>
     <use xlink:href="#m8fee09465d" x="345.314975" y="164.713514" style="stroke: #000000"/>
     <use xlink:href="#m8fee09465d" x="392.665011" y="127.364827" style="stroke: #000000"/>
     <use xlink:href="#m8fee09465d" x="440.015047" y="140.842608" style="stroke: #000000"/>
     <use xlink:href="#m8fee09465d" x="487.365082" y="109.531478" style="stroke: #000000"/>
     <use xlink:href="#m8fee09465d" x="534.715118" y="153.53371" style="stroke: #000000"/>
     <use xlink:href="#m8fee09465d" x="582.065154" y="162.678073" style="stroke: #000000"/>
     <use xlink:href="#m8fee09465d" x="629.41519" y="179.902819" style="stroke: #000000"/>
     <use xlink:href="#m8fee09465d" x="676.765225" y="199.08" style="stroke: #000000"/>
    </g>
   </g>
   <g id="line2d_35">
    <g clip-path="url(#p0e832eb2be)">
     <use xlink:href="#m8fee09465d" x="108.564796" y="109.629361" style="stroke: #000000"/>
     <use xlink:href="#m8fee09465d" x="155.914832" y="81.162529" style="stroke: #000000"/>
     <use xlink:href="#m8fee09465d" x="203.264868" y="153.477983" style="stroke: #000000"/>
     <use xlink:href="#m8fee09465d" x="250.614903" y="137.278212" style="stroke: #000000"/>
     <use xlink:href="#m8fee09465d" x="297.964939" y="145.410123" style="stroke: #000000"/>
     <use xlink:href="#m8fee09465d" x="345.314975" y="142.720764" style="stroke: #000000"/>
     <use xlink:href="#m8fee09465d" x="392.665011" y="101.458394" style="stroke: #000000"/>
     <use xlink:href="#m8fee09465d" x="440.015047" y="120.650066" style="stroke: #000000"/>
     <use xlink:href="#m8fee09465d" x="487.365082" y="93.141027" style="stroke: #000000"/>
     <use xlink:href="#m8fee09465d" x="534.715118" y="129.349996" style="stroke: #000000"/>
     <use xlink:href="#m8fee09465d" x="582.065154" y="146.177695" style="stroke: #000000"/>
     <use xlink:href="#m8fee09465d" x="629.41519" y="137.889851" style="stroke: #000000"/>
     <use xlink:href="#m8fee09465d" x="676.765225" y="199.08" style="stroke: #000000"/>
    </g>
   </g>
   <g id="patch_94">
    <path d="M 47.72 199.08 
L 47.72 14.3 
" style="fill: none; stroke: #000000; stroke-width: 0.8; stroke-linejoin: miter; stroke-linecap: square"/>
   </g>
   <g id="patch_95">
    <path d="M 709.2 199.08 
L 709.2 14.3 
" style="fill: none; stroke: #000000; stroke-width: 0.8; stroke-linejoin: miter; stroke-linecap: square"/>
   </g>
   <g id="patch_96">
    <path d="M 47.72 199.08 
L 709.2 199.08 
" style="fill: none; stroke: #000000; stroke-width: 0.8; stroke-linejoin: miter; stroke-linecap: square"/>
   </g>
   <g id="patch_97">
    <path d="M 47.72 14.3 
L 709.2 14.3 
" style="fill: none; stroke: #000000; stroke-width: 0.8; stroke-linejoin: miter; stroke-linecap: square"/>
   </g>
   <g id="legend_1">
    <g id="patch_98">
     <path d="M 114.588423 40.3948 
L 351.280377 40.3948 
Q 352.668377 40.3948 352.668377 39.0068 
L 352.668377 19.327563 
Q 352.668377 17.939563 351.280377 17.939563 
L 114.588423 17.939563 
Q 113.200423 17.939563 113.200423 19.327563 
L 113.200423 39.0068 
Q 113.200423 40.3948 114.588423 40.3948 
z
" style="fill: #ffffff; opacity: 0.8; stroke: #cccccc; stroke-linejoin: miter"/>
    </g>
    <g id="patch_99">
     <path d="M 115.976423 25.988878 
L 122.916423 25.988878 
L 122.916423 21.130878 
L 115.976423 21.130878 
z
" style="fill: #1f77b4; stroke: #1f77b4; stroke-linejoin: miter"/>
    </g>
    <g id="text_10">
     <!-- DeepCRISTL -->
     <g transform="translate(129.856423 25.988878) scale(0.0694 -0.0694)">
      <defs>
       <path id="DejaVuSans-44" d="M 1259 4147 
L 1259 519 
L 2022 519 
Q 2988 519 3436 956 
Q 3884 1394 3884 2338 
Q 3884 3275 3436 3711 
Q 2988 4147 2022 4147 
L 1259 4147 
z
M 628 4666 
L 1925 4666 
Q 3281 4666 3915 4102 
Q 4550 3538 4550 2338 
Q 4550 1131 3912 565 
Q 3275 0 1925 0 
L 628 0 
L 628 4666 
z
" transform="scale(0.015625)"/>
       <path id="DejaVuSans-43" d="M 4122 4306 
L 4122 3641 
Q 3803 3938 3442 4084 
Q 3081 4231 2675 4231 
Q 1875 4231 1450 3742 
Q 1025 3253 1025 2328 
Q 1025 1406 1450 917 
Q 1875 428 2675 428 
Q 3081 428 3442 575 
Q 3803 722 4122 1019 
L 4122 359 
Q 3791 134 3420 21 
Q 3050 -91 2638 -91 
Q 1578 -91 968 557 
Q 359 1206 359 2328 
Q 359 3453 968 4101 
Q 1578 4750 2638 4750 
Q 3056 4750 3426 4639 
Q 3797 4528 4122 4306 
z
" transform="scale(0.015625)"/>
       <path id="DejaVuSans-52" d="M 2841 2188 
Q 3044 2119 3236 1894 
Q 3428 1669 3622 1275 
L 4263 0 
L 3584 0 
L 2988 1197 
Q 2756 1666 2539 1819 
Q 2322 1972 1947 1972 
L 1259 1972 
L 1259 0 
L 628 0 
L 628 4666 
L 2053 4666 
Q 2853 4666 3247 4331 
Q 3641 3997 3641 3322 
Q 3641 2881 3436 2590 
Q 3231 2300 2841 2188 
z
M 1259 4147 
L 1259 2491 
L 2053 2491 
Q 2509 2491 2742 2702 
Q 2975 2913 2975 3322 
Q 2975 3731 2742 3939 
Q 2509 4147 2053 4147 
L 1259 4147 
z
" transform="scale(0.015625)"/>
       <path id="DejaVuSans-49" d="M 628 4666 
L 1259 4666 
L 1259 0 
L 628 0 
L 628 4666 
z
" transform="scale(0.015625)"/>
       <path id="DejaVuSans-54" d="M -19 4666 
L 3928 4666 
L 3928 4134 
L 2272 4134 
L 2272 0 
L 1638 0 
L 1638 4134 
L -19 4134 
L -19 4666 
z
" transform="scale(0.015625)"/>
       <path id="DejaVuSans-4c" d="M 628 4666 
L 1259 4666 
L 1259 531 
L 3531 531 
L 3531 0 
L 628 0 
L 628 4666 
z
" transform="scale(0.015625)"/>
      </defs>
      <use xlink:href="#DejaVuSans-44"/>
      <use xlink:href="#DejaVuSans-65" x="77.001953"/>
      <use xlink:href="#DejaVuSans-65" x="138.525391"/>
      <use xlink:href="#DejaVuSans-70" x="200.048828"/>
      <use xlink:href="#DejaVuSans-43" x="263.525391"/>
      <use xlink:href="#DejaVuSans-52" x="333.349609"/>
      <use xlink:href="#DejaVuSans-49" x="402.832031"/>
      <use xlink:href="#DejaVuSans-53" x="432.324219"/>
      <use xlink:href="#DejaVuSans-54" x="495.800781"/>
      <use xlink:href="#DejaVuSans-4c" x="556.884766"/>
     </g>
    </g>
    <g id="patch_100">
     <path d="M 115.976423 36.175497 
L 122.916423 36.175497 
L 122.916423 31.317497 
L 115.976423 31.317497 
z
" style="fill: #aec7e8; stroke: #aec7e8; stroke-linejoin: miter"/>
    </g>
    <g id="text_11">
     <!-- CRISPROn -->
     <g transform="translate(129.856423 36.175497) scale(0.0694 -0.0694)">
      <defs>
       <path id="DejaVuSans-50" d="M 1259 4147 
L 1259 2394 
L 2053 2394 
Q 2494 2394 2734 2622 
Q 2975 2850 2975 3272 
Q 2975 3691 2734 3919 
Q 2494 4147 2053 4147 
L 1259 4147 
z
M 628 4666 
L 2053 4666 
Q 2838 4666 3239 4311 
Q 3641 3956 3641 3272 
Q 3641 2581 3239 2228 
Q 2838 1875 2053 1875 
L 1259 1875 
L 1259 0 
L 628 0 
L 628 4666 
z
" transform="scale(0.015625)"/>
       <path id="DejaVuSans-4f" d="M 2522 4238 
Q 1834 4238 1429 3725 
Q 1025 3213 1025 2328 
Q 1025 1447 1429 934 
Q 1834 422 2522 422 
Q 3209 422 3611 934 
Q 4013 1447 4013 2328 
Q 4013 3213 3611 3725 
Q 3209 4238 2522 4238 
z
M 2522 4750 
Q 3503 4750 4090 4092 
Q 4678 3434 4678 2328 
Q 4678 1225 4090 567 
Q 3503 -91 2522 -91 
Q 1538 -91 948 565 
Q 359 1222 359 2328 
Q 359 3434 948 4092 
Q 1538 4750 2522 4750 
z
" transform="scale(0.015625)"/>
      </defs>
      <use xlink:href="#DejaVuSans-43"/>
      <use xlink:href="#DejaVuSans-52" x="69.824219"/>
      <use xlink:href="#DejaVuSans-49" x="139.306641"/>
      <use xlink:href="#DejaVuSans-53" x="168.798828"/>
      <use xlink:href="#DejaVuSans-50" x="232.275391"/>
      <use xlink:href="#DejaVuSans-52" x="292.578125"/>
      <use xlink:href="#DejaVuSans-4f" x="362.060547"/>
      <use xlink:href="#DejaVuSans-6e" x="440.771484"/>
     </g>
    </g>
    <g id="patch_101">
     <path d="M 179.313683 25.988878 
L 186.253683 25.988878 
L 186.253683 21.130878 
L 179.313683 21.130878 
z
" style="fill: #ff7f0e; stroke: #ff7f0e; stroke-linejoin: miter"/>
    </g>
    <g id="text_12">
     <!-- DeepHF -->
     <g transform="translate(193.193683 25.988878) scale(0.0694 -0.0694)">
      <defs>
       <path id="DejaVuSans-48" d="M 628 4666 
L 1259 4666 
L 1259 2753 
L 3553 2753 
L 3553 4666 
L 4184 4666 
L 4184 0 
L 3553 0 
L 3553 2222 
L 1259 2222 
L 1259 0 
L 628 0 
L 628 4666 
z
" transform="scale(0.015625)"/>
       <path id="DejaVuSans-46" d="M 628 4666 
L 3309 4666 
L 3309 4134 
L 1259 4134 
L 1259 2759 
L 3109 2759 
L 3109 2228 
L 1259 2228 
L 1259 0 
L 628 0 
L 628 4666 
z
" transform="scale(0.015625)"/>
      </defs>
      <use xlink:href="#DejaVuSans-44"/>
      <use xlink:href="#DejaVuSans-65" x="77.001953"/>
      <use xlink:href="#DejaVuSans-65" x="138.525391"/>
      <use xlink:href="#DejaVuSans-70" x="200.048828"/>
      <use xlink:href="#DejaVuSans-48" x="263.525391"/>
      <use xlink:href="#DejaVuSans-46" x="338.720703"/>
     </g>
    </g>
    <g id="patch_102">
     <path d="M 179.313683 36.175497 
L 186.253683 36.175497 
L 186.253683 31.317497 
L 179.313683 31.317497 
z
" style="fill: #ffbb78; stroke: #ffbb78; stroke-linejoin: miter"/>
    </g>
    <g id="text_13">
     <!-- wuCrispr -->
     <g transform="translate(193.193683 36.175497) scale(0.0694 -0.0694)">
      <defs>
       <path id="DejaVuSans-77" d="M 269 3500 
L 844 3500 
L 1563 769 
L 2278 3500 
L 2956 3500 
L 3675 769 
L 4391 3500 
L 4966 3500 
L 4050 0 
L 3372 0 
L 2619 2869 
L 1863 0 
L 1184 0 
L 269 3500 
z
" transform="scale(0.015625)"/>
       <path id="DejaVuSans-75" d="M 544 1381 
L 544 3500 
L 1119 3500 
L 1119 1403 
Q 1119 906 1312 657 
Q 1506 409 1894 409 
Q 2359 409 2629 706 
Q 2900 1003 2900 1516 
L 2900 3500 
L 3475 3500 
L 3475 0 
L 2900 0 
L 2900 538 
Q 2691 219 2414 64 
Q 2138 -91 1772 -91 
Q 1169 -91 856 284 
Q 544 659 544 1381 
z
M 1991 3584 
L 1991 3584 
z
" transform="scale(0.015625)"/>
       <path id="DejaVuSans-69" d="M 603 3500 
L 1178 3500 
L 1178 0 
L 603 0 
L 603 3500 
z
M 603 4863 
L 1178 4863 
L 1178 4134 
L 603 4134 
L 603 4863 
z
" transform="scale(0.015625)"/>
       <path id="DejaVuSans-73" d="M 2834 3397 
L 2834 2853 
Q 2591 2978 2328 3040 
Q 2066 3103 1784 3103 
Q 1356 3103 1142 2972 
Q 928 2841 928 2578 
Q 928 2378 1081 2264 
Q 1234 2150 1697 2047 
L 1894 2003 
Q 2506 1872 2764 1633 
Q 3022 1394 3022 966 
Q 3022 478 2636 193 
Q 2250 -91 1575 -91 
Q 1294 -91 989 -36 
Q 684 19 347 128 
L 347 722 
Q 666 556 975 473 
Q 1284 391 1588 391 
Q 1994 391 2212 530 
Q 2431 669 2431 922 
Q 2431 1156 2273 1281 
Q 2116 1406 1581 1522 
L 1381 1569 
Q 847 1681 609 1914 
Q 372 2147 372 2553 
Q 372 3047 722 3315 
Q 1072 3584 1716 3584 
Q 2034 3584 2315 3537 
Q 2597 3491 2834 3397 
z
" transform="scale(0.015625)"/>
      </defs>
      <use xlink:href="#DejaVuSans-77"/>
      <use xlink:href="#DejaVuSans-75" x="81.787109"/>
      <use xlink:href="#DejaVuSans-43" x="145.166016"/>
      <use xlink:href="#DejaVuSans-72" x="214.990234"/>
      <use xlink:href="#DejaVuSans-69" x="256.103516"/>
      <use xlink:href="#DejaVuSans-73" x="283.886719"/>
      <use xlink:href="#DejaVuSans-70" x="335.986328"/>
      <use xlink:href="#DejaVuSans-72" x="399.462891"/>
     </g>
    </g>
    <g id="patch_103">
     <path d="M 230.70872 25.988878 
L 237.64872 25.988878 
L 237.64872 21.130878 
L 230.70872 21.130878 
z
" style="fill: #2ca02c; stroke: #2ca02c; stroke-linejoin: miter"/>
    </g>
    <g id="text_14">
     <!-- wang score -->
     <g transform="translate(244.58872 25.988878) scale(0.0694 -0.0694)">
      <defs>
       <path id="DejaVuSans-67" d="M 2906 1791 
Q 2906 2416 2648 2759 
Q 2391 3103 1925 3103 
Q 1463 3103 1205 2759 
Q 947 2416 947 1791 
Q 947 1169 1205 825 
Q 1463 481 1925 481 
Q 2391 481 2648 825 
Q 2906 1169 2906 1791 
z
M 3481 434 
Q 3481 -459 3084 -895 
Q 2688 -1331 1869 -1331 
Q 1566 -1331 1297 -1286 
Q 1028 -1241 775 -1147 
L 775 -588 
Q 1028 -725 1275 -790 
Q 1522 -856 1778 -856 
Q 2344 -856 2625 -561 
Q 2906 -266 2906 331 
L 2906 616 
Q 2728 306 2450 153 
Q 2172 0 1784 0 
Q 1141 0 747 490 
Q 353 981 353 1791 
Q 353 2603 747 3093 
Q 1141 3584 1784 3584 
Q 2172 3584 2450 3431 
Q 2728 3278 2906 2969 
L 2906 3500 
L 3481 3500 
L 3481 434 
z
" transform="scale(0.015625)"/>
       <path id="DejaVuSans-20" transform="scale(0.015625)"/>
       <path id="DejaVuSans-63" d="M 3122 3366 
L 3122 2828 
Q 2878 2963 2633 3030 
Q 2388 3097 2138 3097 
Q 1578 3097 1268 2742 
Q 959 2388 959 1747 
Q 959 1106 1268 751 
Q 1578 397 2138 397 
Q 2388 397 2633 464 
Q 2878 531 3122 666 
L 3122 134 
Q 2881 22 2623 -34 
Q 2366 -91 2075 -91 
Q 1284 -91 818 406 
Q 353 903 353 1747 
Q 353 2603 823 3093 
Q 1294 3584 2113 3584 
Q 2378 3584 2631 3529 
Q 2884 3475 3122 3366 
z
" transform="scale(0.015625)"/>
       <path id="DejaVuSans-6f" d="M 1959 3097 
Q 1497 3097 1228 2736 
Q 959 2375 959 1747 
Q 959 1119 1226 758 
Q 1494 397 1959 397 
Q 2419 397 2687 759 
Q 2956 1122 2956 1747 
Q 2956 2369 2687 2733 
Q 2419 3097 1959 3097 
z
M 1959 3584 
Q 2709 3584 3137 3096 
Q 3566 2609 3566 1747 
Q 3566 888 3137 398 
Q 2709 -91 1959 -91 
Q 1206 -91 779 398 
Q 353 888 353 1747 
Q 353 2609 779 3096 
Q 1206 3584 1959 3584 
z
" transform="scale(0.015625)"/>
      </defs>
      <use xlink:href="#DejaVuSans-77"/>
      <use xlink:href="#DejaVuSans-61" x="81.787109"/>
      <use xlink:href="#DejaVuSans-6e" x="143.066406"/>
      <use xlink:href="#DejaVuSans-67" x="206.445312"/>
      <use xlink:href="#DejaVuSans-20" x="269.921875"/>
      <use xlink:href="#DejaVuSans-73" x="301.708984"/>
      <use xlink:href="#DejaVuSans-63" x="353.808594"/>
      <use xlink:href="#DejaVuSans-6f" x="408.789062"/>
      <use xlink:href="#DejaVuSans-72" x="469.970703"/>
      <use xlink:href="#DejaVuSans-65" x="508.833984"/>
     </g>
    </g>
    <g id="patch_104">
     <path d="M 230.70872 36.175497 
L 237.64872 36.175497 
L 237.64872 31.317497 
L 230.70872 31.317497 
z
" style="fill: #98df8a; stroke: #98df8a; stroke-linejoin: miter"/>
    </g>
    <g id="text_15">
     <!-- doench score -->
     <g transform="translate(244.58872 36.175497) scale(0.0694 -0.0694)">
      <defs>
       <path id="DejaVuSans-64" d="M 2906 2969 
L 2906 4863 
L 3481 4863 
L 3481 0 
L 2906 0 
L 2906 525 
Q 2725 213 2448 61 
Q 2172 -91 1784 -91 
Q 1150 -91 751 415 
Q 353 922 353 1747 
Q 353 2572 751 3078 
Q 1150 3584 1784 3584 
Q 2172 3584 2448 3432 
Q 2725 3281 2906 2969 
z
M 947 1747 
Q 947 1113 1208 752 
Q 1469 391 1925 391 
Q 2381 391 2643 752 
Q 2906 1113 2906 1747 
Q 2906 2381 2643 2742 
Q 2381 3103 1925 3103 
Q 1469 3103 1208 2742 
Q 947 2381 947 1747 
z
" transform="scale(0.015625)"/>
       <path id="DejaVuSans-68" d="M 3513 2113 
L 3513 0 
L 2938 0 
L 2938 2094 
Q 2938 2591 2744 2837 
Q 2550 3084 2163 3084 
Q 1697 3084 1428 2787 
Q 1159 2491 1159 1978 
L 1159 0 
L 581 0 
L 581 4863 
L 1159 4863 
L 1159 2956 
Q 1366 3272 1645 3428 
Q 1925 3584 2291 3584 
Q 2894 3584 3203 3211 
Q 3513 2838 3513 2113 
z
" transform="scale(0.015625)"/>
      </defs>
      <use xlink:href="#DejaVuSans-64"/>
      <use xlink:href="#DejaVuSans-6f" x="63.476562"/>
      <use xlink:href="#DejaVuSans-65" x="124.658203"/>
      <use xlink:href="#DejaVuSans-6e" x="186.181641"/>
      <use xlink:href="#DejaVuSans-63" x="249.560547"/>
      <use xlink:href="#DejaVuSans-68" x="304.541016"/>
      <use xlink:href="#DejaVuSans-20" x="367.919922"/>
      <use xlink:href="#DejaVuSans-73" x="399.707031"/>
      <use xlink:href="#DejaVuSans-63" x="451.806641"/>
      <use xlink:href="#DejaVuSans-6f" x="506.787109"/>
      <use xlink:href="#DejaVuSans-72" x="567.96875"/>
      <use xlink:href="#DejaVuSans-65" x="606.832031"/>
     </g>
    </g>
    <g id="patch_105">
     <path d="M 297.913945 25.988878 
L 304.853945 25.988878 
L 304.853945 21.130878 
L 297.913945 21.130878 
z
" style="fill: #d62728; stroke: #d62728; stroke-linejoin: miter"/>
    </g>
    <g id="text_16">
     <!-- chari score -->
     <g transform="translate(311.793945 25.988878) scale(0.0694 -0.0694)">
      <use xlink:href="#DejaVuSans-63"/>
      <use xlink:href="#DejaVuSans-68" x="54.980469"/>
      <use xlink:href="#DejaVuSans-61" x="118.359375"/>
      <use xlink:href="#DejaVuSans-72" x="179.638672"/>
      <use xlink:href="#DejaVuSans-69" x="220.751953"/>
      <use xlink:href="#DejaVuSans-20" x="248.535156"/>
      <use xlink:href="#DejaVuSans-73" x="280.322266"/>
      <use xlink:href="#DejaVuSans-63" x="332.421875"/>
      <use xlink:href="#DejaVuSans-6f" x="387.402344"/>
      <use xlink:href="#DejaVuSans-72" x="448.583984"/>
      <use xlink:href="#DejaVuSans-65" x="487.447266"/>
     </g>
    </g>
   </g>
  </g>
 </g>
 <defs>
  <clipPath id="p0e832eb2be">
   <rect x="47.72" y="14.3" width="661.48" height="184.78"/>
  </clipPath>
 </defs>
</svg>
