<?xml version="1.0" encoding="utf-8" standalone="no"?>
<!DOCTYPE svg PUBLIC "-//W3C//DTD SVG 1.1//EN"
  "http://www.w3.org/Graphics/SVG/1.1/DTD/svg11.dtd">
<svg xmlns:xlink="http://www.w3.org/1999/xlink" width="720pt" height="216pt" viewBox="0 0 720 216" xmlns="http://www.w3.org/2000/svg" version="1.1">
 <metadata>
  <rdf:RDF xmlns:dc="http://purl.org/dc/elements/1.1/" xmlns:cc="http://creativecommons.org/ns#" xmlns:rdf="http://www.w3.org/1999/02/22-rdf-syntax-ns#">
   <cc:Work>
    <dc:type rdf:resource="http://purl.org/dc/dcmitype/StillImage"/>
    <dc:date>2024-05-28T13:58:46.318733</dc:date>
    <dc:format>image/svg+xml</dc:format>
    <dc:creator>
     <cc:Agent>
      <dc:title>Matplotlib v3.7.2, https://matplotlib.org/</dc:title>
     </cc:Agent>
    </dc:creator>
   </cc:Work>
  </rdf:RDF>
 </metadata>
 <defs>
  <style type="text/css">*{stroke-linejoin: round; stroke-linecap: butt}</style>
 </defs>
 <g id="figure_1">
  <g id="patch_1">
   <path d="M 0 216 
L 720 216 
L 720 0 
L 0 0 
z
" style="fill: #ffffff"/>
  </g>
  <g id="axes_1">
   <g id="patch_2">
    <path d="M 47.72 199.08 
L 701.104 199.08 
L 701.104 14.3 
L 47.72 14.3 
z
" style="fill: #ffffff"/>
   </g>
   <g id="patch_3">
    <path d="M 77.419273 199.08 
L 82.096324 199.08 
L 82.096324 39.44979 
L 77.419273 39.44979 
z
" clip-path="url(#p6ef8022944)" style="fill: #1f77b4"/>
   </g>
   <g id="patch_4">
    <path d="M 124.189781 199.08 
L 128.866832 199.08 
L 128.866832 40.657019 
L 124.189781 40.657019 
z
" clip-path="url(#p6ef8022944)" style="fill: #1f77b4"/>
   </g>
   <g id="patch_5">
    <path d="M 170.960289 199.08 
L 175.63734 199.08 
L 175.63734 42.401342 
L 170.960289 42.401342 
z
" clip-path="url(#p6ef8022944)" style="fill: #1f77b4"/>
   </g>
   <g id="patch_6">
    <path d="M 217.730797 199.08 
L 222.407848 199.08 
L 222.407848 42.36685 
L 217.730797 42.36685 
z
" clip-path="url(#p6ef8022944)" style="fill: #1f77b4"/>
   </g>
   <g id="patch_7">
    <path d="M 264.501306 199.08 
L 269.178356 199.08 
L 269.178356 90.862977 
L 264.501306 90.862977 
z
" clip-path="url(#p6ef8022944)" style="fill: #1f77b4"/>
   </g>
   <g id="patch_8">
    <path d="M 311.271814 199.08 
L 315.948865 199.08 
L 315.948865 101.683694 
L 311.271814 101.683694 
z
" clip-path="url(#p6ef8022944)" style="fill: #1f77b4"/>
   </g>
   <g id="patch_9">
    <path d="M 358.042322 199.08 
L 362.719373 199.08 
L 362.719373 88.320404 
L 358.042322 88.320404 
z
" clip-path="url(#p6ef8022944)" style="fill: #1f77b4"/>
   </g>
   <g id="patch_10">
    <path d="M 404.81283 199.08 
L 409.489881 199.08 
L 409.489881 107.044778 
L 404.81283 107.044778 
z
" clip-path="url(#p6ef8022944)" style="fill: #1f77b4"/>
   </g>
   <g id="patch_11">
    <path d="M 451.583339 199.08 
L 456.260389 199.08 
L 456.260389 62.397002 
L 451.583339 62.397002 
z
" clip-path="url(#p6ef8022944)" style="fill: #1f77b4"/>
   </g>
   <g id="patch_12">
    <path d="M 498.353847 199.08 
L 503.030898 199.08 
L 503.030898 71.833101 
L 498.353847 71.833101 
z
" clip-path="url(#p6ef8022944)" style="fill: #1f77b4"/>
   </g>
   <g id="patch_13">
    <path d="M 545.124355 199.08 
L 549.801406 199.08 
L 549.801406 82.742512 
L 545.124355 82.742512 
z
" clip-path="url(#p6ef8022944)" style="fill: #1f77b4"/>
   </g>
   <g id="patch_14">
    <path d="M 591.894863 199.08 
L 596.571914 199.08 
L 596.571914 70.685001 
L 591.894863 70.685001 
z
" clip-path="url(#p6ef8022944)" style="fill: #1f77b4"/>
   </g>
   <g id="patch_15">
    <path d="M 638.665372 199.08 
L 643.342422 199.08 
L 643.342422 112.041229 
L 638.665372 112.041229 
z
" clip-path="url(#p6ef8022944)" style="fill: #1f77b4"/>
   </g>
   <g id="patch_16">
    <path d="M 82.096324 199.08 
L 86.773374 199.08 
L 86.773374 45.072029 
L 82.096324 45.072029 
z
" clip-path="url(#p6ef8022944)" style="fill: #aec7e8"/>
   </g>
   <g id="patch_17">
    <path d="M 128.866832 199.08 
L 133.543883 199.08 
L 133.543883 55.592171 
L 128.866832 55.592171 
z
" clip-path="url(#p6ef8022944)" style="fill: #aec7e8"/>
   </g>
   <g id="patch_18">
    <path d="M 175.63734 199.08 
L 180.314391 199.08 
L 180.314391 45.683035 
L 175.63734 45.683035 
z
" clip-path="url(#p6ef8022944)" style="fill: #aec7e8"/>
   </g>
   <g id="patch_19">
    <path d="M 222.407848 199.08 
L 227.084899 199.08 
L 227.084899 45.180434 
L 222.407848 45.180434 
z
" clip-path="url(#p6ef8022944)" style="fill: #aec7e8"/>
   </g>
   <g id="patch_20">
    <path d="M 269.178356 199.08 
L 273.855407 199.08 
L 273.855407 94.100323 
L 269.178356 94.100323 
z
" clip-path="url(#p6ef8022944)" style="fill: #aec7e8"/>
   </g>
   <g id="patch_21">
    <path d="M 315.948865 199.08 
L 320.625916 199.08 
L 320.625916 111.86384 
L 315.948865 111.86384 
z
" clip-path="url(#p6ef8022944)" style="fill: #aec7e8"/>
   </g>
   <g id="patch_22">
    <path d="M 362.719373 199.08 
L 367.396424 199.08 
L 367.396424 81.012971 
L 362.719373 81.012971 
z
" clip-path="url(#p6ef8022944)" style="fill: #aec7e8"/>
   </g>
   <g id="patch_23">
    <path d="M 409.489881 199.08 
L 414.166932 199.08 
L 414.166932 114.47047 
L 409.489881 114.47047 
z
" clip-path="url(#p6ef8022944)" style="fill: #aec7e8"/>
   </g>
   <g id="patch_24">
    <path d="M 456.260389 199.08 
L 460.93744 199.08 
L 460.93744 80.948914 
L 456.260389 80.948914 
z
" clip-path="url(#p6ef8022944)" style="fill: #aec7e8"/>
   </g>
   <g id="patch_25">
    <path d="M 503.030898 199.08 
L 507.707948 199.08 
L 507.707948 81.106593 
L 503.030898 81.106593 
z
" clip-path="url(#p6ef8022944)" style="fill: #aec7e8"/>
   </g>
   <g id="patch_26">
    <path d="M 549.801406 199.08 
L 554.478457 199.08 
L 554.478457 95.780589 
L 549.801406 95.780589 
z
" clip-path="url(#p6ef8022944)" style="fill: #aec7e8"/>
   </g>
   <g id="patch_27">
    <path d="M 596.571914 199.08 
L 601.248965 199.08 
L 601.248965 142.502828 
L 596.571914 142.502828 
z
" clip-path="url(#p6ef8022944)" style="fill: #aec7e8"/>
   </g>
   <g id="patch_28">
    <path d="M 643.342422 199.08 
L 648.019473 199.08 
L 648.019473 152.195155 
L 643.342422 152.195155 
z
" clip-path="url(#p6ef8022944)" style="fill: #aec7e8"/>
   </g>
   <g id="patch_29">
    <path d="M 86.773374 199.08 
L 91.450425 199.08 
L 91.450425 44.495516 
L 86.773374 44.495516 
z
" clip-path="url(#p6ef8022944)" style="fill: #ff7f0e"/>
   </g>
   <g id="patch_30">
    <path d="M 133.543883 199.08 
L 138.220933 199.08 
L 138.220933 55.271885 
L 133.543883 55.271885 
z
" clip-path="url(#p6ef8022944)" style="fill: #ff7f0e"/>
   </g>
   <g id="patch_31">
    <path d="M 180.314391 199.08 
L 184.991442 199.08 
L 184.991442 46.969104 
L 180.314391 46.969104 
z
" clip-path="url(#p6ef8022944)" style="fill: #ff7f0e"/>
   </g>
   <g id="patch_32">
    <path d="M 227.084899 199.08 
L 231.76195 199.08 
L 231.76195 43.874655 
L 227.084899 43.874655 
z
" clip-path="url(#p6ef8022944)" style="fill: #ff7f0e"/>
   </g>
   <g id="patch_33">
    <path d="M 273.855407 199.08 
L 278.532458 199.08 
L 278.532458 100.126614 
L 273.855407 100.126614 
z
" clip-path="url(#p6ef8022944)" style="fill: #ff7f0e"/>
   </g>
   <g id="patch_34">
    <path d="M 320.625916 199.08 
L 325.302966 199.08 
L 325.302966 119.521123 
L 320.625916 119.521123 
z
" clip-path="url(#p6ef8022944)" style="fill: #ff7f0e"/>
   </g>
   <g id="patch_35">
    <path d="M 367.396424 199.08 
L 372.073475 199.08 
L 372.073475 91.922382 
L 367.396424 91.922382 
z
" clip-path="url(#p6ef8022944)" style="fill: #ff7f0e"/>
   </g>
   <g id="patch_36">
    <path d="M 414.166932 199.08 
L 418.843983 199.08 
L 418.843983 120.546036 
L 414.166932 120.546036 
z
" clip-path="url(#p6ef8022944)" style="fill: #ff7f0e"/>
   </g>
   <g id="patch_37">
    <path d="M 460.93744 199.08 
L 465.614491 199.08 
L 465.614491 83.126854 
L 460.93744 83.126854 
z
" clip-path="url(#p6ef8022944)" style="fill: #ff7f0e"/>
   </g>
   <g id="patch_38">
    <path d="M 507.707948 199.08 
L 512.384999 199.08 
L 512.384999 82.486284 
L 507.707948 82.486284 
z
" clip-path="url(#p6ef8022944)" style="fill: #ff7f0e"/>
   </g>
   <g id="patch_39">
    <path d="M 554.478457 199.08 
L 559.155508 199.08 
L 559.155508 94.489593 
L 554.478457 94.489593 
z
" clip-path="url(#p6ef8022944)" style="fill: #ff7f0e"/>
   </g>
   <g id="patch_40">
    <path d="M 601.248965 199.08 
L 605.926016 199.08 
L 605.926016 134.613954 
L 601.248965 134.613954 
z
" clip-path="url(#p6ef8022944)" style="fill: #ff7f0e"/>
   </g>
   <g id="patch_41">
    <path d="M 648.019473 199.08 
L 652.696524 199.08 
L 652.696524 150.68735 
L 648.019473 150.68735 
z
" clip-path="url(#p6ef8022944)" style="fill: #ff7f0e"/>
   </g>
   <g id="patch_42">
    <path d="M 91.450425 199.08 
L 96.127476 199.08 
L 96.127476 131.849469 
L 91.450425 131.849469 
z
" clip-path="url(#p6ef8022944)" style="fill: #ffbb78"/>
   </g>
   <g id="patch_43">
    <path d="M 138.220933 199.08 
L 142.897984 199.08 
L 142.897984 113.233053 
L 138.220933 113.233053 
z
" clip-path="url(#p6ef8022944)" style="fill: #ffbb78"/>
   </g>
   <g id="patch_44">
    <path d="M 184.991442 199.08 
L 189.668492 199.08 
L 189.668492 134.703768 
L 184.991442 134.703768 
z
" clip-path="url(#p6ef8022944)" style="fill: #ffbb78"/>
   </g>
   <g id="patch_45">
    <path d="M 231.76195 199.08 
L 236.439001 199.08 
L 236.439001 132.403385 
L 231.76195 132.403385 
z
" clip-path="url(#p6ef8022944)" style="fill: #ffbb78"/>
   </g>
   <g id="patch_46">
    <path d="M 278.532458 199.08 
L 283.209509 199.08 
L 283.209509 160.721266 
L 278.532458 160.721266 
z
" clip-path="url(#p6ef8022944)" style="fill: #ffbb78"/>
   </g>
   <g id="patch_47">
    <path d="M 325.302966 199.08 
L 329.980017 199.08 
L 329.980017 151.573122 
L 325.302966 151.573122 
z
" clip-path="url(#p6ef8022944)" style="fill: #ffbb78"/>
   </g>
   <g id="patch_48">
    <path d="M 372.073475 199.08 
L 376.750525 199.08 
L 376.750525 124.861533 
L 372.073475 124.861533 
z
" clip-path="url(#p6ef8022944)" style="fill: #ffbb78"/>
   </g>
   <g id="patch_49">
    <path d="M 418.843983 199.08 
L 423.521034 199.08 
L 423.521034 155.96315 
L 418.843983 155.96315 
z
" clip-path="url(#p6ef8022944)" style="fill: #ffbb78"/>
   </g>
   <g id="patch_50">
    <path d="M 465.614491 199.08 
L 470.291542 199.08 
L 470.291542 154.711835 
L 465.614491 154.711835 
z
" clip-path="url(#p6ef8022944)" style="fill: #ffbb78"/>
   </g>
   <g id="patch_51">
    <path d="M 512.384999 199.08 
L 517.06205 199.08 
L 517.06205 138.870436 
L 512.384999 138.870436 
z
" clip-path="url(#p6ef8022944)" style="fill: #ffbb78"/>
   </g>
   <g id="patch_52">
    <path d="M 559.155508 199.08 
L 563.832558 199.08 
L 563.832558 151.220101 
L 559.155508 151.220101 
z
" clip-path="url(#p6ef8022944)" style="fill: #ffbb78"/>
   </g>
   <g id="patch_53">
    <path d="M 605.926016 199.08 
L 610.603067 199.08 
L 610.603067 185.087805 
L 605.926016 185.087805 
z
" clip-path="url(#p6ef8022944)" style="fill: #ffbb78"/>
   </g>
   <g id="patch_54">
    <path d="M 652.696524 199.08 
L 657.373575 199.08 
L 657.373575 199.08 
L 652.696524 199.08 
z
" clip-path="url(#p6ef8022944)" style="fill: #ffbb78"/>
   </g>
   <g id="patch_55">
    <path d="M 96.127476 199.08 
L 100.804527 199.08 
L 100.804527 107.287346 
L 96.127476 107.287346 
z
" clip-path="url(#p6ef8022944)" style="fill: #2ca02c"/>
   </g>
   <g id="patch_56">
    <path d="M 142.897984 199.08 
L 147.575035 199.08 
L 147.575035 87.753337 
L 142.897984 87.753337 
z
" clip-path="url(#p6ef8022944)" style="fill: #2ca02c"/>
   </g>
   <g id="patch_57">
    <path d="M 189.668492 199.08 
L 194.345543 199.08 
L 194.345543 65.303083 
L 189.668492 65.303083 
z
" clip-path="url(#p6ef8022944)" style="fill: #2ca02c"/>
   </g>
   <g id="patch_58">
    <path d="M 236.439001 199.08 
L 241.116052 199.08 
L 241.116052 58.18637 
L 236.439001 58.18637 
z
" clip-path="url(#p6ef8022944)" style="fill: #2ca02c"/>
   </g>
   <g id="patch_59">
    <path d="M 283.209509 199.08 
L 287.88656 199.08 
L 287.88656 141.244307 
L 283.209509 141.244307 
z
" clip-path="url(#p6ef8022944)" style="fill: #2ca02c"/>
   </g>
   <g id="patch_60">
    <path d="M 329.980017 199.08 
L 334.657068 199.08 
L 334.657068 185.553046 
L 329.980017 185.553046 
z
" clip-path="url(#p6ef8022944)" style="fill: #2ca02c"/>
   </g>
   <g id="patch_61">
    <path d="M 376.750525 199.08 
L 381.427576 199.08 
L 381.427576 128.379285 
L 376.750525 128.379285 
z
" clip-path="url(#p6ef8022944)" style="fill: #2ca02c"/>
   </g>
   <g id="patch_62">
    <path d="M 423.521034 199.08 
L 428.198084 199.08 
L 428.198084 145.843253 
L 423.521034 145.843253 
z
" clip-path="url(#p6ef8022944)" style="fill: #2ca02c"/>
   </g>
   <g id="patch_63">
    <path d="M 470.291542 199.08 
L 474.968593 199.08 
L 474.968593 111.180551 
L 470.291542 111.180551 
z
" clip-path="url(#p6ef8022944)" style="fill: #2ca02c"/>
   </g>
   <g id="patch_64">
    <path d="M 517.06205 199.08 
L 521.739101 199.08 
L 521.739101 120.608044 
L 517.06205 120.608044 
z
" clip-path="url(#p6ef8022944)" style="fill: #2ca02c"/>
   </g>
   <g id="patch_65">
    <path d="M 563.832558 199.08 
L 568.509609 199.08 
L 568.509609 122.639536 
L 563.832558 122.639536 
z
" clip-path="url(#p6ef8022944)" style="fill: #2ca02c"/>
   </g>
   <g id="patch_66">
    <path d="M 610.603067 199.08 
L 615.280117 199.08 
L 615.280117 161.398001 
L 610.603067 161.398001 
z
" clip-path="url(#p6ef8022944)" style="fill: #2ca02c"/>
   </g>
   <g id="patch_67">
    <path d="M 657.373575 199.08 
L 662.050626 199.08 
L 662.050626 199.08 
L 657.373575 199.08 
z
" clip-path="url(#p6ef8022944)" style="fill: #2ca02c"/>
   </g>
   <g id="patch_68">
    <path d="M 100.804527 199.08 
L 105.481578 199.08 
L 105.481578 72.80616 
L 100.804527 72.80616 
z
" clip-path="url(#p6ef8022944)" style="fill: #98df8a"/>
   </g>
   <g id="patch_69">
    <path d="M 147.575035 199.08 
L 152.252086 199.08 
L 152.252086 53.589828 
L 147.575035 53.589828 
z
" clip-path="url(#p6ef8022944)" style="fill: #98df8a"/>
   </g>
   <g id="patch_70">
    <path d="M 194.345543 199.08 
L 199.022594 199.08 
L 199.022594 111.964335 
L 194.345543 111.964335 
z
" clip-path="url(#p6ef8022944)" style="fill: #98df8a"/>
   </g>
   <g id="patch_71">
    <path d="M 241.116052 199.08 
L 245.793102 199.08 
L 245.793102 108.736882 
L 241.116052 108.736882 
z
" clip-path="url(#p6ef8022944)" style="fill: #98df8a"/>
   </g>
   <g id="patch_72">
    <path d="M 287.88656 199.08 
L 292.563611 199.08 
L 292.563611 137.681491 
L 287.88656 137.681491 
z
" clip-path="url(#p6ef8022944)" style="fill: #98df8a"/>
   </g>
   <g id="patch_73">
    <path d="M 334.657068 199.08 
L 339.334119 199.08 
L 339.334119 139.520623 
L 334.657068 139.520623 
z
" clip-path="url(#p6ef8022944)" style="fill: #98df8a"/>
   </g>
   <g id="patch_74">
    <path d="M 381.427576 199.08 
L 386.104627 199.08 
L 386.104627 139.136213 
L 381.427576 139.136213 
z
" clip-path="url(#p6ef8022944)" style="fill: #98df8a"/>
   </g>
   <g id="patch_75">
    <path d="M 428.198084 199.08 
L 432.875135 199.08 
L 432.875135 153.863848 
L 428.198084 153.863848 
z
" clip-path="url(#p6ef8022944)" style="fill: #98df8a"/>
   </g>
   <g id="patch_76">
    <path d="M 474.968593 199.08 
L 479.645644 199.08 
L 479.645644 141.283921 
L 474.968593 141.283921 
z
" clip-path="url(#p6ef8022944)" style="fill: #98df8a"/>
   </g>
   <g id="patch_77">
    <path d="M 521.739101 199.08 
L 526.416152 199.08 
L 526.416152 123.001574 
L 521.739101 123.001574 
z
" clip-path="url(#p6ef8022944)" style="fill: #98df8a"/>
   </g>
   <g id="patch_78">
    <path d="M 568.509609 199.08 
L 573.18666 199.08 
L 573.18666 137.300974 
L 568.509609 137.300974 
z
" clip-path="url(#p6ef8022944)" style="fill: #98df8a"/>
   </g>
   <g id="patch_79">
    <path d="M 615.280117 199.08 
L 619.957168 199.08 
L 619.957168 188.497563 
L 615.280117 188.497563 
z
" clip-path="url(#p6ef8022944)" style="fill: #98df8a"/>
   </g>
   <g id="patch_80">
    <path d="M 662.050626 199.08 
L 666.727676 199.08 
L 666.727676 199.08 
L 662.050626 199.08 
z
" clip-path="url(#p6ef8022944)" style="fill: #98df8a"/>
   </g>
   <g id="patch_81">
    <path d="M 105.481578 199.08 
L 110.158628 199.08 
L 110.158628 130.746337 
L 105.481578 130.746337 
z
" clip-path="url(#p6ef8022944)" style="fill: #d62728"/>
   </g>
   <g id="patch_82">
    <path d="M 152.252086 199.08 
L 156.929137 199.08 
L 156.929137 101.336253 
L 152.252086 101.336253 
z
" clip-path="url(#p6ef8022944)" style="fill: #d62728"/>
   </g>
   <g id="patch_83">
    <path d="M 199.022594 199.08 
L 203.699645 199.08 
L 203.699645 121.115844 
L 199.022594 121.115844 
z
" clip-path="url(#p6ef8022944)" style="fill: #d62728"/>
   </g>
   <g id="patch_84">
    <path d="M 245.793102 199.08 
L 250.470153 199.08 
L 250.470153 114.411611 
L 245.793102 114.411611 
z
" clip-path="url(#p6ef8022944)" style="fill: #d62728"/>
   </g>
   <g id="patch_85">
    <path d="M 292.563611 199.08 
L 297.240661 199.08 
L 297.240661 141.441853 
L 292.563611 141.441853 
z
" clip-path="url(#p6ef8022944)" style="fill: #d62728"/>
   </g>
   <g id="patch_86">
    <path d="M 339.334119 199.08 
L 344.01117 199.08 
L 344.01117 154.427884 
L 339.334119 154.427884 
z
" clip-path="url(#p6ef8022944)" style="fill: #d62728"/>
   </g>
   <g id="patch_87">
    <path d="M 386.104627 199.08 
L 390.781678 199.08 
L 390.781678 90.13133 
L 386.104627 90.13133 
z
" clip-path="url(#p6ef8022944)" style="fill: #d62728"/>
   </g>
   <g id="patch_88">
    <path d="M 432.875135 199.08 
L 437.552186 199.08 
L 437.552186 159.427391 
L 432.875135 159.427391 
z
" clip-path="url(#p6ef8022944)" style="fill: #d62728"/>
   </g>
   <g id="patch_89">
    <path d="M 479.645644 199.08 
L 484.322694 199.08 
L 484.322694 153.717139 
L 479.645644 153.717139 
z
" clip-path="url(#p6ef8022944)" style="fill: #d62728"/>
   </g>
   <g id="patch_90">
    <path d="M 526.416152 199.08 
L 531.093203 199.08 
L 531.093203 146.550747 
L 526.416152 146.550747 
z
" clip-path="url(#p6ef8022944)" style="fill: #d62728"/>
   </g>
   <g id="patch_91">
    <path d="M 573.18666 199.08 
L 577.863711 199.08 
L 577.863711 151.136838 
L 573.18666 151.136838 
z
" clip-path="url(#p6ef8022944)" style="fill: #d62728"/>
   </g>
   <g id="patch_92">
    <path d="M 619.957168 199.08 
L 624.634219 199.08 
L 624.634219 158.896335 
L 619.957168 158.896335 
z
" clip-path="url(#p6ef8022944)" style="fill: #d62728"/>
   </g>
   <g id="patch_93">
    <path d="M 666.727676 199.08 
L 671.404727 199.08 
L 671.404727 199.08 
L 666.727676 199.08 
z
" clip-path="url(#p6ef8022944)" style="fill: #d62728"/>
   </g>
   <g id="matplotlib.axis_1">
    <g id="xtick_1">
     <g id="line2d_1">
      <defs>
       <path id="m5e9de1eeb0" d="M 0 0 
L 0 -3.5 
" style="stroke: #000000; stroke-width: 0.8"/>
      </defs>
      <g>
       <use xlink:href="#m5e9de1eeb0" x="93.788951" y="14.3" style="stroke: #000000; stroke-width: 0.8"/>
      </g>
     </g>
    </g>
    <g id="xtick_2">
     <g id="line2d_2">
      <g>
       <use xlink:href="#m5e9de1eeb0" x="140.559459" y="14.3" style="stroke: #000000; stroke-width: 0.8"/>
      </g>
     </g>
    </g>
    <g id="xtick_3">
     <g id="line2d_3">
      <g>
       <use xlink:href="#m5e9de1eeb0" x="187.329967" y="14.3" style="stroke: #000000; stroke-width: 0.8"/>
      </g>
     </g>
    </g>
    <g id="xtick_4">
     <g id="line2d_4">
      <g>
       <use xlink:href="#m5e9de1eeb0" x="234.100475" y="14.3" style="stroke: #000000; stroke-width: 0.8"/>
      </g>
     </g>
    </g>
    <g id="xtick_5">
     <g id="line2d_5">
      <g>
       <use xlink:href="#m5e9de1eeb0" x="280.870984" y="14.3" style="stroke: #000000; stroke-width: 0.8"/>
      </g>
     </g>
    </g>
    <g id="xtick_6">
     <g id="line2d_6">
      <g>
       <use xlink:href="#m5e9de1eeb0" x="327.641492" y="14.3" style="stroke: #000000; stroke-width: 0.8"/>
      </g>
     </g>
    </g>
    <g id="xtick_7">
     <g id="line2d_7">
      <g>
       <use xlink:href="#m5e9de1eeb0" x="374.412" y="14.3" style="stroke: #000000; stroke-width: 0.8"/>
      </g>
     </g>
    </g>
    <g id="xtick_8">
     <g id="line2d_8">
      <g>
       <use xlink:href="#m5e9de1eeb0" x="421.182508" y="14.3" style="stroke: #000000; stroke-width: 0.8"/>
      </g>
     </g>
    </g>
    <g id="xtick_9">
     <g id="line2d_9">
      <g>
       <use xlink:href="#m5e9de1eeb0" x="467.953016" y="14.3" style="stroke: #000000; stroke-width: 0.8"/>
      </g>
     </g>
    </g>
    <g id="xtick_10">
     <g id="line2d_10">
      <g>
       <use xlink:href="#m5e9de1eeb0" x="514.723525" y="14.3" style="stroke: #000000; stroke-width: 0.8"/>
      </g>
     </g>
    </g>
    <g id="xtick_11">
     <g id="line2d_11">
      <g>
       <use xlink:href="#m5e9de1eeb0" x="561.494033" y="14.3" style="stroke: #000000; stroke-width: 0.8"/>
      </g>
     </g>
    </g>
    <g id="xtick_12">
     <g id="line2d_12">
      <g>
       <use xlink:href="#m5e9de1eeb0" x="608.264541" y="14.3" style="stroke: #000000; stroke-width: 0.8"/>
      </g>
     </g>
    </g>
    <g id="xtick_13">
     <g id="line2d_13">
      <g>
       <use xlink:href="#m5e9de1eeb0" x="655.035049" y="14.3" style="stroke: #000000; stroke-width: 0.8"/>
      </g>
     </g>
    </g>
   </g>
   <g id="matplotlib.axis_2">
    <g id="ytick_1">
     <g id="line2d_14">
      <defs>
       <path id="mcdf0bf2c41" d="M 0 0 
L -3.5 0 
" style="stroke: #000000; stroke-width: 0.8"/>
      </defs>
      <g>
       <use xlink:href="#mcdf0bf2c41" x="47.72" y="199.08" style="stroke: #000000; stroke-width: 0.8"/>
      </g>
     </g>
     <g id="text_1">
      <!-- 0.0 -->
      <g transform="translate(24.816875 202.879219) scale(0.1 -0.1)">
       <defs>
        <path id="DejaVuSans-30" d="M 2034 4250 
Q 1547 4250 1301 3770 
Q 1056 3291 1056 2328 
Q 1056 1369 1301 889 
Q 1547 409 2034 409 
Q 2525 409 2770 889 
Q 3016 1369 3016 2328 
Q 3016 3291 2770 3770 
Q 2525 4250 2034 4250 
z
M 2034 4750 
Q 2819 4750 3233 4129 
Q 3647 3509 3647 2328 
Q 3647 1150 3233 529 
Q 2819 -91 2034 -91 
Q 1250 -91 836 529 
Q 422 1150 422 2328 
Q 422 3509 836 4129 
Q 1250 4750 2034 4750 
z
" transform="scale(0.015625)"/>
        <path id="DejaVuSans-2e" d="M 684 794 
L 1344 794 
L 1344 0 
L 684 0 
L 684 794 
z
" transform="scale(0.015625)"/>
       </defs>
       <use xlink:href="#DejaVuSans-30"/>
       <use xlink:href="#DejaVuSans-2e" x="63.623047"/>
       <use xlink:href="#DejaVuSans-30" x="95.410156"/>
      </g>
     </g>
    </g>
    <g id="ytick_2">
     <g id="line2d_15">
      <g>
       <use xlink:href="#mcdf0bf2c41" x="47.72" y="174.442667" style="stroke: #000000; stroke-width: 0.8"/>
      </g>
     </g>
     <g id="text_2">
      <!-- 0.1 -->
      <g transform="translate(24.816875 178.241885) scale(0.1 -0.1)">
       <defs>
        <path id="DejaVuSans-31" d="M 794 531 
L 1825 531 
L 1825 4091 
L 703 3866 
L 703 4441 
L 1819 4666 
L 2450 4666 
L 2450 531 
L 3481 531 
L 3481 0 
L 794 0 
L 794 531 
z
" transform="scale(0.015625)"/>
       </defs>
       <use xlink:href="#DejaVuSans-30"/>
       <use xlink:href="#DejaVuSans-2e" x="63.623047"/>
       <use xlink:href="#DejaVuSans-31" x="95.410156"/>
      </g>
     </g>
    </g>
    <g id="ytick_3">
     <g id="line2d_16">
      <g>
       <use xlink:href="#mcdf0bf2c41" x="47.72" y="149.805333" style="stroke: #000000; stroke-width: 0.8"/>
      </g>
     </g>
     <g id="text_3">
      <!-- 0.2 -->
      <g transform="translate(24.816875 153.604552) scale(0.1 -0.1)">
       <defs>
        <path id="DejaVuSans-32" d="M 1228 531 
L 3431 531 
L 3431 0 
L 469 0 
L 469 531 
Q 828 903 1448 1529 
Q 2069 2156 2228 2338 
Q 2531 2678 2651 2914 
Q 2772 3150 2772 3378 
Q 2772 3750 2511 3984 
Q 2250 4219 1831 4219 
Q 1534 4219 1204 4116 
Q 875 4013 500 3803 
L 500 4441 
Q 881 4594 1212 4672 
Q 1544 4750 1819 4750 
Q 2544 4750 2975 4387 
Q 3406 4025 3406 3419 
Q 3406 3131 3298 2873 
Q 3191 2616 2906 2266 
Q 2828 2175 2409 1742 
Q 1991 1309 1228 531 
z
" transform="scale(0.015625)"/>
       </defs>
       <use xlink:href="#DejaVuSans-30"/>
       <use xlink:href="#DejaVuSans-2e" x="63.623047"/>
       <use xlink:href="#DejaVuSans-32" x="95.410156"/>
      </g>
     </g>
    </g>
    <g id="ytick_4">
     <g id="line2d_17">
      <g>
       <use xlink:href="#mcdf0bf2c41" x="47.72" y="125.168" style="stroke: #000000; stroke-width: 0.8"/>
      </g>
     </g>
     <g id="text_4">
      <!-- 0.3 -->
      <g transform="translate(24.816875 128.967219) scale(0.1 -0.1)">
       <defs>
        <path id="DejaVuSans-33" d="M 2597 2516 
Q 3050 2419 3304 2112 
Q 3559 1806 3559 1356 
Q 3559 666 3084 287 
Q 2609 -91 1734 -91 
Q 1441 -91 1130 -33 
Q 819 25 488 141 
L 488 750 
Q 750 597 1062 519 
Q 1375 441 1716 441 
Q 2309 441 2620 675 
Q 2931 909 2931 1356 
Q 2931 1769 2642 2001 
Q 2353 2234 1838 2234 
L 1294 2234 
L 1294 2753 
L 1863 2753 
Q 2328 2753 2575 2939 
Q 2822 3125 2822 3475 
Q 2822 3834 2567 4026 
Q 2313 4219 1838 4219 
Q 1578 4219 1281 4162 
Q 984 4106 628 3988 
L 628 4550 
Q 988 4650 1302 4700 
Q 1616 4750 1894 4750 
Q 2613 4750 3031 4423 
Q 3450 4097 3450 3541 
Q 3450 3153 3228 2886 
Q 3006 2619 2597 2516 
z
" transform="scale(0.015625)"/>
       </defs>
       <use xlink:href="#DejaVuSans-30"/>
       <use xlink:href="#DejaVuSans-2e" x="63.623047"/>
       <use xlink:href="#DejaVuSans-33" x="95.410156"/>
      </g>
     </g>
    </g>
    <g id="ytick_5">
     <g id="line2d_18">
      <g>
       <use xlink:href="#mcdf0bf2c41" x="47.72" y="100.530667" style="stroke: #000000; stroke-width: 0.8"/>
      </g>
     </g>
     <g id="text_5">
      <!-- 0.4 -->
      <g transform="translate(24.816875 104.329885) scale(0.1 -0.1)">
       <defs>
        <path id="DejaVuSans-34" d="M 2419 4116 
L 825 1625 
L 2419 1625 
L 2419 4116 
z
M 2253 4666 
L 3047 4666 
L 3047 1625 
L 3713 1625 
L 3713 1100 
L 3047 1100 
L 3047 0 
L 2419 0 
L 2419 1100 
L 313 1100 
L 313 1709 
L 2253 4666 
z
" transform="scale(0.015625)"/>
       </defs>
       <use xlink:href="#DejaVuSans-30"/>
       <use xlink:href="#DejaVuSans-2e" x="63.623047"/>
       <use xlink:href="#DejaVuSans-34" x="95.410156"/>
      </g>
     </g>
    </g>
    <g id="ytick_6">
     <g id="line2d_19">
      <g>
       <use xlink:href="#mcdf0bf2c41" x="47.72" y="75.893333" style="stroke: #000000; stroke-width: 0.8"/>
      </g>
     </g>
     <g id="text_6">
      <!-- 0.5 -->
      <g transform="translate(24.816875 79.692552) scale(0.1 -0.1)">
       <defs>
        <path id="DejaVuSans-35" d="M 691 4666 
L 3169 4666 
L 3169 4134 
L 1269 4134 
L 1269 2991 
Q 1406 3038 1543 3061 
Q 1681 3084 1819 3084 
Q 2600 3084 3056 2656 
Q 3513 2228 3513 1497 
Q 3513 744 3044 326 
Q 2575 -91 1722 -91 
Q 1428 -91 1123 -41 
Q 819 9 494 109 
L 494 744 
Q 775 591 1075 516 
Q 1375 441 1709 441 
Q 2250 441 2565 725 
Q 2881 1009 2881 1497 
Q 2881 1984 2565 2268 
Q 2250 2553 1709 2553 
Q 1456 2553 1204 2497 
Q 953 2441 691 2322 
L 691 4666 
z
" transform="scale(0.015625)"/>
       </defs>
       <use xlink:href="#DejaVuSans-30"/>
       <use xlink:href="#DejaVuSans-2e" x="63.623047"/>
       <use xlink:href="#DejaVuSans-35" x="95.410156"/>
      </g>
     </g>
    </g>
    <g id="ytick_7">
     <g id="line2d_20">
      <g>
       <use xlink:href="#mcdf0bf2c41" x="47.72" y="51.256" style="stroke: #000000; stroke-width: 0.8"/>
      </g>
     </g>
     <g id="text_7">
      <!-- 0.6 -->
      <g transform="translate(24.816875 55.055219) scale(0.1 -0.1)">
       <defs>
        <path id="DejaVuSans-36" d="M 2113 2584 
Q 1688 2584 1439 2293 
Q 1191 2003 1191 1497 
Q 1191 994 1439 701 
Q 1688 409 2113 409 
Q 2538 409 2786 701 
Q 3034 994 3034 1497 
Q 3034 2003 2786 2293 
Q 2538 2584 2113 2584 
z
M 3366 4563 
L 3366 3988 
Q 3128 4100 2886 4159 
Q 2644 4219 2406 4219 
Q 1781 4219 1451 3797 
Q 1122 3375 1075 2522 
Q 1259 2794 1537 2939 
Q 1816 3084 2150 3084 
Q 2853 3084 3261 2657 
Q 3669 2231 3669 1497 
Q 3669 778 3244 343 
Q 2819 -91 2113 -91 
Q 1303 -91 875 529 
Q 447 1150 447 2328 
Q 447 3434 972 4092 
Q 1497 4750 2381 4750 
Q 2619 4750 2861 4703 
Q 3103 4656 3366 4563 
z
" transform="scale(0.015625)"/>
       </defs>
       <use xlink:href="#DejaVuSans-30"/>
       <use xlink:href="#DejaVuSans-2e" x="63.623047"/>
       <use xlink:href="#DejaVuSans-36" x="95.410156"/>
      </g>
     </g>
    </g>
    <g id="ytick_8">
     <g id="line2d_21">
      <g>
       <use xlink:href="#mcdf0bf2c41" x="47.72" y="26.618667" style="stroke: #000000; stroke-width: 0.8"/>
      </g>
     </g>
     <g id="text_8">
      <!-- 0.7 -->
      <g transform="translate(24.816875 30.417885) scale(0.1 -0.1)">
       <defs>
        <path id="DejaVuSans-37" d="M 525 4666 
L 3525 4666 
L 3525 4397 
L 1831 0 
L 1172 0 
L 2766 4134 
L 525 4134 
L 525 4666 
z
" transform="scale(0.015625)"/>
       </defs>
       <use xlink:href="#DejaVuSans-30"/>
       <use xlink:href="#DejaVuSans-2e" x="63.623047"/>
       <use xlink:href="#DejaVuSans-37" x="95.410156"/>
      </g>
     </g>
    </g>
    <g id="text_9">
     <!-- Spearman -->
     <g transform="translate(18.737188 132.250156) rotate(-90) scale(0.1 -0.1)">
      <defs>
       <path id="DejaVuSans-53" d="M 3425 4513 
L 3425 3897 
Q 3066 4069 2747 4153 
Q 2428 4238 2131 4238 
Q 1616 4238 1336 4038 
Q 1056 3838 1056 3469 
Q 1056 3159 1242 3001 
Q 1428 2844 1947 2747 
L 2328 2669 
Q 3034 2534 3370 2195 
Q 3706 1856 3706 1288 
Q 3706 609 3251 259 
Q 2797 -91 1919 -91 
Q 1588 -91 1214 -16 
Q 841 59 441 206 
L 441 856 
Q 825 641 1194 531 
Q 1563 422 1919 422 
Q 2459 422 2753 634 
Q 3047 847 3047 1241 
Q 3047 1584 2836 1778 
Q 2625 1972 2144 2069 
L 1759 2144 
Q 1053 2284 737 2584 
Q 422 2884 422 3419 
Q 422 4038 858 4394 
Q 1294 4750 2059 4750 
Q 2388 4750 2728 4690 
Q 3069 4631 3425 4513 
z
" transform="scale(0.015625)"/>
       <path id="DejaVuSans-70" d="M 1159 525 
L 1159 -1331 
L 581 -1331 
L 581 3500 
L 1159 3500 
L 1159 2969 
Q 1341 3281 1617 3432 
Q 1894 3584 2278 3584 
Q 2916 3584 3314 3078 
Q 3713 2572 3713 1747 
Q 3713 922 3314 415 
Q 2916 -91 2278 -91 
Q 1894 -91 1617 61 
Q 1341 213 1159 525 
z
M 3116 1747 
Q 3116 2381 2855 2742 
Q 2594 3103 2138 3103 
Q 1681 3103 1420 2742 
Q 1159 2381 1159 1747 
Q 1159 1113 1420 752 
Q 1681 391 2138 391 
Q 2594 391 2855 752 
Q 3116 1113 3116 1747 
z
" transform="scale(0.015625)"/>
       <path id="DejaVuSans-65" d="M 3597 1894 
L 3597 1613 
L 953 1613 
Q 991 1019 1311 708 
Q 1631 397 2203 397 
Q 2534 397 2845 478 
Q 3156 559 3463 722 
L 3463 178 
Q 3153 47 2828 -22 
Q 2503 -91 2169 -91 
Q 1331 -91 842 396 
Q 353 884 353 1716 
Q 353 2575 817 3079 
Q 1281 3584 2069 3584 
Q 2775 3584 3186 3129 
Q 3597 2675 3597 1894 
z
M 3022 2063 
Q 3016 2534 2758 2815 
Q 2500 3097 2075 3097 
Q 1594 3097 1305 2825 
Q 1016 2553 972 2059 
L 3022 2063 
z
" transform="scale(0.015625)"/>
       <path id="DejaVuSans-61" d="M 2194 1759 
Q 1497 1759 1228 1600 
Q 959 1441 959 1056 
Q 959 750 1161 570 
Q 1363 391 1709 391 
Q 2188 391 2477 730 
Q 2766 1069 2766 1631 
L 2766 1759 
L 2194 1759 
z
M 3341 1997 
L 3341 0 
L 2766 0 
L 2766 531 
Q 2569 213 2275 61 
Q 1981 -91 1556 -91 
Q 1019 -91 701 211 
Q 384 513 384 1019 
Q 384 1609 779 1909 
Q 1175 2209 1959 2209 
L 2766 2209 
L 2766 2266 
Q 2766 2663 2505 2880 
Q 2244 3097 1772 3097 
Q 1472 3097 1187 3025 
Q 903 2953 641 2809 
L 641 3341 
Q 956 3463 1253 3523 
Q 1550 3584 1831 3584 
Q 2591 3584 2966 3190 
Q 3341 2797 3341 1997 
z
" transform="scale(0.015625)"/>
       <path id="DejaVuSans-72" d="M 2631 2963 
Q 2534 3019 2420 3045 
Q 2306 3072 2169 3072 
Q 1681 3072 1420 2755 
Q 1159 2438 1159 1844 
L 1159 0 
L 581 0 
L 581 3500 
L 1159 3500 
L 1159 2956 
Q 1341 3275 1631 3429 
Q 1922 3584 2338 3584 
Q 2397 3584 2469 3576 
Q 2541 3569 2628 3553 
L 2631 2963 
z
" transform="scale(0.015625)"/>
       <path id="DejaVuSans-6d" d="M 3328 2828 
Q 3544 3216 3844 3400 
Q 4144 3584 4550 3584 
Q 5097 3584 5394 3201 
Q 5691 2819 5691 2113 
L 5691 0 
L 5113 0 
L 5113 2094 
Q 5113 2597 4934 2840 
Q 4756 3084 4391 3084 
Q 3944 3084 3684 2787 
Q 3425 2491 3425 1978 
L 3425 0 
L 2847 0 
L 2847 2094 
Q 2847 2600 2669 2842 
Q 2491 3084 2119 3084 
Q 1678 3084 1418 2786 
Q 1159 2488 1159 1978 
L 1159 0 
L 581 0 
L 581 3500 
L 1159 3500 
L 1159 2956 
Q 1356 3278 1631 3431 
Q 1906 3584 2284 3584 
Q 2666 3584 2933 3390 
Q 3200 3197 3328 2828 
z
" transform="scale(0.015625)"/>
       <path id="DejaVuSans-6e" d="M 3513 2113 
L 3513 0 
L 2938 0 
L 2938 2094 
Q 2938 2591 2744 2837 
Q 2550 3084 2163 3084 
Q 1697 3084 1428 2787 
Q 1159 2491 1159 1978 
L 1159 0 
L 581 0 
L 581 3500 
L 1159 3500 
L 1159 2956 
Q 1366 3272 1645 3428 
Q 1925 3584 2291 3584 
Q 2894 3584 3203 3211 
Q 3513 2838 3513 2113 
z
" transform="scale(0.015625)"/>
      </defs>
      <use xlink:href="#DejaVuSans-53"/>
      <use xlink:href="#DejaVuSans-70" x="63.476562"/>
      <use xlink:href="#DejaVuSans-65" x="126.953125"/>
      <use xlink:href="#DejaVuSans-61" x="188.476562"/>
      <use xlink:href="#DejaVuSans-72" x="249.755859"/>
      <use xlink:href="#DejaVuSans-6d" x="289.119141"/>
      <use xlink:href="#DejaVuSans-61" x="386.53125"/>
      <use xlink:href="#DejaVuSans-6e" x="447.810547"/>
     </g>
    </g>
   </g>
   <g id="LineCollection_1">
    <path d="M 79.757798 47.106322 
L 79.757798 31.793257 
" clip-path="url(#p6ef8022944)" style="fill: none; stroke: #000000; stroke-width: 0.5"/>
    <path d="M 126.528306 45.672771 
L 126.528306 35.641267 
" clip-path="url(#p6ef8022944)" style="fill: none; stroke: #000000; stroke-width: 0.5"/>
    <path d="M 173.298815 49.286532 
L 173.298815 35.516153 
" clip-path="url(#p6ef8022944)" style="fill: none; stroke: #000000; stroke-width: 0.5"/>
    <path d="M 220.069323 47.129458 
L 220.069323 37.604243 
" clip-path="url(#p6ef8022944)" style="fill: none; stroke: #000000; stroke-width: 0.5"/>
    <path d="M 266.839831 97.068984 
L 266.839831 84.65697 
" clip-path="url(#p6ef8022944)" style="fill: none; stroke: #000000; stroke-width: 0.5"/>
    <path d="M 313.610339 104.550711 
L 313.610339 98.816677 
" clip-path="url(#p6ef8022944)" style="fill: none; stroke: #000000; stroke-width: 0.5"/>
    <path d="M 360.380848 102.575913 
L 360.380848 74.064895 
" clip-path="url(#p6ef8022944)" style="fill: none; stroke: #000000; stroke-width: 0.5"/>
    <path d="M 407.151356 112.814455 
L 407.151356 101.2751 
" clip-path="url(#p6ef8022944)" style="fill: none; stroke: #000000; stroke-width: 0.5"/>
    <path d="M 453.921864 68.475123 
L 453.921864 56.318882 
" clip-path="url(#p6ef8022944)" style="fill: none; stroke: #000000; stroke-width: 0.5"/>
    <path d="M 500.692372 76.704706 
L 500.692372 66.961496 
" clip-path="url(#p6ef8022944)" style="fill: none; stroke: #000000; stroke-width: 0.5"/>
    <path d="M 547.46288 91.086442 
L 547.46288 74.398582 
" clip-path="url(#p6ef8022944)" style="fill: none; stroke: #000000; stroke-width: 0.5"/>
    <path d="M 594.233389 76.819069 
L 594.233389 64.550933 
" clip-path="url(#p6ef8022944)" style="fill: none; stroke: #000000; stroke-width: 0.5"/>
    <path d="M 641.003897 127.124695 
L 641.003897 96.957763 
" clip-path="url(#p6ef8022944)" style="fill: none; stroke: #000000; stroke-width: 0.5"/>
   </g>
   <g id="line2d_22">
    <defs>
     <path id="m9778300bc5" d="M 1 0 
L -1 -0 
" style="stroke: #000000"/>
    </defs>
    <g clip-path="url(#p6ef8022944)">
     <use xlink:href="#m9778300bc5" x="79.757798" y="47.106322" style="stroke: #000000"/>
     <use xlink:href="#m9778300bc5" x="126.528306" y="45.672771" style="stroke: #000000"/>
     <use xlink:href="#m9778300bc5" x="173.298815" y="49.286532" style="stroke: #000000"/>
     <use xlink:href="#m9778300bc5" x="220.069323" y="47.129458" style="stroke: #000000"/>
     <use xlink:href="#m9778300bc5" x="266.839831" y="97.068984" style="stroke: #000000"/>
     <use xlink:href="#m9778300bc5" x="313.610339" y="104.550711" style="stroke: #000000"/>
     <use xlink:href="#m9778300bc5" x="360.380848" y="102.575913" style="stroke: #000000"/>
     <use xlink:href="#m9778300bc5" x="407.151356" y="112.814455" style="stroke: #000000"/>
     <use xlink:href="#m9778300bc5" x="453.921864" y="68.475123" style="stroke: #000000"/>
     <use xlink:href="#m9778300bc5" x="500.692372" y="76.704706" style="stroke: #000000"/>
     <use xlink:href="#m9778300bc5" x="547.46288" y="91.086442" style="stroke: #000000"/>
     <use xlink:href="#m9778300bc5" x="594.233389" y="76.819069" style="stroke: #000000"/>
     <use xlink:href="#m9778300bc5" x="641.003897" y="127.124695" style="stroke: #000000"/>
    </g>
   </g>
   <g id="line2d_23">
    <g clip-path="url(#p6ef8022944)">
     <use xlink:href="#m9778300bc5" x="79.757798" y="31.793257" style="stroke: #000000"/>
     <use xlink:href="#m9778300bc5" x="126.528306" y="35.641267" style="stroke: #000000"/>
     <use xlink:href="#m9778300bc5" x="173.298815" y="35.516153" style="stroke: #000000"/>
     <use xlink:href="#m9778300bc5" x="220.069323" y="37.604243" style="stroke: #000000"/>
     <use xlink:href="#m9778300bc5" x="266.839831" y="84.65697" style="stroke: #000000"/>
     <use xlink:href="#m9778300bc5" x="313.610339" y="98.816677" style="stroke: #000000"/>
     <use xlink:href="#m9778300bc5" x="360.380848" y="74.064895" style="stroke: #000000"/>
     <use xlink:href="#m9778300bc5" x="407.151356" y="101.2751" style="stroke: #000000"/>
     <use xlink:href="#m9778300bc5" x="453.921864" y="56.318882" style="stroke: #000000"/>
     <use xlink:href="#m9778300bc5" x="500.692372" y="66.961496" style="stroke: #000000"/>
     <use xlink:href="#m9778300bc5" x="547.46288" y="74.398582" style="stroke: #000000"/>
     <use xlink:href="#m9778300bc5" x="594.233389" y="64.550933" style="stroke: #000000"/>
     <use xlink:href="#m9778300bc5" x="641.003897" y="96.957763" style="stroke: #000000"/>
    </g>
   </g>
   <g id="LineCollection_2">
    <path d="M 84.434849 56.891994 
L 84.434849 33.252065 
" clip-path="url(#p6ef8022944)" style="fill: none; stroke: #000000; stroke-width: 0.5"/>
    <path d="M 131.205357 63.425971 
L 131.205357 47.75837 
" clip-path="url(#p6ef8022944)" style="fill: none; stroke: #000000; stroke-width: 0.5"/>
    <path d="M 177.975865 53.781852 
L 177.975865 37.584219 
" clip-path="url(#p6ef8022944)" style="fill: none; stroke: #000000; stroke-width: 0.5"/>
    <path d="M 224.746374 52.801311 
L 224.746374 37.559556 
" clip-path="url(#p6ef8022944)" style="fill: none; stroke: #000000; stroke-width: 0.5"/>
    <path d="M 271.516882 99.826502 
L 271.516882 88.374143 
" clip-path="url(#p6ef8022944)" style="fill: none; stroke: #000000; stroke-width: 0.5"/>
    <path d="M 318.28739 115.29091 
L 318.28739 108.43677 
" clip-path="url(#p6ef8022944)" style="fill: none; stroke: #000000; stroke-width: 0.5"/>
    <path d="M 365.057898 89.408871 
L 365.057898 72.617072 
" clip-path="url(#p6ef8022944)" style="fill: none; stroke: #000000; stroke-width: 0.5"/>
    <path d="M 411.828407 120.865896 
L 411.828407 108.075043 
" clip-path="url(#p6ef8022944)" style="fill: none; stroke: #000000; stroke-width: 0.5"/>
    <path d="M 458.598915 86.206442 
L 458.598915 75.691386 
" clip-path="url(#p6ef8022944)" style="fill: none; stroke: #000000; stroke-width: 0.5"/>
    <path d="M 505.369423 85.469301 
L 505.369423 76.743886 
" clip-path="url(#p6ef8022944)" style="fill: none; stroke: #000000; stroke-width: 0.5"/>
    <path d="M 552.139931 99.872812 
L 552.139931 91.688366 
" clip-path="url(#p6ef8022944)" style="fill: none; stroke: #000000; stroke-width: 0.5"/>
    <path d="M 598.91044 153.669379 
L 598.91044 131.336276 
" clip-path="url(#p6ef8022944)" style="fill: none; stroke: #000000; stroke-width: 0.5"/>
    <path d="M 645.680948 164.059176 
L 645.680948 140.331134 
" clip-path="url(#p6ef8022944)" style="fill: none; stroke: #000000; stroke-width: 0.5"/>
   </g>
   <g id="line2d_24">
    <g clip-path="url(#p6ef8022944)">
     <use xlink:href="#m9778300bc5" x="84.434849" y="56.891994" style="stroke: #000000"/>
     <use xlink:href="#m9778300bc5" x="131.205357" y="63.425971" style="stroke: #000000"/>
     <use xlink:href="#m9778300bc5" x="177.975865" y="53.781852" style="stroke: #000000"/>
     <use xlink:href="#m9778300bc5" x="224.746374" y="52.801311" style="stroke: #000000"/>
     <use xlink:href="#m9778300bc5" x="271.516882" y="99.826502" style="stroke: #000000"/>
     <use xlink:href="#m9778300bc5" x="318.28739" y="115.29091" style="stroke: #000000"/>
     <use xlink:href="#m9778300bc5" x="365.057898" y="89.408871" style="stroke: #000000"/>
     <use xlink:href="#m9778300bc5" x="411.828407" y="120.865896" style="stroke: #000000"/>
     <use xlink:href="#m9778300bc5" x="458.598915" y="86.206442" style="stroke: #000000"/>
     <use xlink:href="#m9778300bc5" x="505.369423" y="85.469301" style="stroke: #000000"/>
     <use xlink:href="#m9778300bc5" x="552.139931" y="99.872812" style="stroke: #000000"/>
     <use xlink:href="#m9778300bc5" x="598.91044" y="153.669379" style="stroke: #000000"/>
     <use xlink:href="#m9778300bc5" x="645.680948" y="164.059176" style="stroke: #000000"/>
    </g>
   </g>
   <g id="line2d_25">
    <g clip-path="url(#p6ef8022944)">
     <use xlink:href="#m9778300bc5" x="84.434849" y="33.252065" style="stroke: #000000"/>
     <use xlink:href="#m9778300bc5" x="131.205357" y="47.75837" style="stroke: #000000"/>
     <use xlink:href="#m9778300bc5" x="177.975865" y="37.584219" style="stroke: #000000"/>
     <use xlink:href="#m9778300bc5" x="224.746374" y="37.559556" style="stroke: #000000"/>
     <use xlink:href="#m9778300bc5" x="271.516882" y="88.374143" style="stroke: #000000"/>
     <use xlink:href="#m9778300bc5" x="318.28739" y="108.43677" style="stroke: #000000"/>
     <use xlink:href="#m9778300bc5" x="365.057898" y="72.617072" style="stroke: #000000"/>
     <use xlink:href="#m9778300bc5" x="411.828407" y="108.075043" style="stroke: #000000"/>
     <use xlink:href="#m9778300bc5" x="458.598915" y="75.691386" style="stroke: #000000"/>
     <use xlink:href="#m9778300bc5" x="505.369423" y="76.743886" style="stroke: #000000"/>
     <use xlink:href="#m9778300bc5" x="552.139931" y="91.688366" style="stroke: #000000"/>
     <use xlink:href="#m9778300bc5" x="598.91044" y="131.336276" style="stroke: #000000"/>
     <use xlink:href="#m9778300bc5" x="645.680948" y="140.331134" style="stroke: #000000"/>
    </g>
   </g>
   <g id="LineCollection_3">
    <path d="M 89.1119 58.284207 
L 89.1119 30.706825 
" clip-path="url(#p6ef8022944)" style="fill: none; stroke: #000000; stroke-width: 0.5"/>
    <path d="M 135.882408 60.645762 
L 135.882408 49.898009 
" clip-path="url(#p6ef8022944)" style="fill: none; stroke: #000000; stroke-width: 0.5"/>
    <path d="M 182.652916 54.546212 
L 182.652916 39.391996 
" clip-path="url(#p6ef8022944)" style="fill: none; stroke: #000000; stroke-width: 0.5"/>
    <path d="M 229.423424 50.299013 
L 229.423424 37.450297 
" clip-path="url(#p6ef8022944)" style="fill: none; stroke: #000000; stroke-width: 0.5"/>
    <path d="M 276.193933 104.254308 
L 276.193933 95.998921 
" clip-path="url(#p6ef8022944)" style="fill: none; stroke: #000000; stroke-width: 0.5"/>
    <path d="M 322.964441 124.134806 
L 322.964441 114.907441 
" clip-path="url(#p6ef8022944)" style="fill: none; stroke: #000000; stroke-width: 0.5"/>
    <path d="M 369.734949 100.709433 
L 369.734949 83.135332 
" clip-path="url(#p6ef8022944)" style="fill: none; stroke: #000000; stroke-width: 0.5"/>
    <path d="M 416.505457 127.885557 
L 416.505457 113.206516 
" clip-path="url(#p6ef8022944)" style="fill: none; stroke: #000000; stroke-width: 0.5"/>
    <path d="M 463.275966 88.413606 
L 463.275966 77.840103 
" clip-path="url(#p6ef8022944)" style="fill: none; stroke: #000000; stroke-width: 0.5"/>
    <path d="M 510.046474 90.092776 
L 510.046474 74.879791 
" clip-path="url(#p6ef8022944)" style="fill: none; stroke: #000000; stroke-width: 0.5"/>
    <path d="M 556.816982 98.91901 
L 556.816982 90.060175 
" clip-path="url(#p6ef8022944)" style="fill: none; stroke: #000000; stroke-width: 0.5"/>
    <path d="M 603.58749 146.322247 
L 603.58749 122.90566 
" clip-path="url(#p6ef8022944)" style="fill: none; stroke: #000000; stroke-width: 0.5"/>
    <path d="M 650.357999 165.621252 
L 650.357999 135.753448 
" clip-path="url(#p6ef8022944)" style="fill: none; stroke: #000000; stroke-width: 0.5"/>
   </g>
   <g id="line2d_26">
    <g clip-path="url(#p6ef8022944)">
     <use xlink:href="#m9778300bc5" x="89.1119" y="58.284207" style="stroke: #000000"/>
     <use xlink:href="#m9778300bc5" x="135.882408" y="60.645762" style="stroke: #000000"/>
     <use xlink:href="#m9778300bc5" x="182.652916" y="54.546212" style="stroke: #000000"/>
     <use xlink:href="#m9778300bc5" x="229.423424" y="50.299013" style="stroke: #000000"/>
     <use xlink:href="#m9778300bc5" x="276.193933" y="104.254308" style="stroke: #000000"/>
     <use xlink:href="#m9778300bc5" x="322.964441" y="124.134806" style="stroke: #000000"/>
     <use xlink:href="#m9778300bc5" x="369.734949" y="100.709433" style="stroke: #000000"/>
     <use xlink:href="#m9778300bc5" x="416.505457" y="127.885557" style="stroke: #000000"/>
     <use xlink:href="#m9778300bc5" x="463.275966" y="88.413606" style="stroke: #000000"/>
     <use xlink:href="#m9778300bc5" x="510.046474" y="90.092776" style="stroke: #000000"/>
     <use xlink:href="#m9778300bc5" x="556.816982" y="98.91901" style="stroke: #000000"/>
     <use xlink:href="#m9778300bc5" x="603.58749" y="146.322247" style="stroke: #000000"/>
     <use xlink:href="#m9778300bc5" x="650.357999" y="165.621252" style="stroke: #000000"/>
    </g>
   </g>
   <g id="line2d_27">
    <g clip-path="url(#p6ef8022944)">
     <use xlink:href="#m9778300bc5" x="89.1119" y="30.706825" style="stroke: #000000"/>
     <use xlink:href="#m9778300bc5" x="135.882408" y="49.898009" style="stroke: #000000"/>
     <use xlink:href="#m9778300bc5" x="182.652916" y="39.391996" style="stroke: #000000"/>
     <use xlink:href="#m9778300bc5" x="229.423424" y="37.450297" style="stroke: #000000"/>
     <use xlink:href="#m9778300bc5" x="276.193933" y="95.998921" style="stroke: #000000"/>
     <use xlink:href="#m9778300bc5" x="322.964441" y="114.907441" style="stroke: #000000"/>
     <use xlink:href="#m9778300bc5" x="369.734949" y="83.135332" style="stroke: #000000"/>
     <use xlink:href="#m9778300bc5" x="416.505457" y="113.206516" style="stroke: #000000"/>
     <use xlink:href="#m9778300bc5" x="463.275966" y="77.840103" style="stroke: #000000"/>
     <use xlink:href="#m9778300bc5" x="510.046474" y="74.879791" style="stroke: #000000"/>
     <use xlink:href="#m9778300bc5" x="556.816982" y="90.060175" style="stroke: #000000"/>
     <use xlink:href="#m9778300bc5" x="603.58749" y="122.90566" style="stroke: #000000"/>
     <use xlink:href="#m9778300bc5" x="650.357999" y="135.753448" style="stroke: #000000"/>
    </g>
   </g>
   <g id="LineCollection_4">
    <path d="M 93.788951 144.334252 
L 93.788951 119.364685 
" clip-path="url(#p6ef8022944)" style="fill: none; stroke: #000000; stroke-width: 0.5"/>
    <path d="M 140.559459 122.196381 
L 140.559459 104.269725 
" clip-path="url(#p6ef8022944)" style="fill: none; stroke: #000000; stroke-width: 0.5"/>
    <path d="M 187.329967 142.0249 
L 187.329967 127.382635 
" clip-path="url(#p6ef8022944)" style="fill: none; stroke: #000000; stroke-width: 0.5"/>
    <path d="M 234.100475 142.556522 
L 234.100475 122.250249 
" clip-path="url(#p6ef8022944)" style="fill: none; stroke: #000000; stroke-width: 0.5"/>
    <path d="M 280.870984 171.983139 
L 280.870984 149.459392 
" clip-path="url(#p6ef8022944)" style="fill: none; stroke: #000000; stroke-width: 0.5"/>
    <path d="M 327.641492 159.886116 
L 327.641492 143.260127 
" clip-path="url(#p6ef8022944)" style="fill: none; stroke: #000000; stroke-width: 0.5"/>
    <path d="M 374.412 130.759509 
L 374.412 118.963557 
" clip-path="url(#p6ef8022944)" style="fill: none; stroke: #000000; stroke-width: 0.5"/>
    <path d="M 421.182508 160.752959 
L 421.182508 151.173342 
" clip-path="url(#p6ef8022944)" style="fill: none; stroke: #000000; stroke-width: 0.5"/>
    <path d="M 467.953016 160.966013 
L 467.953016 148.457657 
" clip-path="url(#p6ef8022944)" style="fill: none; stroke: #000000; stroke-width: 0.5"/>
    <path d="M 514.723525 147.798244 
L 514.723525 129.942627 
" clip-path="url(#p6ef8022944)" style="fill: none; stroke: #000000; stroke-width: 0.5"/>
    <path d="M 561.494033 159.241857 
L 561.494033 143.198346 
" clip-path="url(#p6ef8022944)" style="fill: none; stroke: #000000; stroke-width: 0.5"/>
    <path d="M 608.264541 213.441214 
L 608.264541 156.734395 
" clip-path="url(#p6ef8022944)" style="fill: none; stroke: #000000; stroke-width: 0.5"/>
    <path d="M 655.035049 199.08 
L 655.035049 199.08 
" clip-path="url(#p6ef8022944)" style="fill: none; stroke: #000000; stroke-width: 0.5"/>
   </g>
   <g id="line2d_28">
    <g clip-path="url(#p6ef8022944)">
     <use xlink:href="#m9778300bc5" x="93.788951" y="144.334252" style="stroke: #000000"/>
     <use xlink:href="#m9778300bc5" x="140.559459" y="122.196381" style="stroke: #000000"/>
     <use xlink:href="#m9778300bc5" x="187.329967" y="142.0249" style="stroke: #000000"/>
     <use xlink:href="#m9778300bc5" x="234.100475" y="142.556522" style="stroke: #000000"/>
     <use xlink:href="#m9778300bc5" x="280.870984" y="171.983139" style="stroke: #000000"/>
     <use xlink:href="#m9778300bc5" x="327.641492" y="159.886116" style="stroke: #000000"/>
     <use xlink:href="#m9778300bc5" x="374.412" y="130.759509" style="stroke: #000000"/>
     <use xlink:href="#m9778300bc5" x="421.182508" y="160.752959" style="stroke: #000000"/>
     <use xlink:href="#m9778300bc5" x="467.953016" y="160.966013" style="stroke: #000000"/>
     <use xlink:href="#m9778300bc5" x="514.723525" y="147.798244" style="stroke: #000000"/>
     <use xlink:href="#m9778300bc5" x="561.494033" y="159.241857" style="stroke: #000000"/>
     <use xlink:href="#m9778300bc5" x="608.264541" y="213.441214" style="stroke: #000000"/>
     <use xlink:href="#m9778300bc5" x="655.035049" y="199.08" style="stroke: #000000"/>
    </g>
   </g>
   <g id="line2d_29">
    <g clip-path="url(#p6ef8022944)">
     <use xlink:href="#m9778300bc5" x="93.788951" y="119.364685" style="stroke: #000000"/>
     <use xlink:href="#m9778300bc5" x="140.559459" y="104.269725" style="stroke: #000000"/>
     <use xlink:href="#m9778300bc5" x="187.329967" y="127.382635" style="stroke: #000000"/>
     <use xlink:href="#m9778300bc5" x="234.100475" y="122.250249" style="stroke: #000000"/>
     <use xlink:href="#m9778300bc5" x="280.870984" y="149.459392" style="stroke: #000000"/>
     <use xlink:href="#m9778300bc5" x="327.641492" y="143.260127" style="stroke: #000000"/>
     <use xlink:href="#m9778300bc5" x="374.412" y="118.963557" style="stroke: #000000"/>
     <use xlink:href="#m9778300bc5" x="421.182508" y="151.173342" style="stroke: #000000"/>
     <use xlink:href="#m9778300bc5" x="467.953016" y="148.457657" style="stroke: #000000"/>
     <use xlink:href="#m9778300bc5" x="514.723525" y="129.942627" style="stroke: #000000"/>
     <use xlink:href="#m9778300bc5" x="561.494033" y="143.198346" style="stroke: #000000"/>
     <use xlink:href="#m9778300bc5" x="608.264541" y="156.734395" style="stroke: #000000"/>
     <use xlink:href="#m9778300bc5" x="655.035049" y="199.08" style="stroke: #000000"/>
    </g>
   </g>
   <g id="LineCollection_5">
    <path d="M 98.466001 121.909391 
L 98.466001 92.665302 
" clip-path="url(#p6ef8022944)" style="fill: none; stroke: #000000; stroke-width: 0.5"/>
    <path d="M 145.23651 103.622349 
L 145.23651 71.884326 
" clip-path="url(#p6ef8022944)" style="fill: none; stroke: #000000; stroke-width: 0.5"/>
    <path d="M 192.007018 69.902213 
L 192.007018 60.703953 
" clip-path="url(#p6ef8022944)" style="fill: none; stroke: #000000; stroke-width: 0.5"/>
    <path d="M 238.777526 64.404259 
L 238.777526 51.968481 
" clip-path="url(#p6ef8022944)" style="fill: none; stroke: #000000; stroke-width: 0.5"/>
    <path d="M 285.548034 153.951594 
L 285.548034 128.53702 
" clip-path="url(#p6ef8022944)" style="fill: none; stroke: #000000; stroke-width: 0.5"/>
    <path d="M 332.318543 197.949923 
L 332.318543 173.156169 
" clip-path="url(#p6ef8022944)" style="fill: none; stroke: #000000; stroke-width: 0.5"/>
    <path d="M 379.089051 134.39778 
L 379.089051 122.36079 
" clip-path="url(#p6ef8022944)" style="fill: none; stroke: #000000; stroke-width: 0.5"/>
    <path d="M 425.859559 151.826684 
L 425.859559 139.859823 
" clip-path="url(#p6ef8022944)" style="fill: none; stroke: #000000; stroke-width: 0.5"/>
    <path d="M 472.630067 114.058101 
L 472.630067 108.303002 
" clip-path="url(#p6ef8022944)" style="fill: none; stroke: #000000; stroke-width: 0.5"/>
    <path d="M 519.400576 127.11768 
L 519.400576 114.098408 
" clip-path="url(#p6ef8022944)" style="fill: none; stroke: #000000; stroke-width: 0.5"/>
    <path d="M 566.171084 129.025617 
L 566.171084 116.253455 
" clip-path="url(#p6ef8022944)" style="fill: none; stroke: #000000; stroke-width: 0.5"/>
    <path d="M 612.941592 166.987796 
L 612.941592 155.808207 
" clip-path="url(#p6ef8022944)" style="fill: none; stroke: #000000; stroke-width: 0.5"/>
    <path d="M 659.7121 199.08 
L 659.7121 199.08 
" clip-path="url(#p6ef8022944)" style="fill: none; stroke: #000000; stroke-width: 0.5"/>
   </g>
   <g id="line2d_30">
    <g clip-path="url(#p6ef8022944)">
     <use xlink:href="#m9778300bc5" x="98.466001" y="121.909391" style="stroke: #000000"/>
     <use xlink:href="#m9778300bc5" x="145.23651" y="103.622349" style="stroke: #000000"/>
     <use xlink:href="#m9778300bc5" x="192.007018" y="69.902213" style="stroke: #000000"/>
     <use xlink:href="#m9778300bc5" x="238.777526" y="64.404259" style="stroke: #000000"/>
     <use xlink:href="#m9778300bc5" x="285.548034" y="153.951594" style="stroke: #000000"/>
     <use xlink:href="#m9778300bc5" x="332.318543" y="197.949923" style="stroke: #000000"/>
     <use xlink:href="#m9778300bc5" x="379.089051" y="134.39778" style="stroke: #000000"/>
     <use xlink:href="#m9778300bc5" x="425.859559" y="151.826684" style="stroke: #000000"/>
     <use xlink:href="#m9778300bc5" x="472.630067" y="114.058101" style="stroke: #000000"/>
     <use xlink:href="#m9778300bc5" x="519.400576" y="127.11768" style="stroke: #000000"/>
     <use xlink:href="#m9778300bc5" x="566.171084" y="129.025617" style="stroke: #000000"/>
     <use xlink:href="#m9778300bc5" x="612.941592" y="166.987796" style="stroke: #000000"/>
     <use xlink:href="#m9778300bc5" x="659.7121" y="199.08" style="stroke: #000000"/>
    </g>
   </g>
   <g id="line2d_31">
    <g clip-path="url(#p6ef8022944)">
     <use xlink:href="#m9778300bc5" x="98.466001" y="92.665302" style="stroke: #000000"/>
     <use xlink:href="#m9778300bc5" x="145.23651" y="71.884326" style="stroke: #000000"/>
     <use xlink:href="#m9778300bc5" x="192.007018" y="60.703953" style="stroke: #000000"/>
     <use xlink:href="#m9778300bc5" x="238.777526" y="51.968481" style="stroke: #000000"/>
     <use xlink:href="#m9778300bc5" x="285.548034" y="128.53702" style="stroke: #000000"/>
     <use xlink:href="#m9778300bc5" x="332.318543" y="173.156169" style="stroke: #000000"/>
     <use xlink:href="#m9778300bc5" x="379.089051" y="122.36079" style="stroke: #000000"/>
     <use xlink:href="#m9778300bc5" x="425.859559" y="139.859823" style="stroke: #000000"/>
     <use xlink:href="#m9778300bc5" x="472.630067" y="108.303002" style="stroke: #000000"/>
     <use xlink:href="#m9778300bc5" x="519.400576" y="114.098408" style="stroke: #000000"/>
     <use xlink:href="#m9778300bc5" x="566.171084" y="116.253455" style="stroke: #000000"/>
     <use xlink:href="#m9778300bc5" x="612.941592" y="155.808207" style="stroke: #000000"/>
     <use xlink:href="#m9778300bc5" x="659.7121" y="199.08" style="stroke: #000000"/>
    </g>
   </g>
   <g id="LineCollection_6">
    <path d="M 103.143052 79.964789 
L 103.143052 65.64753 
" clip-path="url(#p6ef8022944)" style="fill: none; stroke: #000000; stroke-width: 0.5"/>
    <path d="M 149.91356 59.145639 
L 149.91356 48.034016 
" clip-path="url(#p6ef8022944)" style="fill: none; stroke: #000000; stroke-width: 0.5"/>
    <path d="M 196.684069 124.71076 
L 196.684069 99.217909 
" clip-path="url(#p6ef8022944)" style="fill: none; stroke: #000000; stroke-width: 0.5"/>
    <path d="M 243.454577 115.583333 
L 243.454577 101.890431 
" clip-path="url(#p6ef8022944)" style="fill: none; stroke: #000000; stroke-width: 0.5"/>
    <path d="M 290.225085 146.023472 
L 290.225085 129.339511 
" clip-path="url(#p6ef8022944)" style="fill: none; stroke: #000000; stroke-width: 0.5"/>
    <path d="M 336.995593 148.690029 
L 336.995593 130.351217 
" clip-path="url(#p6ef8022944)" style="fill: none; stroke: #000000; stroke-width: 0.5"/>
    <path d="M 383.766102 147.458163 
L 383.766102 130.814264 
" clip-path="url(#p6ef8022944)" style="fill: none; stroke: #000000; stroke-width: 0.5"/>
    <path d="M 430.53661 160.695967 
L 430.53661 147.031729 
" clip-path="url(#p6ef8022944)" style="fill: none; stroke: #000000; stroke-width: 0.5"/>
    <path d="M 477.307118 148.362552 
L 477.307118 134.20529 
" clip-path="url(#p6ef8022944)" style="fill: none; stroke: #000000; stroke-width: 0.5"/>
    <path d="M 524.077626 126.18434 
L 524.077626 119.818808 
" clip-path="url(#p6ef8022944)" style="fill: none; stroke: #000000; stroke-width: 0.5"/>
    <path d="M 570.848135 144.829599 
L 570.848135 129.772348 
" clip-path="url(#p6ef8022944)" style="fill: none; stroke: #000000; stroke-width: 0.5"/>
    <path d="M 617.618643 194.578609 
L 617.618643 182.416517 
" clip-path="url(#p6ef8022944)" style="fill: none; stroke: #000000; stroke-width: 0.5"/>
    <path d="M 664.389151 199.08 
L 664.389151 199.08 
" clip-path="url(#p6ef8022944)" style="fill: none; stroke: #000000; stroke-width: 0.5"/>
   </g>
   <g id="line2d_32">
    <g clip-path="url(#p6ef8022944)">
     <use xlink:href="#m9778300bc5" x="103.143052" y="79.964789" style="stroke: #000000"/>
     <use xlink:href="#m9778300bc5" x="149.91356" y="59.145639" style="stroke: #000000"/>
     <use xlink:href="#m9778300bc5" x="196.684069" y="124.71076" style="stroke: #000000"/>
     <use xlink:href="#m9778300bc5" x="243.454577" y="115.583333" style="stroke: #000000"/>
     <use xlink:href="#m9778300bc5" x="290.225085" y="146.023472" style="stroke: #000000"/>
     <use xlink:href="#m9778300bc5" x="336.995593" y="148.690029" style="stroke: #000000"/>
     <use xlink:href="#m9778300bc5" x="383.766102" y="147.458163" style="stroke: #000000"/>
     <use xlink:href="#m9778300bc5" x="430.53661" y="160.695967" style="stroke: #000000"/>
     <use xlink:href="#m9778300bc5" x="477.307118" y="148.362552" style="stroke: #000000"/>
     <use xlink:href="#m9778300bc5" x="524.077626" y="126.18434" style="stroke: #000000"/>
     <use xlink:href="#m9778300bc5" x="570.848135" y="144.829599" style="stroke: #000000"/>
     <use xlink:href="#m9778300bc5" x="617.618643" y="194.578609" style="stroke: #000000"/>
     <use xlink:href="#m9778300bc5" x="664.389151" y="199.08" style="stroke: #000000"/>
    </g>
   </g>
   <g id="line2d_33">
    <g clip-path="url(#p6ef8022944)">
     <use xlink:href="#m9778300bc5" x="103.143052" y="65.64753" style="stroke: #000000"/>
     <use xlink:href="#m9778300bc5" x="149.91356" y="48.034016" style="stroke: #000000"/>
     <use xlink:href="#m9778300bc5" x="196.684069" y="99.217909" style="stroke: #000000"/>
     <use xlink:href="#m9778300bc5" x="243.454577" y="101.890431" style="stroke: #000000"/>
     <use xlink:href="#m9778300bc5" x="290.225085" y="129.339511" style="stroke: #000000"/>
     <use xlink:href="#m9778300bc5" x="336.995593" y="130.351217" style="stroke: #000000"/>
     <use xlink:href="#m9778300bc5" x="383.766102" y="130.814264" style="stroke: #000000"/>
     <use xlink:href="#m9778300bc5" x="430.53661" y="147.031729" style="stroke: #000000"/>
     <use xlink:href="#m9778300bc5" x="477.307118" y="134.20529" style="stroke: #000000"/>
     <use xlink:href="#m9778300bc5" x="524.077626" y="119.818808" style="stroke: #000000"/>
     <use xlink:href="#m9778300bc5" x="570.848135" y="129.772348" style="stroke: #000000"/>
     <use xlink:href="#m9778300bc5" x="617.618643" y="182.416517" style="stroke: #000000"/>
     <use xlink:href="#m9778300bc5" x="664.389151" y="199.08" style="stroke: #000000"/>
    </g>
   </g>
   <g id="LineCollection_7">
    <path d="M 107.820103 140.842608 
L 107.820103 120.650066 
" clip-path="url(#p6ef8022944)" style="fill: none; stroke: #000000; stroke-width: 0.5"/>
    <path d="M 154.590611 109.531478 
L 154.590611 93.141027 
" clip-path="url(#p6ef8022944)" style="fill: none; stroke: #000000; stroke-width: 0.5"/>
    <path d="M 201.36112 132.602327 
L 201.36112 109.629361 
" clip-path="url(#p6ef8022944)" style="fill: none; stroke: #000000; stroke-width: 0.5"/>
    <path d="M 248.131628 127.364827 
L 248.131628 101.458394 
" clip-path="url(#p6ef8022944)" style="fill: none; stroke: #000000; stroke-width: 0.5"/>
    <path d="M 294.902136 153.53371 
L 294.902136 129.349996 
" clip-path="url(#p6ef8022944)" style="fill: none; stroke: #000000; stroke-width: 0.5"/>
    <path d="M 341.672644 162.678073 
L 341.672644 146.177695 
" clip-path="url(#p6ef8022944)" style="fill: none; stroke: #000000; stroke-width: 0.5"/>
    <path d="M 388.443152 99.100131 
L 388.443152 81.162529 
" clip-path="url(#p6ef8022944)" style="fill: none; stroke: #000000; stroke-width: 0.5"/>
    <path d="M 435.213661 165.376799 
L 435.213661 153.477983 
" clip-path="url(#p6ef8022944)" style="fill: none; stroke: #000000; stroke-width: 0.5"/>
    <path d="M 481.984169 164.713514 
L 481.984169 142.720764 
" clip-path="url(#p6ef8022944)" style="fill: none; stroke: #000000; stroke-width: 0.5"/>
    <path d="M 528.754677 155.823283 
L 528.754677 137.278212 
" clip-path="url(#p6ef8022944)" style="fill: none; stroke: #000000; stroke-width: 0.5"/>
    <path d="M 575.525185 156.863552 
L 575.525185 145.410123 
" clip-path="url(#p6ef8022944)" style="fill: none; stroke: #000000; stroke-width: 0.5"/>
    <path d="M 622.295694 179.902819 
L 622.295694 137.889851 
" clip-path="url(#p6ef8022944)" style="fill: none; stroke: #000000; stroke-width: 0.5"/>
    <path d="M 669.066202 199.08 
L 669.066202 199.08 
" clip-path="url(#p6ef8022944)" style="fill: none; stroke: #000000; stroke-width: 0.5"/>
   </g>
   <g id="line2d_34">
    <g clip-path="url(#p6ef8022944)">
     <use xlink:href="#m9778300bc5" x="107.820103" y="140.842608" style="stroke: #000000"/>
     <use xlink:href="#m9778300bc5" x="154.590611" y="109.531478" style="stroke: #000000"/>
     <use xlink:href="#m9778300bc5" x="201.36112" y="132.602327" style="stroke: #000000"/>
     <use xlink:href="#m9778300bc5" x="248.131628" y="127.364827" style="stroke: #000000"/>
     <use xlink:href="#m9778300bc5" x="294.902136" y="153.53371" style="stroke: #000000"/>
     <use xlink:href="#m9778300bc5" x="341.672644" y="162.678073" style="stroke: #000000"/>
     <use xlink:href="#m9778300bc5" x="388.443152" y="99.100131" style="stroke: #000000"/>
     <use xlink:href="#m9778300bc5" x="435.213661" y="165.376799" style="stroke: #000000"/>
     <use xlink:href="#m9778300bc5" x="481.984169" y="164.713514" style="stroke: #000000"/>
     <use xlink:href="#m9778300bc5" x="528.754677" y="155.823283" style="stroke: #000000"/>
     <use xlink:href="#m9778300bc5" x="575.525185" y="156.863552" style="stroke: #000000"/>
     <use xlink:href="#m9778300bc5" x="622.295694" y="179.902819" style="stroke: #000000"/>
     <use xlink:href="#m9778300bc5" x="669.066202" y="199.08" style="stroke: #000000"/>
    </g>
   </g>
   <g id="line2d_35">
    <g clip-path="url(#p6ef8022944)">
     <use xlink:href="#m9778300bc5" x="107.820103" y="120.650066" style="stroke: #000000"/>
     <use xlink:href="#m9778300bc5" x="154.590611" y="93.141027" style="stroke: #000000"/>
     <use xlink:href="#m9778300bc5" x="201.36112" y="109.629361" style="stroke: #000000"/>
     <use xlink:href="#m9778300bc5" x="248.131628" y="101.458394" style="stroke: #000000"/>
     <use xlink:href="#m9778300bc5" x="294.902136" y="129.349996" style="stroke: #000000"/>
     <use xlink:href="#m9778300bc5" x="341.672644" y="146.177695" style="stroke: #000000"/>
     <use xlink:href="#m9778300bc5" x="388.443152" y="81.162529" style="stroke: #000000"/>
     <use xlink:href="#m9778300bc5" x="435.213661" y="153.477983" style="stroke: #000000"/>
     <use xlink:href="#m9778300bc5" x="481.984169" y="142.720764" style="stroke: #000000"/>
     <use xlink:href="#m9778300bc5" x="528.754677" y="137.278212" style="stroke: #000000"/>
     <use xlink:href="#m9778300bc5" x="575.525185" y="145.410123" style="stroke: #000000"/>
     <use xlink:href="#m9778300bc5" x="622.295694" y="137.889851" style="stroke: #000000"/>
     <use xlink:href="#m9778300bc5" x="669.066202" y="199.08" style="stroke: #000000"/>
    </g>
   </g>
   <g id="patch_94">
    <path d="M 47.72 199.08 
L 47.72 14.3 
" style="fill: none; stroke: #000000; stroke-width: 0.8; stroke-linejoin: miter; stroke-linecap: square"/>
   </g>
   <g id="patch_95">
    <path d="M 701.104 199.08 
L 701.104 14.3 
" style="fill: none; stroke: #000000; stroke-width: 0.8; stroke-linejoin: miter; stroke-linecap: square"/>
   </g>
   <g id="patch_96">
    <path d="M 47.72 199.08 
L 701.104 199.08 
" style="fill: none; stroke: #000000; stroke-width: 0.8; stroke-linejoin: miter; stroke-linecap: square"/>
   </g>
   <g id="patch_97">
    <path d="M 47.72 14.3 
L 701.104 14.3 
" style="fill: none; stroke: #000000; stroke-width: 0.8; stroke-linejoin: miter; stroke-linecap: square"/>
   </g>
   <g id="legend_1">
    <g id="patch_98">
     <path d="M 452.081223 44.0904 
L 688.773177 44.0904 
Q 690.161177 44.0904 690.161177 42.7024 
L 690.161177 23.023163 
Q 690.161177 21.635163 688.773177 21.635163 
L 452.081223 21.635163 
Q 450.693223 21.635163 450.693223 23.023163 
L 450.693223 42.7024 
Q 450.693223 44.0904 452.081223 44.0904 
z
" style="fill: #ffffff; opacity: 0.8; stroke: #cccccc; stroke-linejoin: miter"/>
    </g>
    <g id="patch_99">
     <path d="M 453.469223 29.684478 
L 460.409223 29.684478 
L 460.409223 24.826478 
L 453.469223 24.826478 
z
" style="fill: #1f77b4; stroke: #1f77b4; stroke-linejoin: miter"/>
    </g>
    <g id="text_10">
     <!-- DeepCRISTL -->
     <g transform="translate(467.349223 29.684478) scale(0.0694 -0.0694)">
      <defs>
       <path id="DejaVuSans-44" d="M 1259 4147 
L 1259 519 
L 2022 519 
Q 2988 519 3436 956 
Q 3884 1394 3884 2338 
Q 3884 3275 3436 3711 
Q 2988 4147 2022 4147 
L 1259 4147 
z
M 628 4666 
L 1925 4666 
Q 3281 4666 3915 4102 
Q 4550 3538 4550 2338 
Q 4550 1131 3912 565 
Q 3275 0 1925 0 
L 628 0 
L 628 4666 
z
" transform="scale(0.015625)"/>
       <path id="DejaVuSans-43" d="M 4122 4306 
L 4122 3641 
Q 3803 3938 3442 4084 
Q 3081 4231 2675 4231 
Q 1875 4231 1450 3742 
Q 1025 3253 1025 2328 
Q 1025 1406 1450 917 
Q 1875 428 2675 428 
Q 3081 428 3442 575 
Q 3803 722 4122 1019 
L 4122 359 
Q 3791 134 3420 21 
Q 3050 -91 2638 -91 
Q 1578 -91 968 557 
Q 359 1206 359 2328 
Q 359 3453 968 4101 
Q 1578 4750 2638 4750 
Q 3056 4750 3426 4639 
Q 3797 4528 4122 4306 
z
" transform="scale(0.015625)"/>
       <path id="DejaVuSans-52" d="M 2841 2188 
Q 3044 2119 3236 1894 
Q 3428 1669 3622 1275 
L 4263 0 
L 3584 0 
L 2988 1197 
Q 2756 1666 2539 1819 
Q 2322 1972 1947 1972 
L 1259 1972 
L 1259 0 
L 628 0 
L 628 4666 
L 2053 4666 
Q 2853 4666 3247 4331 
Q 3641 3997 3641 3322 
Q 3641 2881 3436 2590 
Q 3231 2300 2841 2188 
z
M 1259 4147 
L 1259 2491 
L 2053 2491 
Q 2509 2491 2742 2702 
Q 2975 2913 2975 3322 
Q 2975 3731 2742 3939 
Q 2509 4147 2053 4147 
L 1259 4147 
z
" transform="scale(0.015625)"/>
       <path id="DejaVuSans-49" d="M 628 4666 
L 1259 4666 
L 1259 0 
L 628 0 
L 628 4666 
z
" transform="scale(0.015625)"/>
       <path id="DejaVuSans-54" d="M -19 4666 
L 3928 4666 
L 3928 4134 
L 2272 4134 
L 2272 0 
L 1638 0 
L 1638 4134 
L -19 4134 
L -19 4666 
z
" transform="scale(0.015625)"/>
       <path id="DejaVuSans-4c" d="M 628 4666 
L 1259 4666 
L 1259 531 
L 3531 531 
L 3531 0 
L 628 0 
L 628 4666 
z
" transform="scale(0.015625)"/>
      </defs>
      <use xlink:href="#DejaVuSans-44"/>
      <use xlink:href="#DejaVuSans-65" x="77.001953"/>
      <use xlink:href="#DejaVuSans-65" x="138.525391"/>
      <use xlink:href="#DejaVuSans-70" x="200.048828"/>
      <use xlink:href="#DejaVuSans-43" x="263.525391"/>
      <use xlink:href="#DejaVuSans-52" x="333.349609"/>
      <use xlink:href="#DejaVuSans-49" x="402.832031"/>
      <use xlink:href="#DejaVuSans-53" x="432.324219"/>
      <use xlink:href="#DejaVuSans-54" x="495.800781"/>
      <use xlink:href="#DejaVuSans-4c" x="556.884766"/>
     </g>
    </g>
    <g id="patch_100">
     <path d="M 453.469223 39.871097 
L 460.409223 39.871097 
L 460.409223 35.013097 
L 453.469223 35.013097 
z
" style="fill: #aec7e8; stroke: #aec7e8; stroke-linejoin: miter"/>
    </g>
    <g id="text_11">
     <!-- CRISPROn -->
     <g transform="translate(467.349223 39.871097) scale(0.0694 -0.0694)">
      <defs>
       <path id="DejaVuSans-50" d="M 1259 4147 
L 1259 2394 
L 2053 2394 
Q 2494 2394 2734 2622 
Q 2975 2850 2975 3272 
Q 2975 3691 2734 3919 
Q 2494 4147 2053 4147 
L 1259 4147 
z
M 628 4666 
L 2053 4666 
Q 2838 4666 3239 4311 
Q 3641 3956 3641 3272 
Q 3641 2581 3239 2228 
Q 2838 1875 2053 1875 
L 1259 1875 
L 1259 0 
L 628 0 
L 628 4666 
z
" transform="scale(0.015625)"/>
       <path id="DejaVuSans-4f" d="M 2522 4238 
Q 1834 4238 1429 3725 
Q 1025 3213 1025 2328 
Q 1025 1447 1429 934 
Q 1834 422 2522 422 
Q 3209 422 3611 934 
Q 4013 1447 4013 2328 
Q 4013 3213 3611 3725 
Q 3209 4238 2522 4238 
z
M 2522 4750 
Q 3503 4750 4090 4092 
Q 4678 3434 4678 2328 
Q 4678 1225 4090 567 
Q 3503 -91 2522 -91 
Q 1538 -91 948 565 
Q 359 1222 359 2328 
Q 359 3434 948 4092 
Q 1538 4750 2522 4750 
z
" transform="scale(0.015625)"/>
      </defs>
      <use xlink:href="#DejaVuSans-43"/>
      <use xlink:href="#DejaVuSans-52" x="69.824219"/>
      <use xlink:href="#DejaVuSans-49" x="139.306641"/>
      <use xlink:href="#DejaVuSans-53" x="168.798828"/>
      <use xlink:href="#DejaVuSans-50" x="232.275391"/>
      <use xlink:href="#DejaVuSans-52" x="292.578125"/>
      <use xlink:href="#DejaVuSans-4f" x="362.060547"/>
      <use xlink:href="#DejaVuSans-6e" x="440.771484"/>
     </g>
    </g>
    <g id="patch_101">
     <path d="M 516.806483 29.684478 
L 523.746483 29.684478 
L 523.746483 24.826478 
L 516.806483 24.826478 
z
" style="fill: #ff7f0e; stroke: #ff7f0e; stroke-linejoin: miter"/>
    </g>
    <g id="text_12">
     <!-- DeepHF -->
     <g transform="translate(530.686483 29.684478) scale(0.0694 -0.0694)">
      <defs>
       <path id="DejaVuSans-48" d="M 628 4666 
L 1259 4666 
L 1259 2753 
L 3553 2753 
L 3553 4666 
L 4184 4666 
L 4184 0 
L 3553 0 
L 3553 2222 
L 1259 2222 
L 1259 0 
L 628 0 
L 628 4666 
z
" transform="scale(0.015625)"/>
       <path id="DejaVuSans-46" d="M 628 4666 
L 3309 4666 
L 3309 4134 
L 1259 4134 
L 1259 2759 
L 3109 2759 
L 3109 2228 
L 1259 2228 
L 1259 0 
L 628 0 
L 628 4666 
z
" transform="scale(0.015625)"/>
      </defs>
      <use xlink:href="#DejaVuSans-44"/>
      <use xlink:href="#DejaVuSans-65" x="77.001953"/>
      <use xlink:href="#DejaVuSans-65" x="138.525391"/>
      <use xlink:href="#DejaVuSans-70" x="200.048828"/>
      <use xlink:href="#DejaVuSans-48" x="263.525391"/>
      <use xlink:href="#DejaVuSans-46" x="338.720703"/>
     </g>
    </g>
    <g id="patch_102">
     <path d="M 516.806483 39.871097 
L 523.746483 39.871097 
L 523.746483 35.013097 
L 516.806483 35.013097 
z
" style="fill: #ffbb78; stroke: #ffbb78; stroke-linejoin: miter"/>
    </g>
    <g id="text_13">
     <!-- wuCrispr -->
     <g transform="translate(530.686483 39.871097) scale(0.0694 -0.0694)">
      <defs>
       <path id="DejaVuSans-77" d="M 269 3500 
L 844 3500 
L 1563 769 
L 2278 3500 
L 2956 3500 
L 3675 769 
L 4391 3500 
L 4966 3500 
L 4050 0 
L 3372 0 
L 2619 2869 
L 1863 0 
L 1184 0 
L 269 3500 
z
" transform="scale(0.015625)"/>
       <path id="DejaVuSans-75" d="M 544 1381 
L 544 3500 
L 1119 3500 
L 1119 1403 
Q 1119 906 1312 657 
Q 1506 409 1894 409 
Q 2359 409 2629 706 
Q 2900 1003 2900 1516 
L 2900 3500 
L 3475 3500 
L 3475 0 
L 2900 0 
L 2900 538 
Q 2691 219 2414 64 
Q 2138 -91 1772 -91 
Q 1169 -91 856 284 
Q 544 659 544 1381 
z
M 1991 3584 
L 1991 3584 
z
" transform="scale(0.015625)"/>
       <path id="DejaVuSans-69" d="M 603 3500 
L 1178 3500 
L 1178 0 
L 603 0 
L 603 3500 
z
M 603 4863 
L 1178 4863 
L 1178 4134 
L 603 4134 
L 603 4863 
z
" transform="scale(0.015625)"/>
       <path id="DejaVuSans-73" d="M 2834 3397 
L 2834 2853 
Q 2591 2978 2328 3040 
Q 2066 3103 1784 3103 
Q 1356 3103 1142 2972 
Q 928 2841 928 2578 
Q 928 2378 1081 2264 
Q 1234 2150 1697 2047 
L 1894 2003 
Q 2506 1872 2764 1633 
Q 3022 1394 3022 966 
Q 3022 478 2636 193 
Q 2250 -91 1575 -91 
Q 1294 -91 989 -36 
Q 684 19 347 128 
L 347 722 
Q 666 556 975 473 
Q 1284 391 1588 391 
Q 1994 391 2212 530 
Q 2431 669 2431 922 
Q 2431 1156 2273 1281 
Q 2116 1406 1581 1522 
L 1381 1569 
Q 847 1681 609 1914 
Q 372 2147 372 2553 
Q 372 3047 722 3315 
Q 1072 3584 1716 3584 
Q 2034 3584 2315 3537 
Q 2597 3491 2834 3397 
z
" transform="scale(0.015625)"/>
      </defs>
      <use xlink:href="#DejaVuSans-77"/>
      <use xlink:href="#DejaVuSans-75" x="81.787109"/>
      <use xlink:href="#DejaVuSans-43" x="145.166016"/>
      <use xlink:href="#DejaVuSans-72" x="214.990234"/>
      <use xlink:href="#DejaVuSans-69" x="256.103516"/>
      <use xlink:href="#DejaVuSans-73" x="283.886719"/>
      <use xlink:href="#DejaVuSans-70" x="335.986328"/>
      <use xlink:href="#DejaVuSans-72" x="399.462891"/>
     </g>
    </g>
    <g id="patch_103">
     <path d="M 568.20152 29.684478 
L 575.14152 29.684478 
L 575.14152 24.826478 
L 568.20152 24.826478 
z
" style="fill: #2ca02c; stroke: #2ca02c; stroke-linejoin: miter"/>
    </g>
    <g id="text_14">
     <!-- wang score -->
     <g transform="translate(582.08152 29.684478) scale(0.0694 -0.0694)">
      <defs>
       <path id="DejaVuSans-67" d="M 2906 1791 
Q 2906 2416 2648 2759 
Q 2391 3103 1925 3103 
Q 1463 3103 1205 2759 
Q 947 2416 947 1791 
Q 947 1169 1205 825 
Q 1463 481 1925 481 
Q 2391 481 2648 825 
Q 2906 1169 2906 1791 
z
M 3481 434 
Q 3481 -459 3084 -895 
Q 2688 -1331 1869 -1331 
Q 1566 -1331 1297 -1286 
Q 1028 -1241 775 -1147 
L 775 -588 
Q 1028 -725 1275 -790 
Q 1522 -856 1778 -856 
Q 2344 -856 2625 -561 
Q 2906 -266 2906 331 
L 2906 616 
Q 2728 306 2450 153 
Q 2172 0 1784 0 
Q 1141 0 747 490 
Q 353 981 353 1791 
Q 353 2603 747 3093 
Q 1141 3584 1784 3584 
Q 2172 3584 2450 3431 
Q 2728 3278 2906 2969 
L 2906 3500 
L 3481 3500 
L 3481 434 
z
" transform="scale(0.015625)"/>
       <path id="DejaVuSans-20" transform="scale(0.015625)"/>
       <path id="DejaVuSans-63" d="M 3122 3366 
L 3122 2828 
Q 2878 2963 2633 3030 
Q 2388 3097 2138 3097 
Q 1578 3097 1268 2742 
Q 959 2388 959 1747 
Q 959 1106 1268 751 
Q 1578 397 2138 397 
Q 2388 397 2633 464 
Q 2878 531 3122 666 
L 3122 134 
Q 2881 22 2623 -34 
Q 2366 -91 2075 -91 
Q 1284 -91 818 406 
Q 353 903 353 1747 
Q 353 2603 823 3093 
Q 1294 3584 2113 3584 
Q 2378 3584 2631 3529 
Q 2884 3475 3122 3366 
z
" transform="scale(0.015625)"/>
       <path id="DejaVuSans-6f" d="M 1959 3097 
Q 1497 3097 1228 2736 
Q 959 2375 959 1747 
Q 959 1119 1226 758 
Q 1494 397 1959 397 
Q 2419 397 2687 759 
Q 2956 1122 2956 1747 
Q 2956 2369 2687 2733 
Q 2419 3097 1959 3097 
z
M 1959 3584 
Q 2709 3584 3137 3096 
Q 3566 2609 3566 1747 
Q 3566 888 3137 398 
Q 2709 -91 1959 -91 
Q 1206 -91 779 398 
Q 353 888 353 1747 
Q 353 2609 779 3096 
Q 1206 3584 1959 3584 
z
" transform="scale(0.015625)"/>
      </defs>
      <use xlink:href="#DejaVuSans-77"/>
      <use xlink:href="#DejaVuSans-61" x="81.787109"/>
      <use xlink:href="#DejaVuSans-6e" x="143.066406"/>
      <use xlink:href="#DejaVuSans-67" x="206.445312"/>
      <use xlink:href="#DejaVuSans-20" x="269.921875"/>
      <use xlink:href="#DejaVuSans-73" x="301.708984"/>
      <use xlink:href="#DejaVuSans-63" x="353.808594"/>
      <use xlink:href="#DejaVuSans-6f" x="408.789062"/>
      <use xlink:href="#DejaVuSans-72" x="469.970703"/>
      <use xlink:href="#DejaVuSans-65" x="508.833984"/>
     </g>
    </g>
    <g id="patch_104">
     <path d="M 568.20152 39.871097 
L 575.14152 39.871097 
L 575.14152 35.013097 
L 568.20152 35.013097 
z
" style="fill: #98df8a; stroke: #98df8a; stroke-linejoin: miter"/>
    </g>
    <g id="text_15">
     <!-- doench score -->
     <g transform="translate(582.08152 39.871097) scale(0.0694 -0.0694)">
      <defs>
       <path id="DejaVuSans-64" d="M 2906 2969 
L 2906 4863 
L 3481 4863 
L 3481 0 
L 2906 0 
L 2906 525 
Q 2725 213 2448 61 
Q 2172 -91 1784 -91 
Q 1150 -91 751 415 
Q 353 922 353 1747 
Q 353 2572 751 3078 
Q 1150 3584 1784 3584 
Q 2172 3584 2448 3432 
Q 2725 3281 2906 2969 
z
M 947 1747 
Q 947 1113 1208 752 
Q 1469 391 1925 391 
Q 2381 391 2643 752 
Q 2906 1113 2906 1747 
Q 2906 2381 2643 2742 
Q 2381 3103 1925 3103 
Q 1469 3103 1208 2742 
Q 947 2381 947 1747 
z
" transform="scale(0.015625)"/>
       <path id="DejaVuSans-68" d="M 3513 2113 
L 3513 0 
L 2938 0 
L 2938 2094 
Q 2938 2591 2744 2837 
Q 2550 3084 2163 3084 
Q 1697 3084 1428 2787 
Q 1159 2491 1159 1978 
L 1159 0 
L 581 0 
L 581 4863 
L 1159 4863 
L 1159 2956 
Q 1366 3272 1645 3428 
Q 1925 3584 2291 3584 
Q 2894 3584 3203 3211 
Q 3513 2838 3513 2113 
z
" transform="scale(0.015625)"/>
      </defs>
      <use xlink:href="#DejaVuSans-64"/>
      <use xlink:href="#DejaVuSans-6f" x="63.476562"/>
      <use xlink:href="#DejaVuSans-65" x="124.658203"/>
      <use xlink:href="#DejaVuSans-6e" x="186.181641"/>
      <use xlink:href="#DejaVuSans-63" x="249.560547"/>
      <use xlink:href="#DejaVuSans-68" x="304.541016"/>
      <use xlink:href="#DejaVuSans-20" x="367.919922"/>
      <use xlink:href="#DejaVuSans-73" x="399.707031"/>
      <use xlink:href="#DejaVuSans-63" x="451.806641"/>
      <use xlink:href="#DejaVuSans-6f" x="506.787109"/>
      <use xlink:href="#DejaVuSans-72" x="567.96875"/>
      <use xlink:href="#DejaVuSans-65" x="606.832031"/>
     </g>
    </g>
    <g id="patch_105">
     <path d="M 635.406745 29.684478 
L 642.346745 29.684478 
L 642.346745 24.826478 
L 635.406745 24.826478 
z
" style="fill: #d62728; stroke: #d62728; stroke-linejoin: miter"/>
    </g>
    <g id="text_16">
     <!-- chari score -->
     <g transform="translate(649.286745 29.684478) scale(0.0694 -0.0694)">
      <use xlink:href="#DejaVuSans-63"/>
      <use xlink:href="#DejaVuSans-68" x="54.980469"/>
      <use xlink:href="#DejaVuSans-61" x="118.359375"/>
      <use xlink:href="#DejaVuSans-72" x="179.638672"/>
      <use xlink:href="#DejaVuSans-69" x="220.751953"/>
      <use xlink:href="#DejaVuSans-20" x="248.535156"/>
      <use xlink:href="#DejaVuSans-73" x="280.322266"/>
      <use xlink:href="#DejaVuSans-63" x="332.421875"/>
      <use xlink:href="#DejaVuSans-6f" x="387.402344"/>
      <use xlink:href="#DejaVuSans-72" x="448.583984"/>
      <use xlink:href="#DejaVuSans-65" x="487.447266"/>
     </g>
    </g>
   </g>
  </g>
 </g>
 <defs>
  <clipPath id="p6ef8022944">
   <rect x="47.72" y="14.3" width="653.384" height="184.78"/>
  </clipPath>
 </defs>
</svg>
